<svg width="4" height="6" viewBox="0 0 4 6" fill="none" xmlns="http://www.w3.org/2000/svg">
<path opacity="0.7" d="M-270.667 3C-270.667 4.47276 -269.473 5.66667 -268 5.66667C-266.527 5.66667 -265.333 4.47276 -265.333 3C-265.333 1.52724 -266.527 0.333333 -268 0.333333C-269.473 0.333333 -270.667 1.52724 -270.667 3ZM-1.66669 2.99998C-1.66669 4.47274 -0.472778 5.66664 1 5.66664C2.47275 5.66664 3.66666 4.47274 3.66666 2.99998C3.66666 1.52722 2.47275 0.33331 1 0.33331C-0.472779 0.33331 -1.66669 1.52722 -1.66669 2.99998ZM-268 3.5L1 3.49998L1 2.49998L-268 2.5L-268 3.5Z" fill="#1B1B1B"/>
</svg>
