<svg width="100" height="99" viewBox="0 0 100 99" fill="none" xmlns="http://www.w3.org/2000/svg">
<g id="icon-03">
<g id="Layer 2">
<g id="Layer 1">
<path id="Vector" d="M48.3533 3.47612C49.2541 3.40796 50.1721 3.40796 51.0786 3.40796C59.0004 3.40792 66.794 5.40107 73.7362 9.20252C80.6785 13.004 86.5445 18.4906 90.7901 25.1533C95.0358 31.816 97.5235 39.4391 98.0224 47.3153C98.5214 55.1914 97.0154 63.0655 93.6443 70.2072C90.2732 77.3488 85.1461 83.5265 78.7387 88.1673C72.3313 92.808 64.8511 95.7615 56.9921 96.7536C49.1331 97.7457 41.1498 96.7444 33.783 93.8425C26.4161 90.9406 19.9043 86.2322 14.8516 80.154" stroke="#1B1B1B" stroke-width="2" stroke-miterlimit="10" stroke-linecap="round"/>
<path id="Vector_2" d="M10.9632 68.2262L12.5425 67.2777L16.026 72.9576L8.89353 77.2856L5.47266 71.7307L7.02915 70.7879L9.21281 74.3548L10.4101 73.6278L8.48302 70.4868L9.98821 69.5724L11.9324 72.702L13.2323 71.9125L10.9632 68.2262Z" fill="#1B1B1B"/>
<path id="Vector_3" d="M11.3124 65.3579C11.2294 66.1128 10.935 66.8292 10.4629 67.4254C9.97746 68.0425 9.32739 68.511 8.58712 68.7772C7.86408 69.0665 7.07479 69.1511 6.30654 69.0214C5.55386 68.8929 4.85256 68.5564 4.28252 68.0502C3.67139 67.5102 3.20502 66.8269 2.92557 66.0622C2.66095 65.4099 2.53851 64.7091 2.56638 64.0061C2.60169 63.3589 2.79759 62.7305 3.13653 62.1772L4.93819 63.086C4.7381 63.4073 4.61544 63.7704 4.57983 64.1468C4.54422 64.5233 4.59663 64.9028 4.73293 65.2557C4.87573 65.6501 5.11943 66.0006 5.43991 66.2724C5.74571 66.5292 6.12034 66.6911 6.51749 66.7381C6.94704 66.7861 7.38184 66.7276 7.78321 66.5677C8.18773 66.4177 8.54967 66.1721 8.83798 65.8521C9.09897 65.5513 9.26899 65.183 9.3283 64.7899C9.40305 64.2037 9.26639 63.6101 8.94268 63.115C8.61898 62.6198 8.12926 62.2553 7.56085 62.0863L8.24503 60.2063C8.86194 60.4028 9.42158 60.7459 9.87564 61.206C10.3678 61.7117 10.7468 62.3157 10.9874 62.9781C11.2938 63.7318 11.4056 64.55 11.3124 65.3579Z" fill="#1B1B1B"/>
<path id="Vector_4" d="M8.86603 57.9855C8.63061 58.7243 8.19147 59.3823 7.5987 59.8845C7.00593 60.3866 6.28341 60.7126 5.51358 60.8254C4.75089 60.9643 3.96442 60.8879 3.24303 60.6048C2.52164 60.3218 1.8941 59.8434 1.43134 59.2237C0.942097 58.5558 0.617061 57.7828 0.482385 56.967C0.34771 56.1512 0.407156 55.3152 0.655941 54.5264C0.89546 53.7899 1.33583 53.1343 1.92786 52.6328C2.51988 52.1313 3.24022 51.8037 4.00839 51.6865C4.77554 51.5514 5.56529 51.6321 6.28897 51.9194C7.0044 52.2021 7.62641 52.6781 8.08493 53.2939C8.57912 53.9505 8.90056 54.7198 9.01997 55.5318C9.17999 56.3493 9.127 57.1941 8.86603 57.9855ZM6.63106 54.8047C6.3865 54.5058 6.06541 54.2781 5.70173 54.1459C5.29052 54.0088 4.85119 53.9775 4.4246 54.055C3.98888 54.1037 3.57385 54.2663 3.22159 54.5264C2.90519 54.7644 2.66381 55.0876 2.52602 55.4579C2.38372 55.8309 2.34626 56.2354 2.41769 56.628C2.4801 57.0214 2.64526 57.3916 2.89661 57.7015C3.14899 58.0047 3.48042 58.2326 3.85446 58.3603C4.26124 58.5146 4.70067 58.5634 5.13158 58.5023C5.55812 58.437 5.9617 58.2672 6.30608 58.0082C6.62114 57.7689 6.8622 57.4461 7.00166 57.0767C7.14276 56.6985 7.18279 56.2902 7.11782 55.8919C7.05285 55.4936 6.88512 55.119 6.63106 54.8047Z" fill="#1B1B1B"/>
<path id="Vector_5" d="M4.08826 50.9028L4.03125 47.4437H5.74169L5.7987 50.9028H4.08826Z" fill="#1B1B1B"/>
<path id="Vector_6" d="M2.09243 43.6269L3.9112 43.8484L4.35591 40.2133L6.16327 40.4348L5.70145 44.0642L8.55218 44.4107L8.2671 46.7394L0 45.7341L0.792502 39.2761L2.59986 39.4976L2.09243 43.6269Z" fill="#1B1B1B"/>
<path id="Vector_7" d="M8.07359 35.9023L7.69159 37.1234L9.80683 37.7766L9.12266 40.0201L1.14062 37.5608L2.28092 33.9427C2.4651 33.2975 2.78587 32.699 3.22165 32.1876C3.58741 31.7518 4.07597 31.4352 4.62421 31.2789C5.18705 31.1284 5.78188 31.1462 6.33465 31.33C6.86646 31.4742 7.34329 31.7726 7.70465 32.1872C8.06601 32.6017 8.29562 33.1139 8.36436 33.6587L11.4032 32.7215L10.6563 35.1184L8.07359 35.9023ZM4.65272 33.6758C4.31886 33.9065 4.08311 34.2527 3.99135 34.647L3.60365 35.8909L5.93555 36.6122L6.32324 35.3684C6.45699 35.0014 6.45699 34.5993 6.32324 34.2324C6.25094 34.0812 6.14598 33.9478 6.01587 33.8417C5.88577 33.7357 5.73373 33.6596 5.57065 33.619C5.42126 33.5636 5.26188 33.54 5.10279 33.5498C4.9437 33.5596 4.78844 33.6025 4.64702 33.6758H4.65272Z" fill="#1B1B1B"/>
<path id="Vector_8" d="M4.15636 28.9672L5.13131 26.8202L12.6686 30.3417L11.6709 32.466L4.15636 28.9672Z" fill="#1B1B1B"/>
<path id="Vector_9" d="M15.0689 22.8841L16.6026 23.8553L13.0278 29.4784L5.99793 25.0367L9.49292 19.5443L11.0323 20.5156L8.75173 24.0427L9.93763 24.7925L11.973 21.6799L13.4554 22.6228L11.4542 25.7297L12.737 26.5419L15.0689 22.8841Z" fill="#1B1B1B"/>
<path id="Vector_10" d="M16.2032 12.064L22.2638 17.7438L20.9354 19.1467L15.1883 18.7832L18.4153 21.8106L16.836 23.5145L10.7754 17.8347L12.1038 16.4318L17.8509 16.7953L14.6239 13.7679L16.2032 12.064Z" fill="#1B1B1B"/>
<path id="Vector_11" d="M18.1074 10.4169L21.3458 8.18469C22.0252 7.70138 22.8044 7.37537 23.6264 7.23047C24.3626 7.10849 25.1184 7.19915 25.8044 7.49175C26.5023 7.81433 27.0951 8.3261 27.5148 8.9685C27.9705 9.59056 28.2377 10.3298 28.2845 11.0984C28.3217 11.8406 28.1393 12.5772 27.76 13.217C27.3337 13.9367 26.7488 14.5504 26.0495 15.0119L22.8111 17.2384L18.1074 10.4169ZM24.9492 13.5237C25.4848 13.192 25.8677 12.6635 26.0153 12.0527C26.0738 11.7501 26.0669 11.4387 25.9952 11.139C25.9234 10.8393 25.7884 10.5583 25.5991 10.3146C25.4367 10.0511 25.2201 9.82476 24.9637 9.65052C24.7072 9.47627 24.4166 9.35805 24.1111 9.30361C23.4857 9.22927 22.8559 9.40039 22.355 9.78072L21.095 10.6213L23.6891 14.3644L24.9492 13.5237Z" fill="#1B1B1B"/>
<path id="Vector_12" d="M26.916 4.75976L29.0769 3.80554L31.6995 9.68418L35.3485 8.0711L36.1068 9.77506L30.3027 12.3367L26.916 4.75976Z" fill="#1B1B1B"/>
<path id="Vector_13" d="M38.93 5.97519L39.7283 8.81512L37.4477 9.4399L36.6381 6.54318L32.1738 2.31738L34.5684 1.65851L37.3564 4.30532L38.377 0.607743L40.5778 0L38.93 5.97519Z" fill="#1B1B1B"/>
<path id="Vector_14" d="M42.1004 8.05968C41.9538 7.95761 41.8303 7.826 41.738 7.67336C41.6457 7.52073 41.5866 7.35047 41.5645 7.17362C41.5288 6.99861 41.5307 6.81806 41.57 6.64382C41.6093 6.46958 41.6851 6.30559 41.7926 6.16261C41.9015 6.02252 42.0372 5.90525 42.1918 5.81753C42.3464 5.72981 42.5168 5.67336 42.6934 5.65142C42.8689 5.61644 43.0498 5.61702 43.2251 5.65313C43.4004 5.68923 43.5667 5.76012 43.7139 5.86158C43.8592 5.96399 43.9811 6.0959 44.0715 6.24862C44.1619 6.40134 44.2188 6.57142 44.2385 6.74763C44.2733 6.92177 44.271 7.10126 44.2317 7.27445C44.1925 7.44765 44.117 7.61068 44.0104 7.75297C43.79 8.03517 43.4704 8.2237 43.116 8.28061C42.7616 8.33752 42.3987 8.25858 42.1004 8.05968Z" fill="#1B1B1B"/>
<g id="Group 14">
<path id="Vector_15" d="M29.9661 73.8731C29.9661 73.8731 23.0256 49.6645 45.4255 38.734C70.969 26.5256 65.2261 21.3017 68.1514 21.5045C70.5994 21.7918 80.1716 43.1404 67.0498 61.5354C53.7367 80.2238 30.6084 76.1589 29.9661 73.8731ZM46.5404 40.9419C27.8395 49.775 31.22 68.8575 32.1381 72.5365C61.7222 79.0514 79.3223 47.8247 68.1095 25.3536C66.2278 28.3288 60.9665 34.06 46.5507 40.9343L46.5404 40.9419Z" fill="#1B1B1B"/>
<path id="Vector_16" d="M31.9595 74.2411C30.6799 75.1888 29.3774 73.2622 30.6514 72.3154C30.6514 72.3154 54.6012 56.5362 62.5336 37.3819C63.0293 36.0943 65.3406 36.8847 64.6508 38.4489C56.3366 58.1611 31.9585 74.2355 31.9585 74.2355L31.9595 74.2411Z" fill="#1B1B1B"/>
</g>
</g>
</g>
</g>
</svg>
