<svg width="110" height="43" viewBox="0 0 110 43" fill="none" xmlns="http://www.w3.org/2000/svg">
<g id="Schews logo" clip-path="url(#clip0_701_3873)">
<g id="Vector">
<path d="M14.9444 0C7.97036 0 1.824 3.75784 0.327658 8.93275C-1.27475 14.4787 3.56089 18.0797 7.09339 20.7016C10.4649 23.2106 12.6204 25.0159 11.8646 27.1731C11.3343 28.703 9.65233 29.6056 7.36614 29.6056C5.69555 29.6056 4.4246 29.1237 3.79387 28.244C3.5819 27.9443 3.44602 27.5966 3.39814 27.2315C3.35025 26.8664 3.39183 26.4951 3.51922 26.15C3.78816 25.4233 4.3193 24.8263 5.00609 24.4785C5.11918 24.4156 5.20494 24.3123 5.24662 24.1888C5.2883 24.0654 5.28291 23.9307 5.23149 23.8111L4.65379 22.4514C4.61301 22.3573 4.546 22.2771 4.46091 22.2208C4.37583 22.1644 4.27634 22.1342 4.17458 22.134C4.11863 22.1344 4.06307 22.1435 4.00979 22.1607C2.46042 22.6828 0.583362 24.1133 0.136354 26.0084C-0.0364483 26.6944 -0.0497674 27.4115 0.0974376 28.1035C0.244643 28.7955 0.548382 29.4438 0.984912 29.9977C2.21797 31.5792 4.42271 32.4494 7.19189 32.4494C11.179 32.4494 14.2417 30.6096 15.382 27.525C17.0753 22.9544 13.1299 19.8869 9.64664 17.179C6.42667 14.6756 3.3961 12.31 4.18595 9.08192C5.12353 5.29157 9.30002 2.84372 14.7929 2.84372C16.7704 2.84372 18.2781 3.43465 19.0414 4.50941C19.6229 5.33173 19.7327 6.42179 19.3482 7.55584C18.511 10.0419 15.6983 12.0844 11.823 13.0291C11.6914 13.0626 11.578 13.1469 11.5072 13.2637C11.4364 13.3806 11.4138 13.5209 11.4441 13.6544L11.7927 15.2054C11.8185 15.3212 11.8827 15.4247 11.9746 15.4988C12.0666 15.5728 12.1808 15.613 12.2984 15.6127C12.3324 15.6165 12.3667 15.6165 12.4007 15.6127C17.5356 14.5705 21.6306 11.5298 22.8315 7.86947C23.4357 6.02975 23.2103 4.24932 22.2254 2.85902C21.2973 1.5433 19.2819 0 14.9444 0Z" fill="white"/>
<path d="M107.106 14.5515H104.903C104.799 14.5513 104.698 14.5825 104.612 14.6411C104.525 14.6997 104.459 14.7831 104.42 14.8804C103.753 16.6504 102.876 18.3321 101.808 19.889C101.729 19.9824 101.682 20.0999 101.676 20.2228C101.671 20.3458 101.706 20.4673 101.776 20.5679C101.89 20.7995 102.054 21.0024 102.256 21.1613C102.458 21.3202 102.692 21.4311 102.943 21.4858C103.025 21.5121 103.11 21.5269 103.196 21.5298C103.271 21.5333 103.344 21.5175 103.411 21.4841C103.477 21.4506 103.534 21.4005 103.575 21.3386C103.806 22.7729 105.017 24.9052 105.024 26.5632C105.024 28.0396 104.055 28.8887 102.363 28.8887C100.393 28.8887 99.5446 27.6112 99.1772 26.5422C99.152 26.4406 99.0936 26.3506 99.0115 26.2867C98.9293 26.2229 98.8282 26.1889 98.7245 26.1903C98.5954 26.1903 98.4693 26.2297 98.3627 26.3031L97.3229 27.1388C97.2378 27.2065 97.1759 27.2992 97.1457 27.4041C97.1154 27.5091 97.1184 27.6209 97.1543 27.724C98.2907 30.912 100.251 32.396 103.306 32.396C106.716 32.396 108.92 30.4454 108.92 27.4238C108.92 25.9991 108.502 24.4233 107.64 22.6046C105.568 18.2329 106.928 16.2115 107.489 15.4446C107.911 14.8709 107.371 14.563 107.11 14.563" fill="white"/>
<path d="M75.4222 8.09497C72.7364 8.09497 71.6851 10.8067 72.0867 11.9695C72.1421 12.1868 72.267 12.3795 72.442 12.5178C72.617 12.6561 72.8323 12.7323 73.0546 12.7344C73.2918 12.7321 73.5224 12.6549 73.714 12.5136C73.9055 12.3723 74.0485 12.174 74.1228 11.9465C74.2041 11.6573 74.3766 11.4027 74.6142 11.2215C74.8518 11.0403 75.1415 10.9423 75.4392 10.9425C75.7327 10.9439 76.0173 11.0445 76.2477 11.2282C76.478 11.4119 76.6408 11.6681 76.7102 11.9561C76.7662 12.1937 76.8986 12.406 77.0868 12.5596C77.2749 12.7132 77.5081 12.7996 77.75 12.8052C77.9922 12.8008 78.2257 12.7134 78.4123 12.5574C78.5988 12.4013 78.7273 12.186 78.7766 11.9465C79.0721 10.8239 78.2084 8.10071 75.4222 8.10071" fill="white"/>
<path d="M86.7998 8.29028C84.1158 8.29028 83.0627 11.002 83.4662 12.1648C83.5215 12.3818 83.6462 12.5743 83.8208 12.7125C83.9954 12.8508 84.2103 12.9271 84.4322 12.9297C84.6697 12.9278 84.9007 12.8508 85.0927 12.7095C85.2846 12.5681 85.4279 12.3696 85.5023 12.1418C85.5831 11.8526 85.7552 11.5978 85.9925 11.4163C86.2297 11.2347 86.5191 11.1363 86.8168 11.1359C87.1107 11.1371 87.3956 11.2378 87.6261 11.4219C87.8565 11.6061 88.0191 11.8629 88.0878 12.1514C88.1445 12.389 88.2773 12.6011 88.4657 12.7547C88.6541 12.9082 88.8875 12.9946 89.1295 13.0005C89.3729 12.9966 89.6077 12.9087 89.7948 12.7515C89.9819 12.5942 90.1101 12.3771 90.158 12.1361C90.4535 11.0135 89.5898 8.29028 86.8036 8.29028" fill="white"/>
<path d="M45.0791 0.464661H42.3573C42.2481 0.462975 42.1412 0.496072 42.0518 0.559244C41.9624 0.622417 41.8949 0.71245 41.8591 0.81654L34.1236 23.5223C32.1083 26.4081 28.572 28.877 25.5452 28.877C24.5142 28.8956 23.5079 28.5582 22.6927 27.9208C21.7456 27.1788 21.7002 25.0675 22.2987 23.2813C23.1984 20.6346 25.5774 18.1523 27.2518 18.1523C27.5046 18.1495 27.7535 18.2148 27.9729 18.3416C28.1923 18.4683 28.3743 18.6519 28.5 18.8733C28.8788 19.4891 28.6894 20.9042 27.3257 22.6024C27.1684 22.7612 26.9203 23.3215 27.7291 23.4573H28.8542C28.9558 23.4573 29.0552 23.4274 29.1402 23.3712C30.3278 22.5776 31.2237 21.499 31.576 20.407C32.1897 18.7165 31.684 16.391 29.86 15.6547C29.2213 15.398 28.5396 15.2681 27.8522 15.2723C22.0032 15.2723 15.2432 24.0176 19.1185 29.9575C20.1981 31.6117 22.0752 32.3231 24.1587 32.3231C26.962 32.3231 30.1365 31.038 32.2446 29.0319C32.2446 29.0319 31.6764 30.6937 31.487 31.2503C31.4584 31.3292 31.4493 31.4141 31.4604 31.4974C31.4715 31.5808 31.5026 31.6601 31.5509 31.7286C31.5992 31.7972 31.6632 31.8528 31.7376 31.8907C31.8119 31.9286 31.8943 31.9477 31.9776 31.9464H34.6899C34.7982 31.9461 34.9037 31.912 34.9919 31.8486C35.0802 31.7852 35.1467 31.6958 35.1824 31.5926C35.6957 30.0799 37.2451 25.538 37.2451 25.538C39.6601 21.2274 42.0485 18.7528 43.4198 18.7528C43.4897 18.7523 43.5595 18.7587 43.6282 18.7719C43.8384 18.8159 44.0619 19.076 43.7059 20.0628C43.0675 21.8432 41.7701 25.4003 41.1242 27.1807C40.2984 29.4545 40.6582 30.7014 41.1053 31.3459C41.408 31.6823 41.7787 31.9493 42.1924 32.1288C42.6061 32.3082 43.0531 32.396 43.5032 32.3862C45.9314 32.3862 48.818 30.1468 50.3939 28.4486C51.5304 31.256 53.7124 32.3919 56.1747 32.3919C59.5841 32.3919 63.5239 30.2233 66.0411 27.2916C66.3574 30.1296 68.5356 32.5583 71.659 32.5583H71.6931C74.3638 32.5449 77.7902 31.5008 80.6882 25.4366C81.4023 27.2017 83.3911 32.543 88.4446 32.543C88.7198 32.5425 88.9948 32.5272 89.2685 32.4971C94.9508 31.8775 95.0947 25.3448 94.7728 23.6791C97.6139 22.6254 100.36 19.6631 100.991 18.5998C101.705 17.4103 101.879 16.1137 101.449 14.8936C100.881 13.2719 99.1614 12.0575 97.3828 12.0575C97.29 12.0575 97.1934 12.0575 97.1044 12.0671C95.8789 12.157 94.2822 13.3369 93.1628 13.903C92.265 14.3581 91.3539 14.6029 89.6928 14.8286C89.617 14.8447 89.5455 14.877 89.4832 14.9235C89.4209 14.9699 89.3692 15.0293 89.3316 15.0977C89.2941 15.1661 89.2715 15.2419 89.2655 15.3198C89.2596 15.3978 89.2702 15.4761 89.2969 15.5496C90.1833 17.569 91.1721 19.5656 91.6399 24.0616C92.0187 27.6492 90.3008 29.2116 88.4199 29.2116C87.077 29.2116 85.647 28.4161 84.8211 26.9914C84.054 25.6623 83.2206 24.1228 82.6581 22.2295C82.7528 22.1664 84.5313 20.3649 85.1526 19.7434C86.9179 17.9611 84.8742 15.2206 82.6903 15.2206C81.8739 15.2206 80.245 15.1633 79.4286 15.1633C77.0818 15.1633 75.1915 17.9668 76.8072 19.5962C77.3963 20.1909 79.0347 22.023 79.0801 22.0612C78.9119 22.4895 78.7222 22.9088 78.5119 23.3177C77.9869 24.3941 77.3364 25.4033 76.5742 26.3239C75.7124 27.3471 74.9036 28.0547 74.0948 28.4907C73.5056 28.8259 72.8411 29.003 72.1647 29.0051C71.9349 29.0045 71.7055 28.984 71.4791 28.9439C70.6248 28.7794 70.1532 28.4161 69.8918 27.7295C69.6304 27.043 69.5831 26.0505 69.7403 24.7558C70.0206 22.7631 70.7006 20.5275 71.8787 17.7201L72.3693 16.5517C72.4222 16.4269 72.4249 16.2862 72.3768 16.1595C72.3287 16.0328 72.2336 15.9299 72.1117 15.8728L69.8918 14.8286C69.8222 14.7965 69.7467 14.7796 69.6702 14.7789C69.5726 14.7767 69.4764 14.8036 69.3939 14.8564C69.3113 14.9091 69.246 14.9853 69.2062 15.0753C68.3406 17.1158 66.9332 21.1949 66.2173 23.4209C65.2456 26.4349 60.8702 28.9133 57.5953 28.9133C55.9569 28.9133 54.5951 28.2937 54.0723 26.8097C58.8871 25.8535 62.7719 23.3062 63.5996 20.407C64.3402 17.8081 63.1943 16.2954 62.1317 15.779C61.3777 15.4105 60.5506 15.2202 59.7129 15.2225C55.7088 15.2225 51.6952 19.3915 50.5833 23.1035C50.3497 23.8185 50.1836 24.5542 50.0871 25.3008C48.4525 27.5307 46.0962 28.8885 45.0431 28.8885C44.9601 28.8967 44.8764 28.8864 44.7979 28.8583C44.7193 28.8302 44.6478 28.785 44.5885 28.7259C44.4824 28.5997 44.5165 28.2937 44.6472 27.9323L47.5698 19.8352C48.5907 16.6224 47.28 15.3124 45.3575 15.3105C43.5297 15.3105 41.1507 16.4943 39.6998 18.355L45.5602 1.15886C45.5859 1.08074 45.5932 0.997618 45.5814 0.916148C45.5697 0.834679 45.5392 0.757116 45.4925 0.68966C45.4457 0.622203 45.384 0.566724 45.3122 0.527656C45.2404 0.488588 45.1606 0.467015 45.0791 0.464661ZM93.337 17.5939C93.2632 17.3912 93.159 17.1043 93.0813 16.8997C95.6232 15.7179 95.4717 15.3698 96.5513 14.7444C96.8237 14.586 97.1329 14.5035 97.4472 14.5054C98.6481 14.5054 99.7997 15.6528 98.8413 17.1388C98.4757 17.7125 96.5475 19.7893 94.2765 20.7723C94.2058 20.4638 94.1288 20.1565 94.0454 19.8505C95.455 19.1085 96.7446 18.1541 97.8696 17.0202C98.328 16.5268 97.9378 15.5668 97.2446 15.5668C97.0197 15.5752 96.8039 15.6586 96.6309 15.8039C95.6373 16.5784 94.5245 17.1831 93.337 17.5939ZM54.0533 24.2394C54.1237 23.9159 54.2122 23.5966 54.3185 23.2833C54.9587 20.9731 57.5177 18.1007 59.1276 18.1007C59.6485 18.1007 60.0747 18.4028 60.2944 19.1257C60.4232 20.7264 58.5575 23.2832 54.0533 24.2394Z" fill="white"/>
<path d="M60.9105 38.5576H59.3214C59.3311 38.3443 59.4216 38.143 59.5743 37.9952C59.727 37.8475 59.93 37.7647 60.1415 37.7639C60.6037 37.7639 60.884 38.0546 60.9105 38.5576ZM57.8799 39.007C57.8799 40.4164 58.8043 41.2636 60.2798 41.2636C60.7625 41.2869 61.2433 41.187 61.6776 40.9729C61.8168 40.9065 61.9356 40.8033 62.0216 40.6744C62.1076 40.5456 62.1576 40.3956 62.1663 40.2405C62.1663 39.5979 61.3802 39.5711 61.3708 39.5883C61.2136 39.8962 60.8556 40.1181 60.3423 40.1181C59.829 40.1181 59.4691 39.879 59.346 39.464C59.329 39.425 59.3176 39.3838 59.3119 39.3416H62.0697C62.3311 39.3416 62.4012 39.1925 62.4106 38.9362V38.8559C62.4106 37.5956 61.4939 36.6796 60.1756 36.6796C59.8695 36.6686 59.5645 36.7214 59.2797 36.8349C58.9948 36.9483 58.7361 37.1199 58.5199 37.3389C58.3038 37.5579 58.1347 37.8196 58.0232 38.1076C57.9118 38.3956 57.8604 38.7038 57.8724 39.0127M55.804 36.6796C55.5282 36.6684 55.2549 36.7372 55.0166 36.8778C54.7783 37.0185 54.5849 37.2251 54.4592 37.4732V36.2206C54.4592 35.1898 53.908 34.9336 53.4288 34.9336C53.0879 34.9336 52.7829 35.0675 52.7829 35.1248V40.3609C52.7829 40.9863 53.0973 41.1794 53.5406 41.1794H53.7148C54.1429 41.1794 54.4573 40.9767 54.4573 40.3609V38.7565C54.4573 38.307 54.6922 38.0508 55.1108 38.0508C55.4517 38.0508 55.6525 38.2975 55.6525 38.7201V40.3609C55.6525 40.9863 55.9669 41.1794 56.4215 41.1794H56.5957C57.0238 41.1794 57.3288 40.9691 57.3288 40.3609V38.4658C57.3288 37.523 56.9196 36.6758 55.8021 36.6758M47.0798 38.2879C47.0798 40.0339 48.2674 41.2598 50.0213 41.2598C50.8339 41.2598 51.3926 41.0398 51.7601 40.7472C51.9056 40.639 52.0261 40.5002 52.1134 40.3404C52.2007 40.1806 52.2527 40.0036 52.2658 39.8217C52.2658 39.0739 51.2714 38.9056 51.2449 38.9592C51.1502 39.1745 50.9921 39.3551 50.7922 39.4766C50.5923 39.598 50.3601 39.6544 50.1274 39.6381C49.419 39.6381 48.8792 39.1083 48.8792 38.2803C48.8792 37.4522 49.4114 36.932 50.1274 36.932C50.3523 36.9211 50.5756 36.9759 50.7704 37.0899C50.9653 37.2038 51.1235 37.3721 51.226 37.5746C51.2525 37.6281 52.2393 37.4522 52.2393 36.7102C52.2287 36.5311 52.1785 36.3567 52.0923 36.1998C52.006 36.0429 51.8861 35.9076 51.7412 35.8037C51.3832 35.5207 50.8244 35.3103 50.0365 35.3103C48.2825 35.3103 47.0854 36.5534 47.0854 38.2879M41.638 40.9423C41.9524 41.1335 42.4506 41.233 43.14 41.233C44.4659 41.233 45.1648 40.6956 45.1648 39.7777C45.1648 38.7392 44.1344 38.5442 43.5851 38.4218C43.14 38.3147 42.8427 38.2803 42.8427 38.0776C42.8427 37.8748 43.0321 37.7869 43.3503 37.7869C43.8244 37.8121 44.2736 38.009 44.6155 38.3415C44.741 38.2807 44.8483 38.1874 44.9264 38.0712C45.0046 37.955 45.0509 37.8199 45.0606 37.6798C45.0637 37.5362 45.0241 37.395 44.947 37.2744C44.7292 36.8919 44.1534 36.6853 43.2272 36.6853C42.013 36.6853 41.316 37.2591 41.316 38.1311C41.316 39.1963 42.3009 39.3818 42.8427 39.4965C43.2613 39.5941 43.5321 39.6457 43.5321 39.858C43.5321 40.0339 43.3427 40.1315 43.0093 40.1315C42.498 40.1331 42.0026 39.9515 41.6115 39.6189C41.5774 39.5845 41.2099 39.858 41.2099 40.2366C41.2068 40.3833 41.2454 40.5278 41.3213 40.653C41.3972 40.7781 41.5071 40.8785 41.638 40.9423ZM38.687 42.237C38.0941 42.237 37.8062 42.0783 37.8062 41.8239C37.8062 41.5696 38.1377 41.3554 38.6624 41.3114C38.7931 41.3477 38.8972 41.3649 39.0014 41.4013C39.3329 41.4893 39.5431 41.5925 39.5431 41.7971C39.5431 42.0611 39.2723 42.237 38.687 42.237ZM38.6965 38.9859C38.5672 38.989 38.4399 38.9531 38.3308 38.8828C38.2218 38.8126 38.1359 38.7112 38.0842 38.5915C38.0324 38.4718 38.0171 38.3393 38.0402 38.2108C38.0633 38.0823 38.1238 37.9636 38.2139 37.8699C38.304 37.7763 38.4197 37.7118 38.5462 37.6847C38.6728 37.6576 38.8044 37.6692 38.9244 37.7179C39.0444 37.7666 39.1473 37.8503 39.2201 37.9583C39.2928 38.0663 39.3321 38.1937 39.3329 38.3243C39.3382 38.4109 39.3255 38.4978 39.2957 38.5792C39.2658 38.6606 39.2195 38.7349 39.1596 38.7972C39.0997 38.8595 39.0275 38.9084 38.9478 38.9409C38.868 38.9734 38.7824 38.9888 38.6965 38.9859ZM38.6529 43.0019C40.189 43.0019 41.0622 42.4282 41.0622 41.5734C41.0622 40.8084 40.4334 40.4623 39.831 40.2959C39.3954 40.1716 39.0734 40.1372 38.9503 40.0129C38.8442 39.9689 38.7741 39.9249 38.7609 39.8733C38.8234 39.8733 38.884 39.8637 38.9503 39.8637C40.1114 39.8102 40.8273 39.2288 40.8273 38.3338C40.8212 37.9746 40.6773 37.6318 40.4258 37.3776L41.1834 36.672C41.227 36.6452 40.9751 35.9663 40.3993 35.9663C40.0754 35.9663 39.831 36.1154 39.6416 36.5132L39.4939 36.8307C39.2386 36.7381 38.9696 36.6902 38.6984 36.6892C37.4691 36.6892 36.5959 37.3853 36.5959 38.3472C36.5959 39.0605 37.0486 39.5807 37.8441 39.7834C37.741 39.828 37.6525 39.9013 37.5891 39.9948C37.5258 40.0882 37.49 40.198 37.4861 40.3112C37.4788 40.457 37.5284 40.5998 37.6244 40.709C36.8478 40.8046 36.2985 41.212 36.2985 41.8277C36.2985 42.6118 37.0069 43.0096 38.6567 43.0096M34.7113 38.9802C34.7187 39.1079 34.7004 39.2357 34.6572 39.356C34.6141 39.4762 34.5472 39.5863 34.4605 39.6796C34.3738 39.7728 34.2692 39.8473 34.1531 39.8983C34.0369 39.9494 33.9117 39.976 33.7851 39.9766C33.2358 39.9766 32.8513 39.5711 32.8513 38.9726C32.8513 38.374 33.2301 37.9762 33.7851 37.9762C34.34 37.9762 34.7113 38.3912 34.7113 38.9802ZM31.4288 38.9802C31.4288 40.382 32.3455 41.2751 33.768 41.2751C35.1905 41.2751 36.1337 40.3667 36.1337 38.9802C36.1337 37.5937 35.2075 36.6853 33.7945 36.6853C32.3815 36.6853 31.4288 37.6014 31.4288 38.9687M27.9285 39.6476H27.3432V36.9359H27.9455C28.7486 36.9359 29.2714 37.412 29.2714 38.2745C29.2714 39.137 28.7392 39.6495 27.9361 39.6495M25.6139 40.1774C25.6139 40.3061 25.6393 40.4336 25.6886 40.5524C25.7379 40.6712 25.8102 40.7788 25.9012 40.8691C25.9922 40.9594 26.1 41.0304 26.2185 41.0781C26.337 41.1258 26.4637 41.1492 26.5913 41.1469H27.9796C29.8302 41.1469 30.9988 40.0282 30.9988 38.2784C30.9988 36.5285 29.8624 35.448 28.0137 35.448H26.5212C25.9965 35.448 25.6139 35.7923 25.6139 36.4348V40.1774ZM21.6761 39.1906C21.6799 39.2952 21.6617 39.3995 21.6227 39.4965C21.5837 39.5935 21.5247 39.681 21.4497 39.7533C21.3747 39.8256 21.2853 39.881 21.1876 39.9159C21.0898 39.9507 20.9858 39.9642 20.8824 39.9555C20.3843 39.9555 20.0433 39.5597 20.0433 38.9764C20.0433 38.3931 20.3843 37.9991 20.9071 37.9991C21.0682 37.9943 21.2271 38.0377 21.3639 38.1238C21.5008 38.2099 21.6093 38.3348 21.6761 38.483V39.1906ZM20.4184 41.2712C20.6852 41.2771 20.948 41.2043 21.1744 41.0616C21.4008 40.9189 21.5811 40.7126 21.6931 40.468C21.7031 40.5542 21.7177 40.6397 21.7367 40.7243C21.8333 41.0762 22.0947 41.1909 22.4451 41.1909H22.6099C23.0474 41.1909 23.3523 40.9806 23.3523 40.3724V36.2206C23.3523 35.1898 22.8031 34.9336 22.3219 34.9336C21.981 34.9336 21.6761 35.0675 21.6761 35.1248V37.2744C21.5299 37.0818 21.3405 36.9271 21.1235 36.823C20.9064 36.719 20.668 36.6685 20.4278 36.6758C19.2327 36.6758 18.4542 37.5574 18.4542 38.9592C18.4542 40.317 19.2402 41.254 20.4184 41.254M16.6302 38.9592C16.6396 39.0884 16.6224 39.2182 16.5798 39.3404C16.5372 39.4626 16.47 39.5747 16.3826 39.6694C16.2951 39.7642 16.1891 39.8398 16.0714 39.8913C15.9536 39.9428 15.8266 39.9693 15.6983 39.9689C15.1528 39.9689 14.774 39.5616 14.774 38.963C14.774 38.3644 15.1528 37.9666 15.7077 37.9666C16.2627 37.9666 16.634 38.3816 16.634 38.9706M13.3515 38.9706C13.3515 40.3724 14.2682 41.2655 15.6907 41.2655C17.1132 41.2655 18.0564 40.3571 18.0564 38.9706C18.0564 37.5842 17.1302 36.6758 15.7172 36.6758C14.3042 36.6758 13.3515 37.5918 13.3515 38.9592M11.5256 38.9592C11.5353 39.0886 11.5183 39.2187 11.4756 39.3412C11.433 39.4637 11.3657 39.5759 11.278 39.6708C11.1902 39.7657 11.0839 39.8411 10.9658 39.8925C10.8477 39.9438 10.7203 39.9698 10.5918 39.9689C10.0387 39.9689 9.65987 39.5616 9.65987 38.963C9.65987 38.3644 10.0387 37.9666 10.5937 37.9666C11.1486 37.9666 11.518 38.3816 11.518 38.9706M8.23551 38.9706C8.23551 40.3724 9.15226 41.2655 10.5766 41.2655C12.001 41.2655 12.9424 40.3571 12.9424 38.9706C12.9424 37.5842 12.0161 36.6758 10.6031 36.6758C9.19014 36.6758 8.23551 37.5918 8.23551 38.9592M7.082 37.8653H5.55535C5.00417 37.8653 4.73331 37.9724 4.73331 38.4734V38.5537C4.73331 39.0376 5.00417 39.1619 5.55535 39.1619H6.07813C6.07014 39.227 6.05554 39.291 6.03456 39.3531C5.90387 39.6878 5.52884 39.9096 5.03069 39.9096C4.25411 39.9096 3.70482 39.3091 3.70482 38.3663C3.70482 37.4235 4.32419 36.8154 5.11971 36.8154C5.35944 36.8134 5.59629 36.8681 5.81137 36.975C6.02645 37.082 6.21379 37.2382 6.35845 37.4312C6.41149 37.4847 7.24111 37.2724 7.24111 36.6203C7.23552 36.426 7.17823 36.2369 7.07525 36.0726C6.97226 35.9084 6.82739 35.7752 6.65583 35.6871C6.15321 35.4108 5.58534 35.2785 5.01364 35.3046C3.1631 35.3046 1.94141 36.5476 1.94141 38.2822C1.94141 39.9842 3.02294 41.2273 4.59315 41.2273C5.41519 41.2273 5.97395 40.9002 6.25238 40.4068L6.30542 40.5579C6.34652 40.7393 6.44947 40.9004 6.59627 41.013C6.74307 41.1255 6.92439 41.1824 7.10852 41.1737C7.43052 41.1737 7.70137 41.0513 7.70137 40.9978V38.6188C7.70137 38.1082 7.60667 37.8691 7.09905 37.8691" fill="white"/>
<path d="M64.6104 41.1929C65.1161 41.1929 65.3869 41.1049 65.5271 40.6383L66.0593 38.9458L66.6011 40.6383C66.7488 41.1126 66.9931 41.1929 67.5254 41.1929C67.8133 41.1929 68.2414 41.1317 68.3455 40.7435L69.482 37.1998C69.5161 37.1023 68.9668 36.7064 68.4781 36.7064C68.2993 36.698 68.1244 36.7605 67.9906 36.8806C67.8568 37.0006 67.7748 37.1687 67.7622 37.349L67.3947 39.3417L66.9155 37.5957C66.8265 37.2438 66.5045 37.0679 66.12 37.0679C65.7355 37.0679 65.3964 37.2438 65.2998 37.5957L64.7581 39.4297L64.3982 37.349C64.3795 37.1635 64.2899 36.9926 64.1484 36.8726C64.007 36.7527 63.8248 36.693 63.6406 36.7064C63.186 36.7064 62.5837 37.1023 62.6272 37.1998L63.7883 40.7435C63.919 41.126 64.33 41.1929 64.6179 41.1929" fill="white"/>
<path d="M98.2623 40.9461C98.5767 41.1374 99.0749 41.2368 99.7643 41.2368C101.09 41.2368 101.789 40.6994 101.789 39.7815C101.789 38.7431 100.759 38.548 100.209 38.4256C99.7643 38.3185 99.467 38.2841 99.467 38.0814C99.467 37.8787 99.6564 37.7907 99.9727 37.7907C100.447 37.8159 100.897 38.0128 101.24 38.3453C101.365 38.2842 101.472 38.1908 101.55 38.0747C101.628 37.9585 101.675 37.8236 101.685 37.6836C101.687 37.5401 101.648 37.3992 101.571 37.2782C101.353 36.8957 100.776 36.6892 99.8514 36.6892C98.6373 36.6892 97.9384 37.2629 97.9384 38.1349C97.9384 39.2001 98.9252 39.3856 99.467 39.5004C99.8856 39.5979 100.156 39.6495 100.156 39.8618C100.156 40.0377 99.967 40.1353 99.6336 40.1353C99.1222 40.1373 98.6268 39.9556 98.2358 39.6228C98.2017 39.5883 97.8342 39.8618 97.8342 40.2405C97.831 40.3871 97.8697 40.5317 97.9456 40.6568C98.0215 40.7819 98.1314 40.8823 98.2623 40.9461ZM92.7372 41.1928C93.2429 41.1928 93.5138 41.1049 93.6539 40.6382L94.1862 38.9458L94.726 40.6382C94.8756 41.1125 95.12 41.1928 95.6522 41.1928C95.9401 41.1928 96.3682 41.1316 96.4724 40.7434L97.6088 37.1998C97.6448 37.1022 97.0936 36.7064 96.605 36.7064C96.4263 36.6984 96.2516 36.7611 96.1179 36.881C95.9842 37.001 95.9021 37.1688 95.889 37.3489L95.5234 39.3416L95.0423 37.5956C94.9552 37.2437 94.6332 37.0678 94.2487 37.0678C93.8642 37.0678 93.5233 37.2437 93.4286 37.5956L92.8868 39.4296L92.5194 37.3489C92.5011 37.1632 92.4116 36.992 92.2701 36.872C92.1285 36.7519 91.9461 36.6925 91.7617 36.7064C91.3091 36.7064 90.7067 37.1022 90.7503 37.1998L91.9114 40.7434C92.0421 41.1259 92.4512 41.1928 92.741 41.1928M88.9945 38.5576H87.4072C87.4169 38.3443 87.5075 38.1429 87.6601 37.9952C87.8128 37.8475 88.0159 37.7647 88.2273 37.7639C88.6895 37.7639 88.9698 38.0546 88.985 38.5576M85.9544 39.007C85.9544 40.4164 86.8806 41.2636 88.3561 41.2636C88.8383 41.2872 89.3185 41.1872 89.7521 40.9729C89.8912 40.9064 90.0101 40.8033 90.0961 40.6744C90.1821 40.5455 90.2321 40.3956 90.2408 40.2405C90.2408 39.5979 89.4566 39.5711 89.4471 39.5883C89.2899 39.8962 88.932 40.1181 88.4168 40.1181C87.9016 40.1181 87.5436 39.879 87.4223 39.4659C87.4059 39.426 87.3938 39.3843 87.3864 39.3416H90.1461C90.4075 39.3416 90.4775 39.1925 90.487 38.9362V38.8559C90.487 37.5956 89.5703 36.6796 88.252 36.6796C87.9463 36.6694 87.6418 36.7229 87.3575 36.8366C87.0732 36.9504 86.8152 37.1221 86.5995 37.341C86.3837 37.5599 86.215 37.8213 86.1037 38.1089C85.9924 38.3965 85.9409 38.7041 85.9525 39.0127M83.8842 36.6796C83.6084 36.6686 83.3353 36.7375 83.097 36.8781C82.8587 37.0187 82.6652 37.2252 82.5394 37.4732V36.2206C82.5394 35.1898 81.9901 34.9336 81.5109 34.9336C81.1699 34.9336 80.8631 35.0674 80.8631 35.1248V40.3609C80.8631 40.9863 81.1775 41.1794 81.6207 41.1794H81.7969C82.223 41.1794 82.5375 40.9767 82.5375 40.3609V38.7564C82.5375 38.307 82.7742 38.0508 83.1928 38.0508C83.5338 38.0508 83.7345 38.2975 83.7345 38.7201V40.3609C83.7345 40.9863 84.049 41.1794 84.4922 41.1794H84.6683C85.0945 41.1794 85.4013 40.9691 85.4013 40.3609V38.4658C85.4013 37.523 84.9903 36.6758 83.8728 36.6758M76.1998 38.9592C76.1998 40.3246 77.1241 41.254 78.4954 41.254C79.1584 41.254 79.6224 41.0781 79.9103 40.8314C80.0297 40.7484 80.1292 40.6396 80.2016 40.5129C80.2741 40.3862 80.3175 40.2448 80.3289 40.0989C80.3289 39.3856 79.4558 39.2976 79.4292 39.3588C79.3693 39.5345 79.2541 39.6857 79.1013 39.7892C78.9485 39.8928 78.7663 39.9431 78.5826 39.9326C78.0674 39.9326 77.7018 39.5271 77.7018 38.9553C77.7018 38.3835 78.0674 37.9991 78.5826 37.9991C78.7669 37.9853 78.9506 38.0343 79.1041 38.1383C79.2576 38.2423 79.3721 38.3953 79.4292 38.5729C79.4652 38.634 80.3289 38.5097 80.3289 37.8404C80.3208 37.6947 80.2805 37.5526 80.211 37.4245C80.1415 37.2965 80.0446 37.1857 79.9274 37.1003C79.6395 36.8536 79.1849 36.6681 78.4954 36.6681C77.1506 36.6681 76.1998 37.6243 76.1998 38.9515M71.4778 40.8295C71.8263 41.0762 72.4249 41.2521 73.3018 41.2521C74.9857 41.2521 75.8418 40.5809 75.8418 39.3397C75.8418 38.2898 74.9951 37.8308 73.8871 37.5937C73.3018 37.4618 72.8567 37.4254 72.8567 37.1003C72.8567 36.8096 73.1011 36.6586 73.6143 36.6586C74.1664 36.6796 74.6928 36.8986 75.0993 37.2763C75.1334 37.303 75.7187 36.8804 75.7187 36.387C75.7138 36.2375 75.669 36.0921 75.5889 35.9662C75.5089 35.8403 75.3967 35.7386 75.2641 35.6718C74.9156 35.4518 74.3739 35.3027 73.5973 35.3027C72.0517 35.3027 71.1956 35.9988 71.1956 37.1711C71.1956 38.3434 72.1426 38.722 73.0897 38.9247C73.6484 39.0395 74.0841 39.1007 74.0841 39.4545C74.0841 39.7451 73.8397 39.8943 73.3075 39.8943C72.6986 39.869 72.1154 39.6395 71.6502 39.2422C71.5877 39.1982 71.0819 39.6572 71.0819 40.0798C71.0823 40.2307 71.1212 40.379 71.1948 40.5103C71.2685 40.6416 71.3744 40.7515 71.5024 40.8295" fill="white"/>
<path d="M103.091 41.21H103.281C103.779 41.21 104.014 40.9805 104.014 40.4967V40.3513C104.014 39.8675 103.788 39.638 103.281 39.638H103.091C102.61 39.638 102.375 39.8675 102.375 40.3513V40.5024C102.375 40.9862 102.61 41.2157 103.091 41.2157M103.091 39.2421H103.267C103.493 39.2421 103.616 39.0662 103.703 38.7124L104.158 36.4175C104.322 35.775 103.957 35.3428 103.284 35.3428H103.067C102.428 35.3428 102.061 35.775 102.228 36.4175L102.673 38.7124C102.769 39.0662 102.883 39.2421 103.091 39.2421Z" fill="white"/>
<path d="M108.861 10.803C108.897 10.7982 108.931 10.7851 108.961 10.7648C108.991 10.7469 109.015 10.7211 109.031 10.6902C109.05 10.6516 109.059 10.6089 109.058 10.5659C109.061 10.5037 109.04 10.4427 108.999 10.3957C108.974 10.3715 108.944 10.3531 108.912 10.3418C108.879 10.3306 108.844 10.3268 108.81 10.3307H108.357V10.8126H108.736C108.776 10.8166 108.817 10.8166 108.857 10.8126M108.819 10.1853C108.93 10.179 109.038 10.2129 109.126 10.281C109.163 10.3141 109.192 10.3552 109.211 10.4012C109.23 10.4473 109.238 10.497 109.236 10.5468C109.238 10.6246 109.218 10.7014 109.179 10.7686C109.158 10.8021 109.13 10.8308 109.098 10.8532C109.065 10.8755 109.028 10.891 108.99 10.8987C109.024 10.9045 109.057 10.9175 109.086 10.9369C109.111 10.9541 109.131 10.9763 109.147 11.0019C109.162 11.0282 109.173 11.0565 109.179 11.0861C109.187 11.1182 109.193 11.1508 109.196 11.1836C109.196 11.2155 109.196 11.2499 109.196 11.2869C109.193 11.3206 109.193 11.3545 109.196 11.3882C109.2 11.4208 109.208 11.4529 109.219 11.4839C109.228 11.5136 109.242 11.5414 109.261 11.5661H109.058C109.044 11.5489 109.035 11.5285 109.031 11.5068C109.029 11.4794 109.029 11.4519 109.031 11.4246C109.031 11.394 109.031 11.3615 109.031 11.327C109.03 11.2923 109.025 11.2578 109.018 11.2238C109.014 11.1915 109.007 11.1596 108.999 11.1281C108.993 11.0992 108.98 11.0719 108.963 11.0478C108.946 11.0254 108.924 11.0071 108.899 10.9943C108.865 10.9794 108.828 10.9723 108.791 10.9732H108.346V11.5661H108.156V10.1758L108.819 10.1853Z" fill="white"/>
<path d="M108.674 12.073C108.944 12.073 109.207 11.9782 109.416 11.8047C109.625 11.6312 109.769 11.3898 109.822 11.1217C109.874 10.8535 109.833 10.5751 109.706 10.334C109.578 10.0928 109.372 9.90385 109.121 9.79922C108.871 9.69459 108.593 9.68079 108.334 9.76016C108.075 9.83954 107.851 10.0072 107.7 10.2345C107.55 10.4619 107.482 10.7349 107.509 11.007C107.535 11.2791 107.654 11.5335 107.846 11.7268C107.954 11.8368 108.083 11.9241 108.225 11.9835C108.367 12.0429 108.52 12.0733 108.674 12.073V12.2394C108.411 12.2394 108.155 12.1608 107.937 12.0137C107.719 11.8667 107.549 11.6576 107.449 11.413C107.348 11.1684 107.322 10.8992 107.373 10.6395C107.424 10.3798 107.551 10.1413 107.736 9.9541C107.921 9.76688 108.158 9.63939 108.415 9.58773C108.672 9.53608 108.939 9.56259 109.181 9.66391C109.423 9.76523 109.63 9.93681 109.776 10.157C109.922 10.3771 109.999 10.6359 109.999 10.9007C109.999 11.2557 109.86 11.5962 109.611 11.8473C109.362 12.0983 109.025 12.2394 108.674 12.2394V12.073Z" fill="white"/>
</g>
</g>
<defs>
<clipPath id="clip0_701_3873">
<rect width="110" height="43" fill="white"/>
</clipPath>
</defs>
</svg>
