<svg width="51" height="50" viewBox="0 0 51 50" fill="none" xmlns="http://www.w3.org/2000/svg">
<g id="icon-2" clip-path="url(#clip0_701_3835)">
<g id="Layer 2">
<g id="Layer 1">
<path id="Vector" d="M23.3378 9.53094C22.2281 9.39709 21.1048 9.62344 20.1338 10.1765C19.1629 10.7296 18.3959 11.5801 17.9463 12.6022C16.5318 16.1034 17.157 20.1575 16.6138 23.3516C16.0705 26.5457 15.5888 26.9449 14.9738 30.9171C14.6508 32.5075 14.5953 34.1406 14.8098 35.7492C14.9122 36.2822 15.1252 36.7878 15.435 37.2336C15.7554 37.6142 16.2036 37.8653 16.6958 37.94C17.0033 37.9674 17.3123 37.908 17.5877 37.7686C17.8632 37.6293 18.0939 37.4155 18.2538 37.1517C18.7702 36.6034 19.1927 35.9739 19.5043 35.2885C20.3653 33.7222 20.9906 32.2173 21.6978 30.6816C22.077 29.9424 22.5489 29.2544 23.1021 28.6341C23.3213 28.4078 23.5936 28.2397 23.8943 28.145C24.195 28.0502 24.5145 28.0319 24.8241 28.0915C25.4494 28.2451 25.7671 28.7979 25.9926 29.4941C26.1567 30.2911 26.1567 31.1131 25.9926 31.9101C25.7671 33.63 25.4494 35.4216 25.2956 36.906C25.2134 37.6546 25.2134 38.4098 25.2956 39.1583C25.3003 39.4673 25.3897 39.7691 25.5542 40.0308C25.7186 40.2925 25.9518 40.5042 26.2284 40.6427C26.4532 40.7664 26.7006 40.8437 26.9559 40.8701C27.2112 40.8965 27.4692 40.8714 27.7146 40.7963C28.2359 40.596 28.7155 40.301 29.1292 39.9261C30.2027 38.7089 31.0715 37.326 31.7019 35.8311C33.0344 32.9441 33.7519 30.4462 34.6027 28.6648C35.925 25.7779 38.7027 22.7373 39.6048 19.0723C39.8666 18.0433 39.778 16.9565 39.353 15.9833C38.928 15.0102 38.1907 14.206 37.2575 13.6976C36.1157 13.1358 34.8607 12.8417 33.5879 12.8377C32.1329 12.8041 30.6874 12.5944 29.2829 12.2132C27.3251 11.6706 26.1566 10.1657 24.2809 9.56165C24.0451 9.56165 23.6556 9.48999 23.3378 9.48999V9.53094ZM24.0451 10.4626C25.6031 10.9335 26.9356 12.5715 29.0472 13.1141C30.5465 13.5516 32.0979 13.7857 33.6597 13.8102C34.8031 13.8127 35.9299 14.0827 36.95 14.5985C37.7061 15.0353 38.3029 15.7019 38.6532 16.5011C39.0035 17.3003 39.0891 18.1904 38.8975 19.0416C38.1185 22.3893 35.4637 25.3479 33.9775 28.4703C32.4912 31.5928 32.7269 32.0535 31.0767 35.6366C30.4688 37.03 29.6494 38.3215 28.6474 39.4654C28.3716 39.766 28.0162 39.9825 27.6224 40.0899C27.3357 40.1758 27.0267 40.1464 26.7614 40.008C26.5256 39.9363 26.3719 39.619 26.2899 39.1481C26.2055 38.4682 26.2055 37.7805 26.2899 37.1006C26.4436 35.5445 26.8331 33.671 27.0689 32.1149C27.2049 31.1826 27.1806 30.234 26.9971 29.3098C26.9145 28.8479 26.712 28.4157 26.4098 28.0565C26.1076 27.6972 25.7164 27.4233 25.2751 27.2623C24.8216 27.1374 24.3428 27.1361 23.8885 27.2585C23.4343 27.3809 23.0212 27.6226 22.6921 27.9585C22.0094 28.6043 21.4532 29.3715 21.0521 30.221C20.2731 31.7873 19.6376 33.4151 18.8585 34.7459C18.5582 35.3328 18.1901 35.8825 17.7618 36.3839C17.3723 36.773 17.1365 36.9265 16.9008 36.8549C16.6079 36.8 16.3372 36.6613 16.1218 36.4556C15.8573 36.1505 15.6928 35.7717 15.6503 35.3704C15.4385 33.8642 15.494 32.3324 15.8143 30.8454C16.4395 26.9449 16.9008 26.6378 17.4543 23.2799C18.0078 19.922 17.4543 15.9601 18.7048 12.7558C19.0897 11.9081 19.7391 11.2077 20.5558 10.7592C21.3724 10.3108 22.3125 10.1385 23.2353 10.268C23.5531 10.3397 23.7888 10.3397 24.0246 10.4216L24.0451 10.4626Z" fill="white"/>
<path id="Vector_2" d="M26.2269 16.6255C26.1359 16.5871 26.0377 16.5687 25.939 16.5716C25.8402 16.5745 25.7433 16.5986 25.6548 16.6424C25.5662 16.6861 25.4882 16.7484 25.4259 16.825C25.3637 16.9016 25.3187 16.9907 25.2941 17.0862C25.2574 17.1786 25.2407 17.2777 25.245 17.377C25.2493 17.4763 25.2745 17.5736 25.319 17.6625C25.3635 17.7513 25.4263 17.8299 25.5032 17.8929C25.5802 17.9559 25.6696 18.0019 25.7656 18.0281C26.1551 18.0997 26.6266 17.9462 26.6984 17.5572C26.7288 17.4651 26.7407 17.3679 26.7335 17.2712C26.7262 17.1745 26.7 17.0802 26.6562 16.9936C26.6124 16.9071 26.5519 16.83 26.4782 16.7669C26.4046 16.7037 26.3191 16.6557 26.2269 16.6255Z" fill="white"/>
<path id="Vector_3" d="M30.6153 17.9464C30.5231 17.9155 30.4257 17.903 30.3286 17.9097C30.2316 17.9164 30.1368 17.9421 30.0497 17.9853C29.9626 18.0286 29.8849 18.0886 29.821 18.1618C29.7572 18.235 29.7083 18.3201 29.6774 18.4122C29.6464 18.5043 29.6339 18.6016 29.6406 18.6985C29.6473 18.7954 29.673 18.8901 29.7163 18.9771C29.7596 19.0641 29.8197 19.1417 29.893 19.2055C29.9663 19.2693 30.0516 19.3181 30.1438 19.349C30.2356 19.3856 30.3341 19.4022 30.4329 19.3979C30.5316 19.3935 30.6283 19.3682 30.7165 19.3237C30.8047 19.2791 30.8824 19.2164 30.9445 19.1395C31.0066 19.0627 31.0516 18.9736 31.0765 18.878C31.115 18.7872 31.1334 18.6891 31.1305 18.5905C31.1276 18.4919 31.1035 18.3951 31.0597 18.3067C31.0159 18.2182 30.9535 18.1403 30.8768 18.0781C30.8001 18.0159 30.7109 17.971 30.6153 17.9464Z" fill="white"/>
<path id="Vector_4" d="M30.2142 23.1676C30.5319 22.8605 30.4499 22.4714 30.0604 22.3895C29.99 22.364 29.913 22.3633 29.8422 22.3875C29.7713 22.4117 29.7109 22.4594 29.6709 22.5226C29.2418 22.8571 28.7371 23.0815 28.201 23.1761C27.6649 23.2707 27.1138 23.2326 26.5959 23.0652C26.086 22.9186 25.6197 22.6498 25.2374 22.2823C24.8552 21.9148 24.5685 21.4596 24.4024 20.9563C24.3204 20.8027 24.2486 20.6492 24.0846 20.6492C23.9206 20.6492 23.3876 20.8027 23.5414 21.1918C23.734 21.8521 24.0951 22.4512 24.5892 22.9304C25.0833 23.4095 25.6935 23.7523 26.3601 23.9252C27.0051 24.1412 27.6944 24.1896 28.3633 24.0661C29.0322 23.9425 29.6585 23.6509 30.1834 23.2188L30.2142 23.1676Z" fill="white"/>
<path id="Vector_5" d="M5.27518 36.1894L4.87543 35.4113L6.28994 34.6333C6.79312 34.9036 7.20103 35.3217 7.45845 35.8311C7.60641 36.0693 7.70383 36.3353 7.74467 36.6126C7.7855 36.8899 7.76889 37.1727 7.69586 37.4433C7.62283 37.714 7.49493 37.9668 7.3201 38.186C7.14526 38.4053 6.92721 38.5864 6.67945 38.7181C6.44274 38.8625 6.17828 38.9556 5.90322 38.9913C5.62816 39.027 5.34865 39.0046 5.08284 38.9254C4.81703 38.8463 4.57086 38.7122 4.3603 38.5318C4.14975 38.3515 3.97952 38.1289 3.86067 37.8786C3.70509 37.6095 3.61068 37.3095 3.58411 36.9999C3.55754 36.6903 3.59946 36.3786 3.70692 36.087L4.48592 36.3225C4.42162 36.4988 4.39567 36.6868 4.40981 36.8739C4.42395 37.061 4.47785 37.243 4.56792 37.4077C4.64205 37.5593 4.74768 37.6934 4.87776 37.801C5.00785 37.9087 5.15941 37.9874 5.32234 38.0319C5.48528 38.0765 5.65585 38.0859 5.82269 38.0594C5.98953 38.033 6.14882 37.9713 6.28994 37.8786C6.58561 37.7177 6.80737 37.4487 6.90867 37.128C7.00997 36.8073 6.98291 36.4599 6.8332 36.1587C6.72186 35.9427 6.56014 35.7566 6.36169 35.6161L5.27518 36.1587V36.1894Z" fill="white"/>
<path id="Vector_6" d="M5.66593 31.4293L4.87668 32.5247V32.6066L5.11243 33.3847L6.20919 33.0673L6.44494 33.8556L2.6114 35.0227L2.06815 33.3847C1.97339 33.1915 1.92059 32.9806 1.91322 32.7656C1.90585 32.5507 1.94407 32.3366 2.02538 32.1374C2.10669 31.9383 2.22924 31.7586 2.385 31.61C2.54076 31.4615 2.7262 31.3476 2.92916 31.2757C3.18896 31.2003 3.46438 31.1967 3.72609 31.2652C3.98781 31.3337 4.22603 31.4718 4.41542 31.6647L5.34818 30.4158L5.66593 31.4395V31.4293ZM2.84716 33.2311L3.08291 33.9272L4.41542 33.5382L4.17967 32.8421C4.16763 32.735 4.13224 32.6319 4.07599 32.5399C4.01974 32.448 3.944 32.3695 3.8541 32.31C3.7642 32.2505 3.66232 32.2113 3.55565 32.1954C3.44897 32.1794 3.34008 32.187 3.23666 32.2176C2.84716 32.3711 2.6934 32.6783 2.84716 33.2413V33.2311Z" fill="white"/>
<path id="Vector_7" d="M4.17917 27.068L4.87618 26.9861L5.27593 30.0266L1.27839 30.4976L0.970886 27.5389L1.67814 27.457L1.9139 29.5659L2.76465 29.484L2.53915 27.6106L3.31816 27.457L3.55391 29.3305L4.48667 29.1769L4.17917 27.068Z" fill="white"/>
<path id="Vector_8" d="M4.17917 23.7203L4.09717 25.5937L4.95818 25.9827L4.87617 26.9246L0.970886 24.959L1.05289 24.0274L5.07093 22.5225V23.4029L4.20992 23.7203H4.17917ZM3.47191 23.9455L1.9139 24.4983L3.40016 25.1945L3.47191 23.9455Z" fill="white"/>
<path id="Vector_9" d="M2.22249 20.9051L1.98674 22.154L1.27948 22.0005L1.98674 18.6426L2.69399 18.8064L2.45824 20.0554L5.58452 20.7515L5.34877 21.6831L2.22249 20.9051Z" fill="white"/>
<path id="Vector_10" d="M3.94268 15.3769L4.87544 15.8376L5.6647 14.2098L6.3617 14.5169L5.5827 16.1549L6.91521 16.7794L6.5257 17.6394L2.92792 15.9195L4.17843 13.186L4.87544 13.5034L3.94268 15.3769Z" fill="white"/>
<path id="Vector_11" d="M6.20887 13.5851C5.98719 13.4164 5.80116 13.2055 5.66148 12.9646C5.5218 12.7238 5.43124 12.4577 5.39503 12.1817C5.35882 11.9057 5.37768 11.6253 5.45051 11.3566C5.52333 11.0879 5.6487 10.8363 5.81936 10.6162C5.9782 10.3964 6.17883 10.21 6.40979 10.0676C6.64076 9.92525 6.89754 9.82971 7.16547 9.78646C7.43341 9.7432 7.70725 9.75308 7.97136 9.81553C8.23547 9.87797 8.48468 9.99177 8.70477 10.1504C8.92485 10.309 9.11149 10.5094 9.25403 10.7401C9.39658 10.9708 9.49224 11.2273 9.53554 11.4949C9.57885 11.7625 9.56896 12.036 9.50644 12.2998C9.44391 12.5635 9.32998 12.8125 9.17114 13.0323C9.02072 13.2733 8.82174 13.4804 8.58684 13.6405C8.35194 13.8006 8.08626 13.9101 7.8067 13.9621C7.52714 14.0141 7.2398 14.0074 6.96296 13.9425C6.68612 13.8776 6.42582 13.7559 6.19862 13.5851H6.20887ZM8.25889 10.7698C8.12522 10.6663 7.97236 10.5902 7.80911 10.546C7.64587 10.5018 7.47548 10.4903 7.30777 10.5122C7.14006 10.5341 6.97835 10.5889 6.83196 10.6735C6.68557 10.7582 6.55741 10.8709 6.45487 11.0052C6.3543 11.1424 6.28259 11.2985 6.24406 11.4641C6.20552 11.6297 6.20097 11.8014 6.23066 11.9688C6.26035 12.1362 6.32368 12.2959 6.41682 12.4382C6.50997 12.5805 6.631 12.7025 6.77262 12.7968C7.04521 12.9914 7.38117 13.0762 7.7136 13.0345C8.04602 12.9928 8.3505 12.8275 8.56639 12.5716C8.66498 12.4332 8.73524 12.2768 8.77315 12.1112C8.81106 11.9457 8.81586 11.7743 8.78729 11.6069C8.75872 11.4395 8.69734 11.2794 8.60666 11.1357C8.51598 10.9921 8.3978 10.8677 8.25889 10.7698Z" fill="white"/>
<path id="Vector_12" d="M12.6264 9.13181L11.2939 8.82468L10.6686 9.36727L11.4476 10.1453L10.7506 10.8517L8.01385 7.96473L9.26437 6.79766C9.39785 6.62845 9.5666 6.4903 9.75891 6.39277C9.95122 6.29525 10.1625 6.2407 10.378 6.23291C10.5936 6.22511 10.8082 6.26427 11.0071 6.34765C11.2059 6.43103 11.3843 6.55664 11.5296 6.71576C11.7132 6.90905 11.834 7.15329 11.8761 7.41639C11.9182 7.6795 11.8796 7.94916 11.7654 8.18996L13.3234 8.50732L12.6264 9.12157V9.13181ZM9.80762 7.34024L9.26437 7.89307L10.1971 8.90658L10.7506 8.35376C11.1401 7.96473 11.2119 7.57571 10.9044 7.26858C10.8329 7.19133 10.745 7.13101 10.6472 7.09202C10.5493 7.05304 10.444 7.03637 10.3389 7.04324C10.2338 7.05011 10.1315 7.08034 10.0396 7.13172C9.94771 7.18311 9.86844 7.25435 9.80762 7.34024Z" fill="white"/>
<path id="Vector_13" d="M13.1701 3.75712L14.8101 2.89716C15.049 2.74769 15.3161 2.64901 15.5949 2.60731C15.8737 2.5656 16.1581 2.58176 16.4303 2.65478C16.7025 2.7278 16.9567 2.8561 17.1771 3.03168C17.3974 3.20726 17.5792 3.42633 17.7109 3.67522C17.8388 3.92552 17.9137 4.19945 17.931 4.47992C17.9483 4.7604 17.9076 5.04144 17.8114 5.30553C17.7153 5.56962 17.5657 5.81112 17.3721 6.01499C17.1785 6.21885 16.9449 6.38073 16.6859 6.49053L15.0356 7.26858L13.1701 3.75712ZM16.2451 5.80462C16.3994 5.73446 16.5378 5.63396 16.6523 5.50914C16.7667 5.38432 16.8548 5.23774 16.9113 5.07815C16.9677 4.91855 16.9914 4.74923 16.9808 4.5803C16.9703 4.41137 16.9258 4.2463 16.8499 4.09495C16.7802 3.9392 16.6767 3.80093 16.5467 3.69022C16.4168 3.57951 16.2637 3.49916 16.0987 3.45503C15.9337 3.41089 15.761 3.40408 15.593 3.43508C15.4251 3.46609 15.2662 3.53414 15.1279 3.63427L14.3489 4.02329L15.5174 6.14246L16.2246 5.75343L16.2451 5.80462Z" fill="white"/>
<path id="Vector_14" d="M18.3343 3.4497C18.2548 3.17791 18.2327 2.89262 18.2693 2.61185C18.3058 2.33108 18.4003 2.06094 18.5467 1.81849C18.6932 1.57604 18.8883 1.36656 19.1199 1.20328C19.3515 1.04 19.6145 0.926463 19.8923 0.869852C20.159 0.775524 20.4424 0.737371 20.7246 0.757795C21.0069 0.778219 21.2818 0.856778 21.5321 0.988525C21.7825 1.12027 22.0028 1.30236 22.1792 1.52331C22.3557 1.74427 22.4844 1.99931 22.5573 2.27239C22.6366 2.5449 22.6584 2.8309 22.6212 3.11225C22.584 3.39361 22.4886 3.66416 22.3412 3.90675C22.1937 4.14933 21.9973 4.35865 21.7646 4.52141C21.5318 4.68418 21.2677 4.79684 20.989 4.85224C20.7226 4.93592 20.4421 4.96596 20.1639 4.94061C19.8857 4.91527 19.6154 4.83505 19.3684 4.7046C19.1215 4.57415 18.903 4.39606 18.7254 4.18066C18.5479 3.96525 18.415 3.7168 18.3343 3.4497ZM21.6143 2.50785C21.5733 2.34631 21.4996 2.19488 21.3977 2.06293C21.2958 1.93097 21.1679 1.8213 21.0218 1.7407C20.8758 1.66009 20.7148 1.61027 20.5487 1.59431C20.3826 1.57835 20.215 1.59659 20.0563 1.6479C19.8908 1.68435 19.7351 1.75568 19.5995 1.85711C19.464 1.95855 19.3516 2.08775 19.2701 2.23606C19.1886 2.38437 19.1397 2.54837 19.1268 2.71707C19.1139 2.88577 19.1373 3.05528 19.1953 3.21424C19.297 3.52523 19.5158 3.78448 19.8056 3.93711C20.0953 4.08973 20.4331 4.12373 20.7475 4.03192C21.0619 3.94012 21.3282 3.7297 21.49 3.44523C21.6518 3.16076 21.6963 2.82458 21.6143 2.50785Z" fill="white"/>
<path id="Vector_15" d="M26.1535 1.88365L27.0145 1.81198L27.0863 3.44999C26.6594 3.81618 26.1295 4.04148 25.5693 4.09495C25.2912 4.13655 25.0074 4.12056 24.7358 4.04796C24.4641 3.97536 24.2103 3.84771 23.9901 3.67295C23.77 3.49819 23.5882 3.28006 23.456 3.03211C23.3239 2.78417 23.2442 2.51173 23.222 2.23172C23.2023 1.95103 23.2407 1.66929 23.3349 1.40409C23.429 1.13889 23.5769 0.895923 23.7693 0.690346C23.9616 0.48477 24.1943 0.321 24.4529 0.209259C24.7115 0.0975179 24.9903 0.0402039 25.272 0.0408942C25.5821 0.000612618 25.8973 0.0292827 26.195 0.124853C26.4927 0.220423 26.7655 0.380531 26.994 0.59372L26.4508 1.21821C26.3343 1.05895 26.179 0.932089 25.9996 0.849666C25.8202 0.767243 25.6227 0.732 25.4258 0.747283C25.254 0.745932 25.0836 0.778564 24.9245 0.843298C24.7653 0.908032 24.6206 1.00359 24.4987 1.12445C24.3767 1.24532 24.2799 1.38911 24.2138 1.54752C24.1478 1.70593 24.1138 1.87584 24.1138 2.04745C24.1179 2.225 24.1608 2.39951 24.2395 2.55875C24.3183 2.71799 24.4309 2.85811 24.5696 2.96929C24.7083 3.08048 24.8696 3.16004 25.0423 3.2024C25.215 3.24476 25.3948 3.2489 25.5693 3.21452C25.8199 3.207 26.0626 3.12502 26.2663 2.97906L26.1945 1.88365H26.1535Z" fill="white"/>
<path id="Vector_16" d="M27.5607 3.52191L27.9502 2.89743C28.3022 3.20265 28.7379 3.39524 29.2007 3.45025C29.7543 3.52191 29.99 3.36835 29.99 3.13289C30.0618 2.35484 27.7145 2.66196 27.8785 1.18776C27.9502 0.481374 28.5755 0.000210516 29.6723 0.0923481C30.1444 0.155037 30.5982 0.315431 31.0048 0.563274L30.6973 1.18776C30.3808 0.940541 29.9919 0.803872 29.5902 0.798736C29.047 0.716836 28.8112 0.952299 28.8112 1.18776C28.7395 1.88391 31.0765 1.64845 30.9228 3.13289C30.851 3.75738 30.2155 4.29997 29.129 4.15664C28.5557 4.10899 28.0096 3.89155 27.5607 3.53215V3.52191Z" fill="white"/>
<path id="Vector_17" d="M31.2406 3.83881C31.2537 3.77099 31.2806 3.7066 31.3198 3.64967C31.359 3.59274 31.4095 3.54451 31.4682 3.50799C31.5269 3.47147 31.5925 3.44745 31.6609 3.43743C31.7294 3.42742 31.7991 3.43162 31.8658 3.44979C31.9341 3.46007 31.9993 3.48489 32.0572 3.52256C32.115 3.56023 32.164 3.60987 32.201 3.66812C32.2379 3.72637 32.2619 3.79186 32.2712 3.86017C32.2806 3.92848 32.2752 3.998 32.2553 4.06404C32.2623 4.14199 32.2493 4.22044 32.2175 4.29198C32.1857 4.36351 32.1362 4.42578 32.0736 4.4729C32.0111 4.52003 31.9375 4.55045 31.8599 4.56131C31.7823 4.57217 31.7032 4.5631 31.6301 4.53496C31.4928 4.48419 31.3782 4.3862 31.3068 4.2586C31.2354 4.131 31.212 3.98216 31.2406 3.83881Z" fill="white"/>
<path id="Vector_18" d="M26.5956 49.9998C23.095 49.9998 19.6355 49.2473 16.452 47.7935C13.2684 46.3397 10.4354 44.2186 8.14539 41.5743C8.06247 41.4861 8.01805 41.3686 8.0219 41.2476C8.02574 41.1267 8.07754 41.0122 8.16589 40.9294C8.25424 40.8466 8.37191 40.8022 8.49301 40.806C8.61412 40.8099 8.72873 40.8616 8.81164 40.9499C11.1451 43.6557 14.0664 45.7935 17.3528 47.2004C20.6392 48.6073 24.2038 49.2461 27.7749 49.0681C31.346 48.8901 34.8293 47.8999 37.959 46.1731C41.0888 44.4464 43.7825 42.0286 45.8346 39.1042C47.8867 36.1797 49.2431 32.8259 49.8003 29.2984C50.3576 25.7709 50.1009 22.1628 49.05 18.7494C47.9991 15.336 46.1816 12.2074 43.7361 9.60205C41.2907 6.99674 38.2819 4.98356 34.9392 3.71604C34.884 3.69454 34.8335 3.66239 34.7908 3.62143C34.748 3.58047 34.7138 3.53149 34.69 3.4773C34.6662 3.42311 34.6533 3.36477 34.6521 3.3056C34.6509 3.24644 34.6614 3.18762 34.6829 3.1325C34.7044 3.07737 34.7366 3.02702 34.7776 2.98432C34.8186 2.94162 34.8677 2.9074 34.9219 2.88364C34.9762 2.85987 35.0346 2.84701 35.0938 2.8458C35.1531 2.84458 35.212 2.85504 35.2672 2.87657C40.5697 4.923 44.9902 8.75468 47.7652 13.7098C50.5402 18.665 51.4955 24.4325 50.4661 30.0163C49.4367 35.6001 46.4872 40.6495 42.1271 44.2925C37.7669 47.9354 32.2699 49.9432 26.5853 49.9691L26.5956 49.9998Z" fill="white"/>
</g>
</g>
</g>
<defs>
<clipPath id="clip0_701_3835">
<rect width="50" height="50" fill="white" transform="translate(0.970886)"/>
</clipPath>
</defs>
</svg>
