<svg width="51" height="50" viewBox="0 0 51 50" fill="none" xmlns="http://www.w3.org/2000/svg">
<g id="icon-1" clip-path="url(#clip0_701_3814)">
<g id="Layer 2">
<g id="Layer 1">
<path id="Vector" d="M0.240084 21.7441L4.2902 22.286L4.13362 23.2162L0.876829 22.8278L0.793321 23.6047L0 23.4514L0.240084 21.7441Z" fill="white"/>
<path id="Vector_2" d="M2.30618 21.2023C2.05 21.1737 1.80276 21.0928 1.58038 20.965C1.358 20.8372 1.16541 20.6652 1.01498 20.4601C0.864548 20.255 0.759619 20.0214 0.706939 19.7742C0.65426 19.527 0.654996 19.2717 0.709101 19.0248C0.782049 18.7887 0.905474 18.5706 1.07117 18.3848C1.23687 18.199 1.44104 18.05 1.67012 17.9475C1.89919 17.845 2.14793 17.7914 2.39978 17.7903C2.65163 17.7892 2.90083 17.8406 3.13082 17.9412C3.38609 17.9711 3.63217 18.0529 3.85332 18.1812C4.07448 18.3096 4.26584 18.4818 4.41518 18.6867C4.56452 18.8917 4.66854 19.1249 4.72059 19.3715C4.77264 19.618 4.77157 19.8725 4.71746 20.1186C4.48782 21.0489 3.61099 21.509 2.26443 21.2023H2.30618ZM3.016 18.7999C2.13917 18.5648 1.66944 18.7999 1.58593 19.1884C1.50242 19.5768 1.74251 20.0369 2.62977 20.272C3.51704 20.5071 3.97633 20.272 4.05984 19.8835C4.14335 19.4951 3.90326 19.0248 3.016 18.7999Z" fill="white"/>
<path id="Vector_3" d="M3.41477 17.3177C3.16986 17.2447 2.943 17.123 2.74841 16.9601C2.55382 16.7972 2.39571 16.5967 2.28398 16.3711C2.17224 16.1455 2.10931 15.8998 2.09913 15.6493C2.08894 15.3988 2.13172 15.1489 2.22479 14.9154C2.34161 14.6929 2.50452 14.4967 2.70311 14.3394C2.90171 14.182 3.13162 14.067 3.37818 14.0016C3.62473 13.9362 3.88251 13.9218 4.13504 13.9595C4.38758 13.9971 4.62932 14.0859 4.84483 14.2202C5.08885 14.2945 5.31471 14.417 5.50846 14.5802C5.7022 14.7434 5.85971 14.9438 5.97124 15.1689C6.08277 15.3941 6.14596 15.6393 6.1569 15.8893C6.16783 16.1393 6.12628 16.3889 6.03482 16.6226C5.63816 17.5529 4.68826 17.8698 3.41477 17.3177ZM4.53168 15.0687C3.65485 14.6802 3.17468 14.8336 3.01811 15.222C2.86153 15.6105 3.01811 16.0808 3.89494 16.4692C4.77176 16.8577 5.22062 16.7044 5.39807 16.3568C5.57552 16.0092 5.325 15.4981 4.53168 15.1096V15.0687Z" fill="white"/>
<path id="Vector_4" d="M4.36348 13.1264C4.23966 13.0539 4.13254 12.957 4.04888 12.8419C3.96522 12.7268 3.90684 12.5959 3.87741 12.4576C3.84798 12.3193 3.84816 12.1765 3.87792 12.0382C3.90768 11.9 3.96639 11.7692 4.05033 11.6543C4.13669 11.5448 4.24486 11.4536 4.36828 11.3862C4.49171 11.3188 4.62782 11.2767 4.76836 11.2624C4.9089 11.248 5.05095 11.2618 5.1859 11.3028C5.32086 11.3438 5.4459 11.4112 5.55346 11.501C5.69586 11.5621 5.82252 11.6536 5.9242 11.7688C6.02587 11.8839 6.09999 12.0199 6.14114 12.1667C6.1823 12.3135 6.18944 12.4675 6.16206 12.6174C6.13467 12.7673 6.07345 12.9093 5.98286 13.033C5.89228 13.1567 5.77461 13.2591 5.63846 13.3326C5.50231 13.4061 5.35111 13.4489 5.19591 13.4578C5.04072 13.4668 4.88544 13.4417 4.74142 13.3843C4.5974 13.327 4.46827 13.2389 4.36348 13.1264ZM5.21943 12.0428C4.90628 11.8077 4.58269 11.8077 4.42611 12.0428C4.26953 12.2779 4.3426 12.4313 4.73926 12.6664C5.13592 12.9015 5.37601 12.9015 5.53258 12.6664C5.68916 12.4313 5.53258 12.2779 5.21943 12.0428ZM5.53258 9.79376L5.92924 9.25195L7.59939 13.75L7.22361 14.3123L5.55346 9.81421L5.53258 9.79376ZM7.52632 12.0428C7.40662 11.9771 7.30231 11.8876 7.22014 11.78C7.13796 11.6723 7.07975 11.549 7.04925 11.418C7.01876 11.287 7.01666 11.1512 7.0431 11.0193C7.06954 10.8875 7.12392 10.7625 7.20273 10.6525C7.28835 10.5407 7.39648 10.4472 7.52042 10.378C7.64437 10.3087 7.7815 10.265 7.92335 10.2497C8.0652 10.2344 8.20875 10.2477 8.34514 10.2888C8.48153 10.33 8.60785 10.3981 8.71631 10.4889C8.84165 10.5614 8.95015 10.6587 9.03481 10.7746C9.11948 10.8906 9.17845 11.0226 9.20794 11.1622C9.23743 11.3018 9.23679 11.4459 9.20605 11.5852C9.17531 11.7245 9.11516 11.856 9.02946 11.9712C8.93709 12.075 8.82429 12.1593 8.69782 12.2193C8.57135 12.2793 8.43381 12.3137 8.29345 12.3204C8.15308 12.3271 8.01279 12.3059 7.88097 12.2582C7.74915 12.2105 7.62853 12.1373 7.52632 12.0428ZM8.39271 10.9592C8.07956 10.724 7.75597 10.724 7.59939 10.9592C7.44282 11.1943 7.52632 11.4192 7.83948 11.6543C8.15263 11.8895 8.47622 11.8895 8.6328 11.6543C8.78938 11.4192 8.71631 11.1943 8.39271 10.9592Z" fill="white"/>
<path id="Vector_5" d="M8.57025 6.61446L10.0838 5.44906C10.2945 5.26392 10.5414 5.12268 10.8096 5.03392C11.0777 4.94515 11.3615 4.91072 11.6437 4.93271C11.9259 4.95471 12.2005 5.03266 12.451 5.16185C12.7014 5.29103 12.9224 5.46875 13.1005 5.68418C13.2759 5.90261 13.401 6.15551 13.4675 6.42561C13.5339 6.69571 13.5401 6.97668 13.4856 7.24934C13.4311 7.522 13.3172 7.77994 13.1517 8.00558C12.9862 8.23121 12.7729 8.41923 12.5264 8.55681L11.1172 9.71199L8.57025 6.64513V6.61446ZM11.9836 8.08656C12.248 7.88592 12.4202 7.59065 12.4623 7.26569C12.5044 6.94073 12.4129 6.61271 12.208 6.35378C12.0032 6.09486 11.7017 5.92624 11.3699 5.88502C11.0381 5.8438 10.7031 5.93336 10.4387 6.13399L9.72892 6.6758L11.2321 8.61815L11.9419 8.07633L11.9836 8.08656Z" fill="white"/>
<path id="Vector_6" d="M17.2251 4.97858L17.5487 5.60218L14.772 7.00271L12.9453 3.50649L15.6384 2.10596L15.962 2.72955L14.0518 3.65983L14.4484 4.43677L16.1186 3.58827L16.4318 4.20164L14.772 5.06036L15.1687 5.90886L17.2251 4.97858Z" fill="white"/>
<path id="Vector_7" d="M16.9102 1.72804L17.787 1.41113L18.8204 4.4371L20.7202 3.8135L20.9603 4.51888L18.1836 5.44916L16.9102 1.72804Z" fill="white"/>
<path id="Vector_8" d="M20.6365 0.633812L21.5968 0.480469L22.3902 4.36516L21.4403 4.5185L20.6365 0.633812Z" fill="white"/>
<path id="Vector_9" d="M22.7891 2.18796C22.7705 1.9085 22.8108 1.62827 22.9073 1.36466C23.0039 1.10106 23.1547 0.859689 23.3505 0.655527C23.5462 0.451365 23.7827 0.288763 24.0453 0.177805C24.3078 0.0668467 24.5909 0.00989781 24.8768 0.0104901C25.1968 -0.0242425 25.5207 0.0139744 25.8231 0.122153C26.1255 0.230332 26.3982 0.405541 26.62 0.634085L26.0981 1.1759C25.7542 0.939904 25.3486 0.805119 24.929 0.787427C24.7597 0.789241 24.5926 0.825824 24.4386 0.894812C24.2846 0.9638 24.1471 1.06366 24.0349 1.18794C23.9228 1.31222 23.8385 1.45816 23.7875 1.61632C23.7366 1.77449 23.72 1.94137 23.739 2.10618C23.737 2.37961 23.8276 2.64599 23.9965 2.86367C24.1655 3.08135 24.4034 3.23807 24.6729 3.30932C24.9425 3.38058 25.2285 3.36235 25.4864 3.25749C25.7443 3.15264 25.9594 2.96706 26.0981 2.72977L26.7349 3.27158C26.5468 3.53452 26.2944 3.74713 26.0009 3.88999C25.7073 4.03285 25.3819 4.10141 25.0543 4.08941C24.775 4.13846 24.4882 4.12731 24.2138 4.05672C23.9394 3.98614 23.684 3.85783 23.4654 3.68073C23.2468 3.50363 23.0703 3.28198 22.9481 3.03124C22.8259 2.7805 22.7609 2.50668 22.7578 2.22885L22.7891 2.18796Z" fill="white"/>
<path id="Vector_10" d="M27.5448 0.0922852L28.4947 0.174068L28.265 4.13032L27.3047 4.04853L27.5448 0.0922852Z" fill="white"/>
<path id="Vector_11" d="M29.2295 2.10643C29.2888 1.8326 29.4049 1.57361 29.5705 1.3455C29.7361 1.11739 29.9478 0.925018 30.1925 0.780302C30.4371 0.635586 30.7095 0.541608 30.9928 0.50419C31.276 0.466773 31.5641 0.486712 31.8391 0.562774C32.3845 0.676648 32.8614 0.998036 33.1648 1.45624C33.4682 1.91444 33.5734 2.47192 33.4571 3.00604C33.3408 3.54016 33.0127 4.00717 32.5448 4.30433C32.0769 4.60148 31.5077 4.70445 30.9623 4.59058C30.6766 4.5498 30.4027 4.45143 30.1578 4.3017C29.913 4.15198 29.7025 3.95414 29.5396 3.72068C29.3768 3.48723 29.2651 3.22324 29.2118 2.94539C29.1584 2.66754 29.1644 2.38187 29.2295 2.10643ZM32.6429 2.8118C32.686 2.6538 32.6952 2.48877 32.6701 2.32709C32.6449 2.16542 32.5859 2.01059 32.4966 1.87233C32.4074 1.73408 32.29 1.6154 32.1517 1.52374C32.0134 1.43207 31.8572 1.36942 31.693 1.33971C31.5197 1.29463 31.3387 1.28589 31.1617 1.31406C30.9848 1.34223 30.8159 1.40667 30.6661 1.50317C30.5164 1.59967 30.3891 1.72606 30.2926 1.87405C30.1961 2.02205 30.1327 2.18832 30.1064 2.362C30.0616 2.52004 30.0512 2.68551 30.0756 2.84776C30.1001 3.01001 30.1589 3.16545 30.2484 3.30409C30.3378 3.44273 30.4559 3.56151 30.5951 3.65279C30.7342 3.74406 30.8913 3.80582 31.0563 3.83409C31.2297 3.88446 31.4122 3.89713 31.5912 3.87122C31.7701 3.84531 31.9411 3.78144 32.0922 3.68409C32.2433 3.58673 32.3709 3.45822 32.466 3.30756C32.5611 3.15689 32.6215 2.9877 32.6429 2.8118Z" fill="white"/>
<path id="Vector_12" d="M34.3016 3.58852L35.168 1.54395L36.0448 1.93241L35.168 3.87476C34.8549 4.56991 35.0114 4.95838 35.5647 5.19351C36.1179 5.42863 36.525 5.27529 36.8382 4.56991L37.715 2.52534L38.6231 2.96492L37.6732 5.00949C37.6001 5.24855 37.472 5.46803 37.2988 5.65115C37.1257 5.83426 36.9121 5.97614 36.6743 6.06592C36.4365 6.15571 36.1809 6.19102 35.9271 6.16916C35.6732 6.14729 35.4279 6.06883 35.2098 5.93977C34.9766 5.86886 34.7633 5.74621 34.5865 5.58138C34.4097 5.41655 34.2741 5.21398 34.1902 4.98944C34.1064 4.76489 34.0766 4.52443 34.1032 4.28677C34.1297 4.04911 34.2119 3.82065 34.3434 3.61919L34.3016 3.58852Z" fill="white"/>
<path id="Vector_13" d="M37.5781 6.5327L38.2044 6.14423C38.4011 6.57062 38.7023 6.94285 39.0812 7.22786C39.5614 7.54476 39.8014 7.54476 39.958 7.30964C40.3547 6.68604 38.1313 5.83755 39.0081 4.59036C39.4048 4.04855 40.1981 3.8952 41.0958 4.5188C41.4976 4.79911 41.8236 5.17103 42.0457 5.60242L41.409 5.99089C41.2635 5.64006 41.0214 5.3357 40.7096 5.11172C40.2294 4.80504 39.9163 4.88682 39.8328 5.04016C39.4361 5.66376 41.6595 6.51226 40.7827 7.75944C40.386 8.30126 39.5927 8.4546 38.6428 7.831C38.157 7.51896 37.7844 7.06456 37.5781 6.5327Z" fill="white"/>
<path id="Vector_14" d="M40.6477 8.55687C40.7485 8.45327 40.8837 8.38817 41.029 8.37319C41.1744 8.35821 41.3204 8.39432 41.441 8.47508C41.5025 8.51794 41.5539 8.5731 41.5919 8.63689C41.6299 8.70069 41.6537 8.77166 41.6616 8.84512C41.6695 8.91858 41.6613 8.99284 41.6377 9.06299C41.6141 9.13314 41.5755 9.19757 41.5245 9.25202C41.4247 9.3579 41.2884 9.42381 41.1419 9.43703C40.9954 9.45024 40.8491 9.40982 40.7312 9.32358C40.4911 9.17024 40.4911 8.86355 40.6477 8.55687Z" fill="white"/>
<path id="Vector_15" d="M43.0265 21.9795C42.8897 21.5208 42.6128 21.1142 42.2332 20.8141C42.0035 20.6607 41.92 20.5789 41.6799 20.4256C41.4855 20.2911 41.2706 20.1876 41.0432 20.1189C40.6014 19.9625 40.1351 19.8829 39.6653 19.8838C39.2279 19.9685 38.801 20.0987 38.3918 20.2723C38.1644 20.3409 37.9494 20.4444 37.7551 20.5789C37.6166 20.7083 37.4581 20.8153 37.2853 20.8959C36.9851 21.0797 36.6669 21.2338 36.3354 21.3559C36.0081 21.5333 35.6566 21.6641 35.2916 21.7444C34.9538 21.8609 34.6036 21.9398 34.2477 21.9795L33.1308 22.1328L33.6945 23.38C34.5355 25.3348 35.0704 27.4026 35.2812 29.5137C35.3797 30.4829 35.2694 31.4615 34.9576 32.3863C34.8268 32.7863 34.6003 33.1498 34.2971 33.4468C33.9939 33.7437 33.6227 33.9655 33.2143 34.0936C32.7839 34.2517 32.3275 34.3314 31.8678 34.3287C31.4317 34.3327 30.999 34.2529 30.5943 34.0936C29.7041 33.7013 28.9575 33.0522 28.4544 32.233C27.5006 30.8618 26.7945 29.3403 26.3667 27.7349L26.8365 27.4998L28.9033 25.5575C29.1729 25.2782 29.3384 24.918 29.373 24.5352C29.3847 24.3517 29.3599 24.1677 29.2999 23.9934C29.1447 23.5413 28.8443 23.1507 28.4435 22.8798C28.0427 22.6089 27.5631 22.4724 27.0765 22.4906H24.2164C23.7482 22.493 23.2904 22.626 22.8966 22.8741C22.5029 23.1221 22.1894 23.4749 21.993 23.8912C21.9249 24.0636 21.8963 24.2485 21.9095 24.433C21.9028 24.811 22.0448 25.177 22.3062 25.4553L24.2164 27.4998C24.2895 27.5816 24.4565 27.6634 24.5296 27.7349C24.3524 28.2164 24.1396 28.6845 23.8928 29.1355C23.4029 30.0437 22.8187 30.9002 22.1496 31.6912C21.4952 32.4598 20.7115 33.1133 19.8323 33.6233C19.0278 34.0363 18.1131 34.1969 17.2122 34.0833C16.825 34.0445 16.4566 33.9005 16.1486 33.6674C15.8405 33.4344 15.6052 33.1217 15.469 32.7646C15.1732 31.8875 15.1192 30.9494 15.3124 30.0453C15.6801 27.957 16.3185 25.9233 17.2122 23.9934L17.6193 22.9711L15.7091 22.1124L15.2289 23.0427C14.2551 24.9576 13.5528 26.9937 13.1412 29.0946C12.9912 29.7665 12.9107 30.4515 12.9011 31.1392C12.875 31.9915 13.0388 32.8393 13.3813 33.6233C13.6665 34.3424 14.1645 34.9618 14.8114 35.4021C15.4194 35.8471 16.1427 36.1162 16.8991 36.179C17.2424 36.2472 17.5929 36.2747 17.9429 36.2608C18.296 36.2519 18.6466 36.2004 18.9868 36.1075C19.2788 36.0258 19.562 35.9162 19.8323 35.7803C20.1492 35.677 20.4457 35.5214 20.7091 35.3203C21.7757 34.6498 22.6949 33.7774 23.4126 32.7544C24.0957 31.7909 24.6796 30.7636 25.1559 29.6875C25.1559 29.616 25.2394 29.5342 25.2394 29.3808C25.3248 29.5793 25.3776 29.7898 25.396 30.0044C25.7873 31.1107 26.2908 32.1758 26.8991 33.1837C27.5714 34.298 28.567 35.1912 29.7592 35.7497C30.3987 36.0237 31.0883 36.1676 31.7863 36.1729C32.4843 36.1782 33.1761 36.0446 33.8198 35.7803C34.4913 35.5409 35.0907 35.1402 35.563 34.6149C36.0445 34.1352 36.4024 33.5499 36.6068 32.9077C37.0118 31.7382 37.1473 30.4953 37.0035 29.2684C37.0172 29.1082 36.9922 28.9471 36.9304 28.7981C38.4202 28.2601 39.7734 27.4126 40.897 26.314C41.4853 25.7775 42.0137 25.1812 42.4732 24.5352C42.827 24.2195 43.0707 23.8031 43.17 23.3446C43.2692 22.886 43.219 22.4086 43.0265 21.9795ZM41.5233 23.9218C41.1077 24.4661 40.6276 24.9602 40.0933 25.3939C39.1346 26.2264 38.0317 26.8842 36.8365 27.3363C36.7439 26.7825 36.6114 26.2359 36.4398 25.7006L38.11 24.7703C38.7979 24.3514 39.4353 23.8576 40.0098 23.2982C40.0506 23.2414 40.0726 23.1735 40.0726 23.104C40.0726 23.0345 40.0506 22.9666 40.0098 22.9098C39.9895 22.8758 39.9606 22.8477 39.9258 22.8281C39.891 22.8085 39.8516 22.7982 39.8114 22.7982C39.7713 22.7982 39.7319 22.8085 39.6971 22.8281C39.6623 22.8477 39.6333 22.8758 39.6131 22.9098C39.0393 23.3627 38.3988 23.7281 37.7133 23.9934C37.2243 24.2357 36.7186 24.4441 36.1997 24.617C36.0432 24.1467 35.8866 23.7685 35.73 23.2982C36.2738 23.0581 36.8035 22.7885 37.3166 22.4906C37.6797 22.2815 38.0284 22.0493 38.3605 21.7955C38.5344 21.6875 38.6924 21.5568 38.8302 21.407C38.9137 21.3252 39.0703 21.2537 39.1538 21.1719C39.6391 20.9446 40.193 20.9009 40.7091 21.0492C40.8562 21.0506 40.9975 21.1052 41.1058 21.2025C41.1789 21.2843 41.419 21.4377 41.5025 21.5092C41.7089 21.725 41.8467 21.995 41.8991 22.2862C41.9631 22.5705 41.9606 22.8652 41.892 23.1485C41.8233 23.4317 41.6901 23.6961 41.5025 23.9218H41.5233Z" fill="white"/>
<path id="Vector_16" d="M18.4982 19.4949C18.6151 19.5414 18.7456 19.543 18.8636 19.4994C18.9816 19.4559 19.0785 19.3703 19.135 19.2598L19.2185 19.1882C19.2736 18.9813 19.3814 18.7914 19.5316 18.6362C19.6151 18.4828 19.7717 18.4113 19.9283 18.2477C20.2519 18.0944 20.4815 17.941 20.8051 18.0228C20.9633 18.0132 21.1217 18.0354 21.2708 18.0882C21.4198 18.1409 21.5562 18.2231 21.6715 18.3295C21.8385 18.4113 21.9116 18.5646 22.0682 18.718C22.2247 18.8713 22.2352 19.0247 22.3917 19.2598V19.3416C22.4206 19.4104 22.4632 19.473 22.5169 19.5257C22.5707 19.5783 22.6346 19.62 22.7049 19.6482C22.945 19.73 23.1851 19.5767 23.2686 19.2598C23.3175 18.9171 23.289 18.5681 23.1851 18.2375C23.1031 17.9186 22.9376 17.6261 22.7049 17.389C22.4688 17.1218 22.1772 16.9069 21.8496 16.7589C21.522 16.6108 21.1659 16.5328 20.8051 16.5303C20.0906 16.5418 19.4075 16.8196 18.8949 17.3072C18.6653 17.563 18.4785 17.8528 18.3416 18.1659C18.2311 18.4953 18.2025 18.8458 18.2581 19.1882C18.2716 19.2539 18.3003 19.3156 18.3419 19.3688C18.3835 19.4219 18.437 19.4651 18.4982 19.4949Z" fill="white"/>
<path id="Vector_17" d="M28.5093 19.6482C28.6246 19.6942 28.7535 19.6955 28.8699 19.6519C28.9862 19.6082 29.0812 19.5228 29.1356 19.4131L29.2191 19.3415C29.2763 19.1384 29.3838 18.9523 29.5322 18.7997C29.6157 18.6362 29.7723 18.5646 29.9289 18.4113C30.2525 18.2477 30.4926 18.0943 30.8057 18.1761C30.9655 18.1663 31.1256 18.1884 31.2763 18.2412C31.4271 18.2939 31.5653 18.3761 31.6826 18.4828C31.8391 18.5646 31.9226 18.7179 32.0792 18.8713C32.2358 19.0246 32.2358 19.1882 32.3924 19.4131V19.4949C32.455 19.6347 32.5712 19.7448 32.716 19.8016C32.9456 19.8834 33.1857 19.73 33.2692 19.4131C33.3196 19.0705 33.291 18.7212 33.1857 18.3908C33.1102 18.0686 32.948 17.7721 32.716 17.5321C32.4773 17.2659 32.1835 17.0526 31.8542 16.9063C31.5248 16.76 31.1674 16.6841 30.8057 16.6836C30.0933 16.6903 29.4117 16.9691 28.9059 17.4605C28.6744 17.7131 28.4842 17.9993 28.3423 18.309C28.2356 18.6393 28.2106 18.9897 28.2692 19.3313C28.1857 19.4029 28.3423 19.5664 28.5093 19.638V19.6482Z" fill="white"/>
<path id="Vector_18" d="M26.0973 50.0003C19.7838 49.9889 13.7115 47.6238 9.11443 43.3856C4.51735 39.1474 1.74037 33.3541 1.34777 27.1829C1.34635 27.1208 1.35779 27.059 1.38142 27.0013C1.40505 26.9436 1.44036 26.8912 1.48524 26.8473C1.53011 26.8033 1.58362 26.7688 1.64252 26.7456C1.70142 26.7225 1.7645 26.7113 1.82794 26.7127C1.89179 26.7098 1.95555 26.7199 2.01516 26.7425C2.07476 26.7651 2.12889 26.7997 2.17409 26.8439C2.21928 26.8882 2.25454 26.9412 2.27762 26.9996C2.3007 27.0579 2.31109 27.1204 2.30811 27.1829C2.53671 30.8585 3.64974 34.4289 5.5563 37.6028C7.46287 40.7767 10.1089 43.4639 13.2783 45.445C16.4478 47.4262 20.0508 48.6451 23.793 49.0023C27.5353 49.3594 31.3108 48.8447 34.8112 47.5C38.3115 46.1554 41.4375 44.0191 43.9339 41.2654C46.4303 38.5117 48.2262 35.2189 49.1751 31.6557C50.124 28.0925 50.1989 24.3601 49.3937 20.7632C48.5885 17.1662 46.926 13.8068 44.542 10.9592C44.5003 10.9085 44.4694 10.8501 44.451 10.7874C44.4326 10.7248 44.4272 10.6592 44.435 10.5945C44.4427 10.5298 44.4636 10.4673 44.4963 10.4105C44.529 10.3538 44.573 10.304 44.6255 10.2641C44.6761 10.2214 44.7351 10.1892 44.7988 10.1696C44.8626 10.15 44.9297 10.1433 44.9962 10.15C45.0627 10.1567 45.127 10.1766 45.1853 10.2085C45.2437 10.2405 45.2947 10.2837 45.3353 10.3357C48.9698 14.6541 50.962 20.0737 50.9721 25.6699C50.9391 32.1181 48.3068 38.2925 43.6481 42.8493C38.9894 47.406 32.6815 49.9762 26.0973 50.0003Z" fill="white"/>
</g>
</g>
</g>
<defs>
<clipPath id="clip0_701_3814">
<rect width="50.9709" height="50" fill="white"/>
</clipPath>
</defs>
</svg>
