<svg width="52" height="50" viewBox="0 0 52 50" fill="none" xmlns="http://www.w3.org/2000/svg">
<g id="icon-3" clip-path="url(#clip0_701_3856)">
<g id="Layer 2">
<g id="Layer 1">
<path id="Vector" d="M1.20868 21.8142L5.22022 22.3562L5.06514 23.2869L1.83936 22.9085L1.75665 23.6858L0.970886 23.5221L1.20868 21.8142Z" fill="white"/>
<path id="Vector_2" d="M3.25544 21.2005C3.00234 21.1704 2.75834 21.0886 2.53888 20.9603C2.31943 20.832 2.12931 20.6599 1.98059 20.4551C1.83187 20.2503 1.72779 20.0172 1.67494 19.7705C1.62208 19.5239 1.62162 19.269 1.67357 19.0221C1.74582 18.786 1.86807 18.5677 2.03219 18.3819C2.19631 18.196 2.39854 18.0469 2.62543 17.9444C2.85233 17.8418 3.09869 17.7882 3.34814 17.7871C3.5976 17.786 3.84443 17.8375 4.07222 17.9381C4.32463 17.9667 4.56819 18.0473 4.78721 18.1746C5.00623 18.302 5.19587 18.4733 5.34391 18.6775C5.49195 18.8817 5.59511 19.1144 5.64675 19.3605C5.69839 19.6065 5.69737 19.8606 5.64375 20.1062C5.41629 21.0369 4.54782 21.5891 3.21408 21.2005H3.25544ZM3.95849 18.8687C3.09002 18.6335 2.62476 18.8687 2.54205 19.2574C2.45933 19.646 2.69713 20.1062 3.57595 20.3414C4.45477 20.5766 4.90968 20.3414 4.99239 19.9528C5.07511 19.5642 4.83731 19.104 3.95849 18.8687Z" fill="white"/>
<path id="Vector_3" d="M4.35027 17.3144C4.10858 17.2401 3.88487 17.1175 3.69297 16.9542C3.50107 16.791 3.34506 16.5905 3.23459 16.3653C3.12412 16.14 3.06154 15.8947 3.05071 15.6446C3.03988 15.3945 3.08103 15.1448 3.17162 14.911C3.2864 14.6876 3.44708 14.4904 3.64336 14.3319C3.83965 14.1735 4.06722 14.0573 4.31151 13.9909C4.5558 13.9245 4.81142 13.9092 5.062 13.9462C5.31259 13.9831 5.55262 14.0714 5.76672 14.2054C6.00966 14.2795 6.23454 14.4024 6.42734 14.5664C6.62014 14.7304 6.77672 14.9318 6.88731 15.1583C6.9979 15.3848 7.06013 15.6313 7.07012 15.8826C7.08011 16.134 7.03764 16.3846 6.94537 16.6189C6.55248 17.5496 5.61163 17.9382 4.35027 17.3144ZM5.45655 15.0644C4.58807 14.7474 4.07112 14.8292 3.95739 15.3406C3.84366 15.8519 3.95739 16.1894 4.82587 16.578C5.69434 16.9667 6.13892 16.7724 6.31469 16.3633C6.49045 15.9542 6.24231 15.4326 5.45655 15.044V15.0644Z" fill="white"/>
<path id="Vector_4" d="M5.29178 13.2032C5.16763 13.1307 5.06017 13.0333 4.97631 12.9173C4.89245 12.8013 4.83404 12.6693 4.80483 12.5296C4.77562 12.39 4.77626 12.2458 4.8067 12.1064C4.83715 11.9671 4.89673 11.8355 4.98161 11.7202C5.06715 11.6107 5.17429 11.5194 5.29654 11.452C5.41879 11.3846 5.5536 11.3425 5.6928 11.3281C5.83201 11.3138 5.97271 11.3275 6.10637 11.3686C6.24004 11.4096 6.3639 11.4771 6.47043 11.5668C6.59052 11.6324 6.69521 11.7224 6.77762 11.8309C6.86002 11.9394 6.91828 12.0639 6.94856 12.1962C6.97883 12.3286 6.98044 12.4658 6.95327 12.5988C6.92611 12.7318 6.87078 12.8576 6.79094 12.9679C6.71885 13.0933 6.61918 13.2009 6.49932 13.283C6.37946 13.365 6.24248 13.4194 6.09851 13.442C5.95455 13.4645 5.80729 13.4548 5.66764 13.4135C5.528 13.3721 5.39954 13.3003 5.29178 13.2032ZM6.13958 12.0373C5.82941 11.8021 5.5089 11.8021 5.35382 12.0373C5.19873 12.2725 5.2711 12.4259 5.66399 12.7327C6.05687 13.0395 6.29467 12.9679 6.44975 12.7327C6.60484 12.4975 6.44975 12.2623 6.13958 12.0373ZM6.44975 9.85893L6.84263 9.31689L8.49688 13.8168L8.12467 14.3179L6.47043 9.81802L6.44975 9.85893ZM8.42451 12.1089C8.30594 12.0432 8.20262 11.9536 8.12123 11.8459C8.03984 11.7383 7.98218 11.6149 7.95198 11.4838C7.92177 11.3528 7.9197 11.2169 7.94588 11.085C7.97207 10.9531 8.02593 10.828 8.104 10.718C8.1888 10.6061 8.29589 10.5127 8.41866 10.4434C8.54142 10.3741 8.67725 10.3304 8.81775 10.315C8.95825 10.2997 9.10044 10.313 9.23552 10.3542C9.37061 10.3954 9.49573 10.4635 9.60315 10.5544C9.72731 10.6268 9.83477 10.7242 9.91863 10.8402C10.0025 10.9562 10.0609 11.0883 10.0901 11.2279C10.1193 11.3676 10.1187 11.5117 10.0882 11.6511C10.0578 11.7905 9.99821 11.922 9.91332 12.0373C9.82184 12.1411 9.71011 12.2255 9.58485 12.2855C9.45958 12.3455 9.32335 12.3799 9.18432 12.3866C9.0453 12.3933 8.90634 12.3721 8.77577 12.3244C8.64521 12.2767 8.52573 12.2034 8.42451 12.1089ZM9.28264 10.943C8.97247 10.718 8.65196 10.718 8.49688 10.943C8.34179 11.168 8.42451 11.4134 8.81739 11.6487C9.21027 11.8839 9.43773 11.8839 9.60315 11.6487C9.63247 11.5126 9.61721 11.3709 9.55957 11.244C9.50194 11.1171 9.40494 11.0117 9.28264 10.943Z" fill="white"/>
<path id="Vector_5" d="M12.5282 4.26465L13.6345 8.46796L12.9211 9.00999L9.06464 6.98504L9.86074 6.36119L12.6109 7.84411L11.8252 4.8885L12.5282 4.26465Z" fill="white"/>
<path id="Vector_6" d="M17.564 5.20553L17.9569 5.81915L15.2067 7.30207L13.3146 3.80443L15.9097 2.40332L16.3026 3.02717L14.4209 4.03965L14.8138 4.8169L16.4577 3.95783L16.7782 4.58168L15.2067 5.43053L15.6719 6.20778L17.564 5.20553Z" fill="white"/>
<path id="Vector_7" d="M20.3163 2.87377L21.102 2.63855L21.5776 4.19306C21.2115 4.65837 20.7208 5.01271 20.1612 5.21576C19.8972 5.31351 19.6163 5.35847 19.3347 5.34804C19.053 5.3376 18.7763 5.27198 18.5205 5.15497C18.2647 5.03797 18.0349 4.8719 17.8444 4.66641C17.654 4.46091 17.5067 4.22007 17.411 3.95784C17.3191 3.69291 17.2831 3.41214 17.3054 3.13291C17.3277 2.85369 17.4077 2.58196 17.5405 2.33458C17.6733 2.0872 17.8561 1.86944 18.0774 1.69479C18.2988 1.52014 18.5541 1.39232 18.8274 1.31926C19.1181 1.21021 19.4298 1.16737 19.7395 1.19393C20.0491 1.22048 20.3488 1.31576 20.6161 1.47266L20.2232 2.17833C20.064 2.07045 19.8788 2.00607 19.6864 1.99171C19.4939 1.97734 19.3011 2.0135 19.1273 2.09651C18.9606 2.14427 18.8054 2.22473 18.6709 2.33309C18.5363 2.44145 18.4252 2.5755 18.3442 2.72725C18.2631 2.879 18.2138 3.04533 18.1991 3.21634C18.1845 3.38735 18.2047 3.55953 18.2588 3.72261C18.3106 3.88467 18.3956 4.03444 18.5084 4.16258C18.6213 4.29073 18.7597 4.39449 18.9149 4.46742C19.0701 4.54034 19.2388 4.58086 19.4105 4.58644C19.5823 4.59202 19.7533 4.56255 19.913 4.49987C20.1716 4.44932 20.4009 4.30299 20.5541 4.09079L20.3163 2.85332V2.87377Z" fill="white"/>
<path id="Vector_8" d="M25.0312 3.26239L23.1495 3.49761L22.9117 4.34646L21.9709 4.42827L23.2219 0.337458L24.1731 0.265869L26.4477 3.91692L25.5068 4.09078L25.0312 3.31353V3.26239ZM24.6384 2.56695L23.8526 1.16585L23.3873 2.72036L24.6384 2.56695Z" fill="white"/>
<path id="Vector_9" d="M30.6127 0.235222L30.3025 4.19309L29.5168 4.11127L27.7074 1.55451L27.5524 3.95786L26.6115 3.88627L26.9217 0L27.7074 0.0818163L29.5168 2.63858L29.6719 0.235222H30.6127Z" fill="white"/>
<path id="Vector_10" d="M31.0035 3.88662C31.0137 3.81734 31.0389 3.75108 31.0776 3.69247C31.1163 3.63385 31.1675 3.58431 31.2276 3.5473C31.2876 3.51028 31.3551 3.48669 31.4254 3.47818C31.4956 3.46966 31.5669 3.47643 31.6342 3.498C31.7756 3.52513 31.902 3.60253 31.9897 3.71559C32.0773 3.82864 32.12 3.96952 32.1098 4.11162C32.0698 4.24669 31.9868 4.3654 31.8732 4.45014C31.7596 4.53488 31.6214 4.58115 31.4791 4.58206C31.3278 4.54344 31.1959 4.45144 31.1083 4.32336C31.0207 4.19529 30.9835 4.03997 31.0035 3.88662Z" fill="white"/>
<path id="Vector_11" d="M26.8169 49.9998C20.5754 49.9946 14.5696 47.6415 10.0173 43.4178C5.46509 39.194 2.70723 33.4158 2.30304 27.2549C2.30162 27.1927 2.31296 27.1309 2.33636 27.0732C2.35976 27.0155 2.39474 26.9631 2.43919 26.9191C2.48364 26.8752 2.53663 26.8406 2.59497 26.8174C2.65331 26.7943 2.71579 26.7831 2.77863 26.7845C2.84187 26.7815 2.90503 26.7917 2.96406 26.8143C3.0231 26.8369 3.07671 26.8715 3.12148 26.9158C3.16624 26.96 3.20117 27.0131 3.22403 27.0715C3.24689 27.1299 3.25717 27.1923 3.25423 27.2549C3.49838 31.4352 4.87453 35.4736 7.23851 38.9471C9.60249 42.4206 12.8673 45.2013 16.6909 46.998C20.5146 48.7947 24.7563 49.5412 28.9718 49.1593C33.1872 48.7773 37.2213 47.2811 40.6514 44.8273C44.0814 42.3735 46.7813 39.0523 48.4681 35.2119C50.1548 31.3714 50.7665 27.1529 50.2389 22.9983C49.7113 18.8437 48.0639 14.9058 45.4693 11.5973C42.8747 8.28882 39.4283 5.73138 35.4913 4.19293C35.43 4.17273 35.3741 4.13928 35.3276 4.095C35.2811 4.05073 35.2451 3.99674 35.2223 3.93699C35.1995 3.87723 35.1905 3.81319 35.1959 3.74955C35.2013 3.68591 35.221 3.62426 35.2535 3.56908C35.2739 3.50849 35.3077 3.45317 35.3525 3.40715C35.3973 3.36112 35.4518 3.32554 35.5123 3.30301C35.5727 3.28048 35.6374 3.27156 35.7017 3.27689C35.7661 3.28223 35.8284 3.30169 35.8842 3.33386C41.2077 5.38388 45.6362 9.21513 48.3992 14.161C51.1622 19.107 52.0848 24.8545 51.0066 30.4038C49.9283 35.953 46.9175 40.9528 42.4978 44.5332C38.0781 48.1135 32.5294 50.0479 26.8169 49.9998Z" fill="white"/>
<path id="Vector_12" d="M29.9211 16.6906C29.908 15.2623 29.3327 13.8951 28.3174 12.8793C27.3021 11.8636 25.9266 11.2791 24.4828 11.2499C24.0071 11.261 23.5332 11.3124 23.0663 11.4033C22.443 10.5944 21.6028 9.97456 20.6413 9.61411C19.6798 9.25365 18.6354 9.16702 17.6266 9.36403C16.6179 9.56104 15.6851 10.0338 14.9343 10.7287C14.1834 11.4236 13.6445 12.3127 13.3787 13.2953C12.8727 13.3451 12.3817 13.4932 11.9336 13.731C11.4856 13.9689 11.0894 14.2917 10.7677 14.6812C10.446 15.0707 10.2051 15.5191 10.0588 16.0008C9.91247 16.4825 9.86365 16.988 9.91509 17.4884C10.001 17.9994 10.1612 18.4954 10.3907 18.9611C9.94173 19.5206 9.60923 20.1625 9.41238 20.8498C9.21553 21.537 9.15823 22.2561 9.24377 22.9654C9.32932 23.6747 9.55603 24.3602 9.91081 24.9824C10.2656 25.6046 10.7414 26.1511 11.3109 26.5904C12.2705 27.349 13.4633 27.7604 14.6917 27.7563C15.1827 28.435 15.8718 28.9488 16.6665 29.229C17.4548 30.5259 18.1127 31.896 18.6309 33.3198C19.191 35.2592 19.4044 37.2804 19.2616 39.2924C19.2483 39.4347 19.2884 39.5769 19.3742 39.6919C19.4599 39.8069 19.5854 39.8868 19.7268 39.9163C20.6221 40.1656 21.5469 40.2962 22.477 40.3049C23.6887 40.3442 24.8876 40.0504 25.9406 39.456C26.0435 39.3879 26.127 39.2947 26.1831 39.1855C26.2393 39.0763 26.2661 38.9546 26.2611 38.8322L25.465 33.0846C25.465 32.6244 25.5477 28.4313 27.905 26.9484C28.4392 26.6382 28.8981 26.2158 29.2491 25.7109C29.572 25.1897 29.7832 24.6083 29.8694 24.003C30.5928 23.7225 31.2152 23.235 31.6572 22.6029C32.0992 21.9708 32.3407 21.2227 32.3508 20.4542C32.4204 19.6499 32.2201 18.8454 31.7809 18.165C31.3417 17.4847 30.688 16.9665 29.9211 16.6906ZM24.338 33.0539L25.0411 38.4947C23.6672 39.0364 22.1574 39.1436 20.7194 38.8015C20.8209 36.8037 20.5546 34.8042 19.9336 32.9005C19.5394 31.6818 19.0125 30.509 18.3621 29.4029C18.8783 29.3216 19.3798 29.1666 19.8509 28.9426L20.7194 31.4994C20.8088 31.6644 20.9455 31.7996 21.1123 31.888H21.2673C21.4104 31.8749 21.5467 31.8217 21.6602 31.7346L22.5287 31.1108L22.7665 30.8858L23.7177 28.4927C24.4626 28.3214 25.1435 27.9456 25.6821 27.4086H25.7855C24.7979 29.1363 24.2846 31.0896 24.2967 33.0744L24.338 33.0539ZM31.1825 20.7815C31.0932 21.2633 30.8572 21.7066 30.5061 22.0521C30.155 22.3975 29.7056 22.6286 29.2181 22.7144L28.7425 22.878V23.42C28.7427 23.7637 28.6729 24.1039 28.5372 24.4202C28.4015 24.7366 28.2028 25.0226 27.9528 25.2613C27.7028 25.4999 27.4068 25.6863 27.0824 25.8092C26.758 25.9322 26.4118 25.9892 26.0646 25.9768C25.8792 25.9835 25.694 25.9593 25.5167 25.9052L25.1238 25.8234L24.886 26.1302C24.4494 26.6623 23.8227 27.0079 23.1356 27.0955C22.4485 27.1831 21.7536 27.0059 21.195 26.6007L20.616 26.2427L20.2231 26.8666C19.8775 27.4522 19.3117 27.8788 18.6492 28.0532C17.9866 28.2276 17.2813 28.1355 16.6872 27.7972C16.2774 27.5568 15.9498 27.2006 15.7463 26.7745L15.5085 26.3859H14.8055C14.2471 26.3899 13.6936 26.2843 13.1768 26.0752C12.6601 25.866 12.1905 25.5575 11.7952 25.1675C11.3999 24.7774 11.0869 24.3136 10.8742 23.803C10.6615 23.2924 10.5534 22.7451 10.5561 22.1928C10.5486 21.6602 10.6491 21.1315 10.8515 20.6379C11.0539 20.1444 11.3543 19.6959 11.7348 19.319L12.1276 18.9304L11.7348 18.6236C11.5316 18.3454 11.3861 18.0303 11.3068 17.6962C11.2274 17.3622 11.2158 17.0159 11.2725 16.6774C11.3292 16.3388 11.4532 16.0148 11.6372 15.7239C11.8213 15.4331 12.0617 15.1811 12.3448 14.9827C12.8059 14.658 13.351 14.4699 13.9163 14.4407H14.547L14.6297 13.8987C14.7204 13.3594 14.9194 12.8436 15.215 12.3818C15.5106 11.9199 15.8968 11.5213 16.3507 11.2095C16.8047 10.8978 17.3172 10.6792 17.858 10.5667C18.3988 10.4541 18.9569 10.45 19.4994 10.5544C20.6544 10.7887 21.671 11.4604 22.3323 12.426L22.5701 12.8146L23.0457 12.651C23.5025 12.501 23.9808 12.425 24.4621 12.426C25.014 12.4258 25.5604 12.5349 26.069 12.7469C26.5776 12.9588 27.0382 13.2693 27.4236 13.6601C27.809 14.0508 28.1114 14.514 28.3131 15.0221C28.5147 15.5303 28.6115 16.0733 28.5977 16.6191V17.0793L28.515 17.6213L29.063 17.7849C29.4139 17.8326 29.7509 17.9523 30.0523 18.1362C30.3538 18.3202 30.6131 18.5644 30.8136 18.8533C31.0141 19.1421 31.1514 19.4692 31.2167 19.8135C31.282 20.1579 31.2739 20.512 31.1928 20.8531L31.1825 20.7815Z" fill="white"/>
<path id="Vector_13" d="M38.5648 22.1316C38.4959 22.0298 38.4017 21.9472 38.2913 21.8917C38.1809 21.8361 38.0579 21.8096 37.9341 21.8146C37.486 21.8751 37.0567 22.0319 36.6762 22.274C36.2958 22.516 35.9735 22.8374 35.7319 23.2157C35.4469 23.7262 35.2714 24.2894 35.2163 24.8701C35.1611 25.4508 35.2275 26.0364 35.4114 26.5906C35.4517 26.7122 35.5251 26.8205 35.6236 26.9035C35.7221 26.9865 35.8419 27.041 35.9697 27.061H36.1248C36.6987 27.0923 37.2706 26.9713 37.7814 26.7106C38.2922 26.4499 38.7233 26.0589 39.0301 25.5781C39.7435 24.1054 38.6372 22.1623 38.5648 22.0907V22.1316ZM37.7274 25.1486C37.5819 25.3571 37.3894 25.5294 37.1652 25.6519C36.9409 25.7744 36.6909 25.8436 36.435 25.8542C36.3135 25.2215 36.408 24.5667 36.7038 23.9929C36.7006 23.9657 36.7006 23.9383 36.7038 23.9111C36.9123 23.5655 37.2505 23.3155 37.6446 23.2157C37.7882 23.5032 37.8698 23.8173 37.884 24.1377C37.8982 24.4582 37.8449 24.778 37.7274 25.077V25.1486Z" fill="white"/>
<path id="Vector_14" d="M43.1215 30.9775C42.8488 30.303 42.4296 29.6961 41.8936 29.1995C41.3577 28.7029 40.718 28.3288 40.0198 28.1037C38.728 27.809 37.3707 28.0333 36.246 28.7276C35.1111 28.0605 33.7648 27.838 32.4723 28.1037C31.7686 28.3183 31.1236 28.6886 30.5862 29.1866C30.0488 29.6845 29.6331 30.297 29.3706 30.9775C28.8706 32.0355 28.6448 33.1999 28.7134 34.3658C28.782 35.5316 29.1428 36.6623 29.7635 37.6558C30.2782 38.5413 31.0084 39.2857 31.8876 39.8215C32.7669 40.3573 33.7675 40.6674 34.7986 40.7239H37.5488C38.5715 40.6725 39.5642 40.3637 40.4326 39.8268C41.301 39.2899 42.0166 38.5426 42.5115 37.6558C43.1904 36.6894 43.5988 35.5626 43.695 34.3897C43.7913 33.2167 43.572 32.0395 43.0595 30.9775H43.1215ZM41.55 36.9603C41.1388 37.6462 40.5656 38.2232 39.8795 38.6418C39.1934 39.0604 38.4149 39.3081 37.6108 39.3637H34.8606C34.0641 39.2951 33.2951 39.0417 32.6161 38.6241C31.937 38.2066 31.3671 37.6366 30.9525 36.9603C30.4072 36.155 30.0841 35.2227 30.0152 34.2558C29.9463 33.2889 30.1339 32.321 30.5596 31.4479C30.7476 30.9404 31.0405 30.4773 31.4197 30.0881C31.7989 29.699 32.256 29.3923 32.7618 29.1878C33.0185 29.1246 33.2835 29.1004 33.5476 29.1162C34.3528 29.1553 35.1351 29.3944 35.8221 29.8116C35.926 29.8857 36.0508 29.9255 36.1788 29.9255C36.3069 29.9255 36.4317 29.8857 36.5355 29.8116C37.4578 29.2361 38.561 29.0142 39.6372 29.1878C40.1558 29.3687 40.6243 29.6674 41.005 30.0599C41.3857 30.4525 41.6679 30.9279 41.8291 31.4479C42.3148 32.2963 42.5509 33.2621 42.5107 34.2362C42.4705 35.2104 42.1556 36.1539 41.6017 36.9603H41.55Z" fill="white"/>
</g>
</g>
</g>
<defs>
<clipPath id="clip0_701_3856">
<rect width="50.4855" height="50" fill="white" transform="translate(0.970886)"/>
</clipPath>
</defs>
</svg>
