<svg width="106" height="32" viewBox="0 0 106 32" fill="none" xmlns="http://www.w3.org/2000/svg">
<g id="Group 1">
<path id="Vector" d="M14.4044 0C7.68411 0 1.76139 3.59188 0.3195 8.53827C-1.2246 13.8393 3.43508 17.2813 6.83905 19.7874C10.0879 22.1856 12.1649 23.9112 11.4367 25.9731C10.9256 27.4354 9.30487 28.2982 7.10187 28.2982C5.49206 28.2982 4.26737 27.8376 3.65958 26.9967C3.45533 26.7102 3.32439 26.3779 3.27825 26.0289C3.23211 25.68 3.27217 25.325 3.39493 24.9951C3.65408 24.3006 4.1659 23.7299 4.8277 23.3975C4.93667 23.3373 5.01931 23.2386 5.05948 23.1206C5.09964 23.0026 5.09444 22.8739 5.04489 22.7596L4.48821 21.4599C4.44892 21.3699 4.38434 21.2933 4.30236 21.2395C4.22037 21.1856 4.1245 21.1568 4.02644 21.1565C3.97253 21.1569 3.91899 21.1656 3.86765 21.1821C2.37465 21.6811 0.565899 23.0484 0.135156 24.8599C-0.0313579 25.5155 -0.0441924 26.2009 0.0976562 26.8624C0.239505 27.5239 0.532192 28.1435 0.952838 28.6729C2.14103 30.1846 4.26554 31.0163 6.93396 31.0163C10.776 31.0163 13.7273 29.2579 14.826 26.3094C16.4578 21.9407 12.6559 19.0087 9.29939 16.4203C6.19658 14.0275 3.27629 11.7664 4.03739 8.68085C4.94086 5.05789 8.96538 2.71813 14.2584 2.71813C16.1639 2.71813 17.6167 3.28296 18.3523 4.31026C18.9126 5.09627 19.0185 6.13819 18.648 7.22216C17.8412 9.59847 15.1308 11.5507 11.3965 12.4537C11.2697 12.4857 11.1605 12.5663 11.0923 12.678C11.024 12.7897 11.0022 12.9238 11.0315 13.0514L11.3673 14.5339C11.3922 14.6446 11.4541 14.7435 11.5427 14.8143C11.6313 14.8851 11.7413 14.9235 11.8546 14.9232C11.8874 14.9268 11.9205 14.9268 11.9532 14.9232C16.9013 13.927 20.8473 11.0206 22.0045 7.52194C22.5867 5.76347 22.3695 4.06166 21.4204 2.73276C20.5261 1.47514 18.5841 0 14.4044 0Z" fill="white"/>
<path id="Vector_2" d="M103.209 13.9087H101.087C100.987 13.9084 100.889 13.9383 100.806 13.9943C100.723 14.0504 100.659 14.1301 100.621 14.2231C99.9785 15.9148 99.1334 17.5223 98.1044 19.0104C98.0278 19.0997 97.9832 19.212 97.9775 19.3296C97.9719 19.4471 98.0057 19.5632 98.0734 19.6594C98.183 19.8808 98.3409 20.0747 98.5356 20.2266C98.7302 20.3785 98.9565 20.4845 99.1977 20.5368C99.2769 20.5619 99.3592 20.576 99.4423 20.5788C99.5137 20.5821 99.5847 20.5671 99.6486 20.5351C99.7125 20.5031 99.7672 20.4552 99.8073 20.396C100.03 21.767 101.196 23.8051 101.204 25.3899C101.204 26.8011 100.269 27.6127 98.6392 27.6127C96.741 27.6127 95.9233 26.3916 95.5693 25.3698C95.545 25.2727 95.4887 25.1867 95.4096 25.1257C95.3304 25.0646 95.2329 25.0321 95.133 25.0335C95.0086 25.0335 94.8872 25.0711 94.7844 25.1413L93.7824 25.9401C93.7005 26.0048 93.6408 26.0934 93.6116 26.1937C93.5825 26.294 93.5854 26.4009 93.62 26.4995C94.7151 29.5466 96.6041 30.9651 99.5481 30.9651C102.833 30.9651 104.958 29.1006 104.958 26.2125C104.958 24.8507 104.555 23.3445 103.724 21.6061C101.727 17.4275 103.038 15.4953 103.578 14.7623C103.985 14.214 103.465 13.9197 103.213 13.9197" fill="white"/>
<path id="Vector_3" d="M72.6817 7.7373C70.0936 7.7373 69.0806 10.3293 69.4676 11.4407C69.521 11.6484 69.6414 11.8326 69.81 11.9648C69.9786 12.097 70.1861 12.1698 70.4002 12.1719C70.6288 12.1697 70.851 12.0958 71.0356 11.9608C71.2202 11.8257 71.358 11.6362 71.4296 11.4188C71.5079 11.1423 71.6742 10.899 71.9031 10.7258C72.1321 10.5526 72.4112 10.4589 72.6981 10.4591C72.981 10.4605 73.2552 10.5566 73.4772 10.7322C73.6991 10.9077 73.856 11.1527 73.9228 11.4279C73.9768 11.6551 74.1044 11.8579 74.2857 12.0047C74.467 12.1516 74.6918 12.2341 74.9249 12.2395C75.1582 12.2353 75.3833 12.1518 75.563 12.0026C75.7428 11.8535 75.8666 11.6476 75.9141 11.4188C76.1988 10.3458 75.3666 7.74279 72.6817 7.74279" fill="white"/>
<path id="Vector_4" d="M83.644 7.92383C81.0577 7.92383 80.0429 10.5158 80.4317 11.6272C80.485 11.8346 80.6051 12.0186 80.7734 12.1508C80.9417 12.283 81.1487 12.3559 81.3625 12.3584C81.5915 12.3566 81.8141 12.2829 81.999 12.1478C82.184 12.0128 82.322 11.823 82.3938 11.6053C82.4716 11.3288 82.6375 11.0853 82.8661 10.9118C83.0947 10.7382 83.3736 10.6441 83.6604 10.6438C83.9436 10.6449 84.2182 10.7412 84.4402 10.9172C84.6623 11.0932 84.8189 11.3387 84.8851 11.6144C84.9398 11.8416 85.0678 12.0443 85.2494 12.1911C85.4309 12.3378 85.6558 12.4204 85.889 12.426C86.1235 12.4223 86.3497 12.3383 86.53 12.188C86.7103 12.0377 86.8338 11.8301 86.8801 11.5998C87.1648 10.5268 86.3325 7.92383 83.6477 7.92383" fill="white"/>
<path id="Vector_5" d="M43.4418 0.44415H40.819C40.7138 0.442539 40.6108 0.474174 40.5246 0.534557C40.4385 0.59494 40.3735 0.680996 40.339 0.78049L32.8849 22.4835C30.9429 25.2419 27.5353 27.6017 24.6187 27.6017C23.6252 27.6195 22.6555 27.297 21.87 26.6878C20.9574 25.9785 20.9136 23.9605 21.4903 22.2532C22.3573 19.7233 24.6497 17.3507 26.2632 17.3507C26.5067 17.348 26.7466 17.4104 26.9581 17.5316C27.1695 17.6527 27.3448 17.8282 27.466 18.0398C27.831 18.6284 27.6485 19.9811 26.3343 21.6043C26.1829 21.756 25.9438 22.2916 26.7231 22.4214H27.8073C27.9052 22.4214 28.0009 22.3928 28.0829 22.3391C29.2273 21.5805 30.0906 20.5496 30.4301 19.5058C31.0214 17.8899 30.5341 15.6672 28.7764 14.9634C28.161 14.718 27.5041 14.5938 26.8417 14.5978C21.2056 14.5978 14.6915 22.957 18.4258 28.6345C19.4662 30.2157 21.2749 30.8957 23.2826 30.8957C25.9839 30.8957 29.0429 29.6673 31.0743 27.7498C31.0743 27.7498 30.5268 29.3383 30.3443 29.8702C30.3167 29.9457 30.3079 30.0268 30.3186 30.1064C30.3294 30.1861 30.3593 30.2619 30.4058 30.3274C30.4523 30.3929 30.5141 30.4461 30.5857 30.4824C30.6574 30.5186 30.7367 30.5369 30.817 30.5356H33.4306C33.535 30.5353 33.6367 30.5027 33.7217 30.4421C33.8067 30.3815 33.8708 30.296 33.9052 30.1974C34.3998 28.7515 35.8928 24.4102 35.8928 24.4102C38.2199 20.29 40.5215 17.9247 41.8429 17.9247C41.9103 17.9241 41.9775 17.9303 42.0437 17.9429C42.2463 17.985 42.4616 18.2336 42.1185 19.1768C41.5034 20.8786 40.2532 24.2785 39.6308 25.9804C38.835 28.1538 39.1818 29.3456 39.6125 29.9616C39.9043 30.2832 40.2615 30.5384 40.6601 30.7099C41.0587 30.8814 41.4895 30.9654 41.9232 30.956C44.2631 30.956 47.0447 28.8155 48.5632 27.1923C49.6583 29.8757 51.7609 30.9615 54.1337 30.9615C57.419 30.9615 61.2154 28.8886 63.641 26.0864C63.9459 28.799 66.0448 31.1205 69.0545 31.1205H69.0874C71.6609 31.1077 74.9626 30.1096 77.7552 24.3133C78.4433 26.0005 80.3597 31.1059 85.2293 31.1059C85.4945 31.1053 85.7595 31.0907 86.0232 31.062C91.4988 30.4697 91.6375 24.2255 91.3272 22.6334C94.065 21.6262 96.7115 18.7948 97.3193 17.7784C98.0074 16.6414 98.1753 15.4021 97.761 14.2359C97.2134 12.6858 95.5562 11.5251 93.8423 11.5251C93.7529 11.5251 93.6598 11.5251 93.574 11.5342C92.3931 11.6201 90.8545 12.748 89.7758 13.289C88.9107 13.7241 88.0328 13.958 86.4321 14.1737C86.359 14.1891 86.2902 14.22 86.2301 14.2644C86.1701 14.3088 86.1203 14.3656 86.0841 14.431C86.0479 14.4964 86.0262 14.5688 86.0204 14.6433C86.0146 14.7178 86.0249 14.7927 86.0506 14.8629C86.9048 16.7932 87.8575 18.7015 88.3084 22.999C88.6734 26.4282 87.018 27.9216 85.2056 27.9216C83.9115 27.9216 82.5335 27.1612 81.7377 25.7994C80.9985 24.529 80.1954 23.0575 79.6534 21.2478C79.7446 21.1875 81.4585 19.4656 82.0571 18.8715C83.7582 17.1679 81.7888 14.5485 79.6844 14.5485C78.8977 14.5485 77.3281 14.4936 76.5414 14.4936C74.28 14.4936 72.4585 17.1734 74.0154 18.7308C74.583 19.2993 76.1618 21.0504 76.2056 21.087C76.0435 21.4963 75.8607 21.8971 75.658 22.2879C75.1521 23.3168 74.5253 24.2815 73.7909 25.1614C72.9604 26.1394 72.1811 26.8157 71.4017 27.2325C70.8339 27.5529 70.1936 27.7222 69.5419 27.7242C69.3204 27.7236 69.0993 27.7041 68.8811 27.6657C68.058 27.5085 67.6035 27.1612 67.3516 26.505C67.0998 25.8487 67.0541 24.9 67.2056 23.6625C67.4757 21.7578 68.131 19.621 69.2662 16.9376L69.739 15.8207C69.7899 15.7014 69.7925 15.567 69.7462 15.4459C69.6998 15.3247 69.6082 15.2264 69.4907 15.1718L67.3516 14.1737C67.2846 14.1431 67.2118 14.1269 67.1381 14.1262C67.044 14.1241 66.9514 14.1499 66.8718 14.2003C66.7923 14.2507 66.7293 14.3235 66.6909 14.4095C65.8568 16.3599 64.5007 20.2589 63.8108 22.3866C62.8745 25.2675 58.6583 27.6365 55.5026 27.6365C53.9238 27.6365 52.6115 27.0442 52.1077 25.6257C56.7473 24.7118 60.4908 22.277 61.2884 19.5058C62.002 17.0217 60.8978 15.5758 59.8739 15.0822C59.1474 14.73 58.3503 14.5481 57.5431 14.5503C53.6847 14.5503 49.8171 18.5352 48.7457 22.0832C48.5206 22.7666 48.3605 23.4699 48.2675 24.1835C46.6924 26.3149 44.4219 27.6127 43.4071 27.6127C43.3272 27.6206 43.2465 27.6107 43.1708 27.5839C43.0951 27.557 43.0262 27.5138 42.969 27.4573C42.8668 27.3367 42.8997 27.0442 43.0256 26.6987L45.8419 18.9593C46.8256 15.8883 45.5626 14.6362 43.7101 14.6344C41.9488 14.6344 39.6563 15.7659 38.2583 17.5444L43.9054 1.10769C43.9302 1.03302 43.9372 0.953571 43.9258 0.875699C43.9145 0.797827 43.8851 0.72369 43.8401 0.659213C43.7951 0.594735 43.7356 0.541706 43.6664 0.504364C43.5972 0.467021 43.5203 0.446401 43.4418 0.44415ZM89.9437 16.8169C89.8725 16.6232 89.7722 16.349 89.6973 16.1534C92.1467 15.0237 92.0007 14.691 93.0411 14.0933C93.3035 13.9418 93.6015 13.863 93.9044 13.8648C95.0615 13.8648 96.1712 14.9616 95.2477 16.3819C94.8954 16.9303 93.0374 18.9154 90.849 19.855C90.7809 19.56 90.7066 19.2664 90.6263 18.9739C91.9847 18.2647 93.2273 17.3524 94.3114 16.2685C94.7531 15.7969 94.3771 14.8793 93.7091 14.8793C93.4924 14.8874 93.2844 14.9671 93.1177 15.106C92.1603 15.8463 91.088 16.4243 89.9437 16.8169ZM52.0895 23.169C52.1572 22.8597 52.2425 22.5546 52.345 22.255C52.9619 20.0469 55.4277 17.3013 56.9791 17.3013C57.4811 17.3013 57.8917 17.5901 58.1034 18.2811C58.2276 19.8111 56.4298 22.255 52.0895 23.169Z" fill="white"/>
<path id="Vector_6" d="M104.905 10.3259C104.94 10.3213 104.973 10.3088 105.002 10.2893C105.03 10.2722 105.054 10.2475 105.069 10.218C105.088 10.1812 105.096 10.1403 105.095 10.0992C105.098 10.0397 105.077 9.98148 105.038 9.93653C105.014 9.91335 104.986 9.89576 104.954 9.88502C104.922 9.87428 104.889 9.87064 104.856 9.87438H104.42V10.335H104.785C104.823 10.3389 104.863 10.3389 104.901 10.335M104.865 9.73546C104.971 9.72938 105.076 9.76183 105.161 9.82685C105.196 9.85856 105.224 9.89785 105.242 9.94183C105.261 9.98581 105.269 10.0333 105.266 10.0809C105.268 10.1553 105.249 10.2287 105.212 10.293C105.191 10.325 105.164 10.3525 105.133 10.3738C105.102 10.3952 105.066 10.41 105.029 10.4173C105.062 10.4229 105.094 10.4353 105.122 10.4538C105.146 10.4703 105.166 10.4915 105.181 10.516C105.195 10.5411 105.205 10.5682 105.212 10.5964C105.219 10.6271 105.225 10.6582 105.228 10.6896C105.228 10.7201 105.228 10.753 105.228 10.7883C105.225 10.8206 105.225 10.853 105.228 10.8852C105.232 10.9164 105.24 10.947 105.25 10.9766C105.259 11.005 105.272 11.0317 105.29 11.0552H105.095C105.082 11.0388 105.073 11.0193 105.069 10.9986C105.067 10.9724 105.067 10.9461 105.069 10.92C105.069 10.8907 105.069 10.8596 105.069 10.8267C105.068 10.7935 105.063 10.7605 105.057 10.728C105.052 10.6972 105.046 10.6667 105.038 10.6366C105.032 10.609 105.02 10.5828 105.004 10.5599C104.987 10.5384 104.966 10.5209 104.942 10.5087C104.909 10.4945 104.873 10.4876 104.838 10.4886H104.409V11.0552H104.226V9.72632L104.865 9.73546Z" fill="white"/>
<path id="Vector_7" d="M104.721 11.6144V11.5395C104.982 11.5395 105.235 11.4488 105.437 11.283C105.638 11.1172 105.776 10.8865 105.827 10.6302C105.878 10.3738 105.839 10.1078 105.716 9.87728C105.593 9.64679 105.394 9.46615 105.153 9.36614C104.912 9.26613 104.643 9.25293 104.394 9.32881C104.144 9.40468 103.928 9.56492 103.783 9.78223C103.638 9.99954 103.573 10.2605 103.599 10.5206C103.624 10.7807 103.739 11.0238 103.924 11.2086C104.028 11.3138 104.152 11.3971 104.289 11.4539C104.426 11.5107 104.573 11.5398 104.721 11.5395V11.6985C104.468 11.6985 104.221 11.6235 104.011 11.4829C103.801 11.3423 103.637 11.1424 103.541 10.9086C103.444 10.6748 103.419 10.4175 103.468 10.1693C103.517 9.92112 103.639 9.69313 103.818 9.51418C103.996 9.33523 104.224 9.21336 104.472 9.16399C104.72 9.11462 104.977 9.13996 105.21 9.23681C105.443 9.33365 105.643 9.49765 105.783 9.70808C105.924 9.9185 105.999 10.1659 105.999 10.419C105.999 10.7583 105.864 11.0838 105.625 11.3237C105.385 11.5637 105.06 11.6985 104.721 11.6985V11.6144Z" fill="white"/>
</g>
</svg>
