<svg width="96" height="96" viewBox="0 0 96 96" fill="none" xmlns="http://www.w3.org/2000/svg">
<g id="icon-01" clip-path="url(#clip0_701_3657)">
<g id="Layer 2">
<g id="Layer 1">
<path id="Vector" d="M42.595 18.1523C40.4815 17.8973 38.342 18.3284 36.4928 19.3818C34.6436 20.4352 33.1829 22.0549 32.3266 24.0016C29.6326 30.6697 30.8235 38.3908 29.7888 44.474C28.7542 50.5573 27.8367 51.3177 26.6654 58.8828C26.0502 61.9118 25.9446 65.022 26.353 68.0856C26.5482 69.1006 26.9538 70.0637 27.5438 70.9128C28.1541 71.6375 29.0076 72.1157 29.945 72.2581C30.5307 72.3101 31.1192 72.197 31.6438 71.9316C32.1683 71.6662 32.6078 71.2592 32.9123 70.7568C33.8957 69.7125 34.7004 68.5136 35.2939 67.2082C36.9337 64.2251 38.1245 61.3589 39.4715 58.4343C40.1937 57.0264 41.0924 55.716 42.146 54.5348C42.5635 54.1038 43.0821 53.7836 43.6547 53.6032C44.2274 53.4228 44.836 53.3878 45.4256 53.5014C46.6164 53.7939 47.2216 54.8468 47.6511 56.1726C47.9635 57.6905 47.9635 59.2561 47.6511 60.774C47.2216 64.0496 46.6164 67.4617 46.3236 70.2888C46.1671 71.7144 46.1671 73.1528 46.3236 74.5783C46.3325 75.1668 46.5028 75.7415 46.816 76.24C47.1292 76.7385 47.5734 77.1416 48.1001 77.4055C48.5282 77.641 48.9994 77.7883 49.4857 77.8385C49.9719 77.8888 50.4633 77.841 50.9307 77.6979C51.9235 77.3165 52.8369 76.7546 53.6247 76.0406C55.6692 73.7225 57.324 71.0887 58.5246 68.2416C61.0624 62.7433 62.4289 57.9859 64.0492 54.5933C66.5675 49.095 71.8578 43.3042 73.5757 36.324C74.0744 34.3643 73.9057 32.2945 73.0962 30.441C72.2868 28.5876 70.8827 27.056 69.1053 26.0878C66.9308 25.0179 64.5406 24.4577 62.1166 24.45C59.3454 24.3861 56.5923 23.9867 53.9175 23.2606C50.1889 22.2273 47.9634 19.3611 44.391 18.2108C43.942 18.2108 43.2001 18.0743 42.595 18.0743V18.1523ZM43.942 19.9266C46.9093 20.8234 49.4471 23.9431 53.4685 24.9764C56.324 25.8096 59.2787 26.2556 62.2532 26.3023C64.4308 26.3069 66.5769 26.8211 68.5196 27.8036C69.9598 28.6355 71.0963 29.905 71.7635 31.4271C72.4306 32.9492 72.5937 34.6444 72.2287 36.2655C70.7451 42.6413 65.689 48.2761 62.8584 54.2228C60.0278 60.1696 60.4768 61.047 57.3338 67.8712C56.1761 70.525 54.6155 72.9846 52.7072 75.1632C52.1819 75.7358 51.5051 76.1481 50.755 76.3526C50.2089 76.5161 49.6205 76.4601 49.1152 76.1966C48.6662 76.0601 48.3734 75.4557 48.2172 74.5588C48.0565 73.2639 48.0565 71.9542 48.2172 70.6593C48.51 67.6957 49.2518 64.1276 49.7008 61.164C49.9599 59.3884 49.9136 57.5817 49.5642 55.8216C49.4068 54.9419 49.0211 54.1188 48.4456 53.4346C47.8701 52.7503 47.125 52.2288 46.2846 51.9221C45.4207 51.6842 44.5089 51.6817 43.6438 51.9148C42.7787 52.148 41.9918 52.6083 41.3651 53.2479C40.0649 54.4779 39.0056 55.9392 38.2417 57.5569C36.758 60.5401 35.5477 63.6402 34.064 66.1749C33.492 67.2926 32.791 68.3396 31.9752 69.2945C31.2334 70.0354 30.7844 70.3278 30.3354 70.1914C29.7775 70.0869 29.2621 69.8227 28.8518 69.431C28.3482 68.8498 28.0348 68.1286 27.9538 67.3642C27.5504 64.4955 27.6561 61.5783 28.2661 58.7463C29.457 51.3177 30.3354 50.7328 31.3896 44.3375C32.4438 37.9423 31.3896 30.3968 33.7712 24.294C34.5044 22.6796 35.7411 21.3456 37.2964 20.4916C38.8518 19.6376 40.6421 19.3094 42.3998 19.5561C43.0049 19.6926 43.4539 19.6926 43.9029 19.8486L43.942 19.9266Z" fill="#1B1B1B"/>
<path id="Vector_2" d="M48.1017 31.664C47.9285 31.5908 47.7415 31.5558 47.5534 31.5613C47.3654 31.5668 47.1808 31.6128 47.0122 31.6961C46.8435 31.7794 46.6949 31.898 46.5763 32.0439C46.4578 32.1898 46.3722 32.3595 46.3253 32.5414C46.2554 32.7174 46.2236 32.9061 46.2317 33.0952C46.2399 33.2843 46.2879 33.4696 46.3727 33.6389C46.4574 33.8082 46.577 33.9577 46.7236 34.0777C46.8701 34.1977 47.0404 34.2854 47.2233 34.3352C47.9651 34.4717 48.8631 34.1792 48.9997 33.4383C49.0577 33.2629 49.0804 33.0779 49.0666 32.8937C49.0528 32.7095 49.0028 32.5299 48.9194 32.3651C48.836 32.2002 48.7208 32.0535 48.5805 31.9332C48.4402 31.8129 48.2775 31.7214 48.1017 31.664Z" fill="#1B1B1B"/>
<path id="Vector_3" d="M56.4572 34.1793C56.2816 34.1204 56.0961 34.0966 55.9113 34.1093C55.7265 34.1221 55.546 34.171 55.3802 34.2534C55.2143 34.3358 55.0663 34.45 54.9446 34.5895C54.823 34.729 54.73 34.891 54.671 35.0664C54.6121 35.2418 54.5883 35.4271 54.601 35.6117C54.6137 35.7963 54.6627 35.9765 54.7452 36.1422C54.8277 36.3078 54.942 36.4557 55.0817 36.5772C55.2214 36.6987 55.3836 36.7916 55.5593 36.8505C55.7341 36.9201 55.9218 36.9519 56.1098 36.9436C56.2979 36.9353 56.4821 36.8871 56.6501 36.8023C56.8181 36.7175 56.9661 36.5979 57.0843 36.4516C57.2025 36.3053 57.2882 36.1355 57.3357 35.9536C57.409 35.7806 57.4441 35.5938 57.4386 35.406C57.4331 35.2182 57.387 35.0338 57.3036 34.8653C57.2203 34.6969 57.1015 34.5484 56.9554 34.4301C56.8093 34.3117 56.6394 34.2261 56.4572 34.1793Z" fill="#1B1B1B"/>
<path id="Vector_4" d="M55.6946 44.123C56.2997 43.5381 56.1436 42.7972 55.4017 42.6412C55.2677 42.5925 55.121 42.5911 54.9861 42.6372C54.8511 42.6833 54.736 42.7742 54.6599 42.8947C53.8426 43.5317 52.8814 43.959 51.8604 44.1392C50.8395 44.3193 49.7899 44.2468 48.8035 43.928C47.8324 43.6487 46.9443 43.1368 46.2163 42.4369C45.4882 41.7369 44.9423 40.8701 44.6258 39.9115C44.4697 39.6191 44.333 39.3266 44.0207 39.3266C43.7083 39.3266 42.6932 39.6191 42.986 40.36C43.353 41.6177 44.0406 42.7587 44.9817 43.6712C45.9227 44.5838 47.0849 45.2366 48.3545 45.5658C49.5827 45.9772 50.8956 46.0695 52.1695 45.8342C53.4434 45.5988 54.6363 45.0435 55.636 44.2205L55.6946 44.123Z" fill="#1B1B1B"/>
<path id="Vector_5" d="M8.1964 68.9241L7.43505 67.4423L10.129 65.9605C11.0874 66.4752 11.8642 67.2715 12.3545 68.2417C12.6363 68.6954 12.8218 69.202 12.8996 69.7301C12.9774 70.2583 12.9457 70.7968 12.8066 71.3123C12.6675 71.8277 12.424 72.3092 12.091 72.7268C11.758 73.1444 11.3427 73.4893 10.8709 73.74C10.42 74.0151 9.91637 74.1924 9.39251 74.2604C8.86865 74.3285 8.33632 74.2857 7.83007 74.135C7.32383 73.9842 6.85499 73.7288 6.45398 73.3853C6.05298 73.0418 5.72878 72.618 5.50242 72.1412C5.20612 71.6287 5.0263 71.0574 4.9757 70.4678C4.9251 69.8781 5.00495 69.2846 5.20959 68.7292L6.69323 69.1776C6.57076 69.5134 6.52134 69.8714 6.54827 70.2278C6.5752 70.5842 6.67786 70.9307 6.84941 71.2444C6.99059 71.5331 7.19175 71.7885 7.4395 71.9935C7.68725 72.1985 7.9759 72.3484 8.28621 72.4333C8.59652 72.5182 8.92138 72.536 9.23914 72.4857C9.5569 72.4353 9.86027 72.3179 10.129 72.1412C10.6921 71.8349 11.1145 71.3225 11.3074 70.7117C11.5003 70.101 11.4488 69.4393 11.1637 68.8656C10.9516 68.4543 10.6436 68.0998 10.2657 67.8323L8.1964 68.8656V68.9241Z" fill="#1B1B1B"/>
<path id="Vector_6" d="M8.94181 59.8576L7.43865 61.9438V62.0998L7.88765 63.5816L9.97646 62.9772L10.4255 64.4785L3.12438 66.7012L2.08974 63.5816C1.90927 63.2138 1.80871 62.812 1.79467 62.4026C1.78064 61.9933 1.85343 61.5856 2.00828 61.2063C2.16314 60.827 2.39655 60.4847 2.69319 60.2018C2.98984 59.919 3.34302 59.702 3.72955 59.5651C4.22436 59.4215 4.74889 59.4146 5.24734 59.545C5.74578 59.6755 6.19948 59.9385 6.56018 60.306L8.33665 57.9273L8.94181 59.8771V59.8576ZM3.57338 63.2891L4.02238 64.615L6.56018 63.8741L6.11119 62.5482C6.08826 62.3443 6.02086 62.1479 5.91373 61.9729C5.8066 61.7978 5.66235 61.6483 5.49113 61.5349C5.31991 61.4215 5.12589 61.347 4.92272 61.3166C4.71955 61.2862 4.51218 61.3006 4.3152 61.3589C3.57338 61.6513 3.28056 62.2363 3.57338 63.3086V63.2891Z" fill="#1B1B1B"/>
<path id="Vector_7" d="M6.11026 51.5516L7.43772 51.3956L8.19906 57.1864L0.585647 58.0833L0 52.4485L1.34699 52.2925L1.79599 56.309L3.41628 56.153L2.9868 52.585L4.47044 52.2925L4.91944 55.8606L6.6959 55.5681L6.11026 51.5516Z" fill="#1B1B1B"/>
<path id="Vector_8" d="M6.11026 45.1759L5.95408 48.744L7.5939 49.4849L7.43772 51.2787L0 47.5351L0.156173 45.7609L7.80863 42.8947V44.5715L6.16882 45.1759H6.11026ZM4.76327 45.6049L1.79599 46.6578L4.62661 47.9836L4.76327 45.6049Z" fill="#1B1B1B"/>
<path id="Vector_9" d="M2.38192 39.814L1.93293 42.1927L0.585938 41.9003L1.93293 35.5051L3.27992 35.817L2.83092 38.1957L8.785 39.5216L8.33601 41.2959L2.38192 39.814Z" fill="#1B1B1B"/>
<path id="Vector_10" d="M5.66311 29.2853L7.43957 30.1627L8.94273 27.0626L10.2702 27.6475L8.78656 30.7672L11.3244 31.9565L10.5825 33.5943L3.73047 30.3187L6.1121 25.1129L7.43957 25.7173L5.66311 29.2853Z" fill="#1B1B1B"/>
<path id="Vector_11" d="M9.97468 25.8734C9.5525 25.5521 9.19818 25.1505 8.93216 24.6917C8.66614 24.233 8.49367 23.7262 8.42471 23.2006C8.35575 22.6749 8.39166 22.1409 8.53036 21.6291C8.66906 21.1174 8.90782 20.6382 9.23286 20.2191C9.53536 19.8005 9.91746 19.4454 10.3573 19.1743C10.7972 18.9031 11.2863 18.7212 11.7966 18.6388C12.3068 18.5564 12.8284 18.5752 13.3314 18.6942C13.8344 18.8131 14.309 19.0298 14.7282 19.332C15.1473 19.6341 15.5028 20.0157 15.7743 20.4551C16.0458 20.8944 16.2279 21.3829 16.3104 21.8925C16.3929 22.4022 16.3741 22.9231 16.255 23.4255C16.1359 23.9279 15.9189 24.4019 15.6164 24.8205C15.3299 25.2796 14.951 25.6741 14.5036 25.9789C14.0562 26.2838 13.5502 26.4924 13.0178 26.5914C12.4854 26.6904 11.9381 26.6777 11.4109 26.5541C10.8836 26.4305 10.3879 26.1987 9.95515 25.8734H9.97468ZM13.879 20.5116C13.6244 20.3144 13.3333 20.1696 13.0224 20.0854C12.7115 20.0012 12.387 19.9793 12.0676 20.021C11.7482 20.0627 11.4402 20.1671 11.1614 20.3283C10.8826 20.4894 10.6385 20.7042 10.4432 20.96C10.2517 21.2213 10.1151 21.5185 10.0417 21.8339C9.96831 22.1493 9.95963 22.4763 10.0162 22.7951C10.0727 23.114 10.1933 23.4181 10.3707 23.6891C10.5481 23.9601 10.7786 24.1924 11.0484 24.3721C11.5675 24.7426 12.2074 24.9043 12.8405 24.8248C13.4736 24.7453 14.0535 24.4305 14.4646 23.9431C14.6524 23.6796 14.7862 23.3817 14.8584 23.0664C14.9306 22.7511 14.9398 22.4247 14.8854 22.1059C14.8309 21.787 14.714 21.4821 14.5413 21.2085C14.3686 20.9349 14.1436 20.6981 13.879 20.5116Z" fill="#1B1B1B"/>
<path id="Vector_12" d="M22.1988 17.3918L19.661 16.8069L18.4702 17.8403L19.9538 19.3221L18.6263 20.6674L13.4141 15.1691L15.7957 12.9464C16.0499 12.6241 16.3713 12.361 16.7376 12.1753C17.1038 11.9895 17.5062 11.8856 17.9167 11.8708C18.3272 11.856 18.736 11.9305 19.1147 12.0893C19.4935 12.2481 19.8331 12.4874 20.11 12.7904C20.4596 13.1585 20.6897 13.6237 20.7698 14.1248C20.8499 14.6259 20.7764 15.1395 20.559 15.5981L23.5262 16.2025L22.1988 17.3723V17.3918ZM16.8303 13.9798L15.7957 15.0326L17.5722 16.9629L18.6263 15.91C19.3681 15.1691 19.5048 14.4282 18.9191 13.8433C18.783 13.6962 18.6156 13.5813 18.4293 13.507C18.2429 13.4328 18.0423 13.401 17.8422 13.4141C17.642 13.4272 17.4472 13.4848 17.2722 13.5826C17.0971 13.6805 16.9462 13.8162 16.8303 13.9798Z" fill="#1B1B1B"/>
<path id="Vector_13" d="M23.2307 7.15559L26.3542 5.51779C26.8091 5.23311 27.3179 5.04518 27.8488 4.96575C28.3797 4.88633 28.9213 4.91711 29.4398 5.05617C29.9583 5.19523 30.4425 5.43959 30.8621 5.77398C31.2818 6.10837 31.6279 6.5256 31.8788 6.99961C32.1223 7.47633 32.265 7.99802 32.2979 8.5322C32.3309 9.06638 32.2534 9.60161 32.0703 10.1046C31.8871 10.6076 31.6023 11.0675 31.2335 11.4558C30.8647 11.844 30.4199 12.1523 29.9266 12.3615L26.7836 13.8433L23.2307 7.15559ZM29.0872 11.0551C29.3809 10.9215 29.6446 10.7301 29.8626 10.4924C30.0806 10.2546 30.2484 9.97547 30.3559 9.67153C30.4634 9.36758 30.5085 9.04511 30.4884 8.72338C30.4683 8.40165 30.3835 8.08726 30.239 7.79901C30.1063 7.50237 29.909 7.23903 29.6615 7.02819C29.414 6.81735 29.1226 6.66432 28.8084 6.58026C28.4941 6.49619 28.1651 6.48322 27.8452 6.54227C27.5254 6.60133 27.2227 6.73093 26.9593 6.92162L25.4757 7.66253L27.7012 11.6985L29.0481 10.9576L29.0872 11.0551Z" fill="#1B1B1B"/>
<path id="Vector_14" d="M33.0705 6.57066C32.9192 6.05302 32.877 5.50967 32.9467 4.97494C33.0163 4.44021 33.1963 3.92571 33.4751 3.46397C33.754 3.00222 34.1257 2.60326 34.5668 2.29228C35.0079 1.98131 35.5087 1.76508 36.0377 1.65727C36.5457 1.47762 37.0855 1.40495 37.623 1.44385C38.1605 1.48275 38.6841 1.63237 39.1609 1.88328C39.6377 2.1342 40.0573 2.48098 40.3933 2.9018C40.7293 3.32262 40.9745 3.80836 41.1133 4.32844C41.2645 4.84743 41.3059 5.39214 41.235 5.92798C41.1642 6.46382 40.9826 6.9791 40.7017 7.44111C40.4209 7.90312 40.0469 8.30177 39.6036 8.61176C39.1603 8.92175 38.6573 9.13632 38.1265 9.24183C37.619 9.4012 37.0849 9.4584 36.5551 9.41014C36.0253 9.36187 35.5104 9.20909 35.0401 8.96064C34.5698 8.7122 34.1536 8.37303 33.8155 7.96278C33.4774 7.55253 33.2242 7.07935 33.0705 6.57066ZM39.3174 4.77688C39.2393 4.46922 39.0989 4.18081 38.9049 3.9295C38.7108 3.6782 38.4672 3.46933 38.189 3.31581C37.9109 3.1623 37.6042 3.06741 37.2879 3.03701C36.9716 3.00662 36.6524 3.04136 36.3501 3.13908C36.035 3.20849 35.7385 3.34434 35.4802 3.53753C35.222 3.73071 35.0081 3.97678 34.8528 4.25924C34.6976 4.5417 34.6045 4.85404 34.5799 5.17534C34.5554 5.49663 34.5998 5.81947 34.7103 6.12222C34.9039 6.71451 35.3208 7.20826 35.8726 7.49893C36.4244 7.7896 37.0678 7.85437 37.6666 7.67951C38.2654 7.50466 38.7725 7.10392 39.0806 6.56215C39.3887 6.02037 39.4736 5.38009 39.3174 4.77688Z" fill="#1B1B1B"/>
<path id="Vector_15" d="M47.9638 3.58753L49.6037 3.45105L49.7403 6.57066C48.9272 7.2681 47.918 7.69717 46.8511 7.79901C46.3214 7.87825 45.7811 7.84779 45.2637 7.70952C44.7463 7.57126 44.2629 7.32815 43.8436 6.99531C43.4243 6.66247 43.078 6.24703 42.8263 5.77481C42.5747 5.3026 42.423 4.78372 42.3807 4.25045C42.3431 3.71587 42.4163 3.17929 42.5956 2.67421C42.7749 2.16913 43.0566 1.70639 43.4229 1.31486C43.7893 0.923334 44.2325 0.611431 44.7249 0.398617C45.2174 0.185804 45.7484 0.0766475 46.285 0.0779622C46.8756 0.0012449 47.4758 0.0558478 48.0428 0.237864C48.6097 0.41988 49.1294 0.724809 49.5646 1.13083L48.53 2.32019C48.3081 2.01688 48.0123 1.77526 47.6706 1.61829C47.329 1.46131 46.9528 1.39419 46.5778 1.4233C46.2506 1.42072 45.9261 1.48287 45.6231 1.60616C45.32 1.72945 45.0444 1.91144 44.8121 2.14163C44.5798 2.37182 44.3954 2.64566 44.2696 2.94737C44.1438 3.24907 44.079 3.57267 44.0791 3.89949C44.0869 4.23765 44.1686 4.57 44.3186 4.87328C44.4686 5.17656 44.6831 5.44342 44.9472 5.65517C45.2113 5.86692 45.5185 6.01845 45.8474 6.09912C46.1763 6.1798 46.5189 6.18768 46.8511 6.12222C47.3284 6.10789 47.7906 5.95176 48.1786 5.67377L48.0419 3.58753H47.9638Z" fill="#1B1B1B"/>
<path id="Vector_16" d="M50.6406 6.70707L51.3824 5.51772C52.0528 6.09902 52.8825 6.46583 53.7641 6.57059C54.8182 6.70707 55.2672 6.41461 55.2672 5.96616C55.4039 4.48435 50.9334 5.06928 51.2458 2.26162C51.3824 0.916287 52.5733 -0.000100121 54.6621 0.175378C55.5613 0.294772 56.4256 0.600245 57.1999 1.07227L56.6142 2.26162C56.0116 1.79078 55.2709 1.53049 54.5059 1.52071C53.4713 1.36473 53.0223 1.81318 53.0223 2.26162C52.8856 3.58746 57.3365 3.13901 57.0437 5.96616C56.9071 7.15552 55.6967 8.18889 53.6274 7.91592C52.5355 7.82518 51.4955 7.41106 50.6406 6.72657V6.70707Z" fill="#1B1B1B"/>
<path id="Vector_17" d="M57.6476 7.31158C57.6726 7.18241 57.7239 7.05978 57.7985 6.95136C57.8731 6.84294 57.9693 6.75108 58.0811 6.68152C58.1929 6.61197 58.3179 6.56622 58.4482 6.54714C58.5785 6.52807 58.7114 6.53608 58.8384 6.57068C58.9684 6.59027 59.0927 6.63753 59.2028 6.70927C59.313 6.78102 59.4063 6.87556 59.4767 6.98649C59.547 7.09743 59.5927 7.22217 59.6106 7.35227C59.6284 7.48236 59.6181 7.61477 59.5803 7.74053C59.5936 7.889 59.5688 8.0384 59.5082 8.17465C59.4477 8.31089 59.3534 8.42948 59.2342 8.51923C59.115 8.60898 58.975 8.66693 58.8272 8.68761C58.6793 8.70829 58.5287 8.69101 58.3894 8.63742C58.1281 8.54072 57.9098 8.3541 57.7738 8.11109C57.6379 7.86807 57.5931 7.58459 57.6476 7.31158Z" fill="#1B1B1B"/>
<path id="Vector_18" d="M48.8042 95.2262C42.1373 95.2261 35.5486 93.793 29.4854 91.0242C23.4223 88.2554 18.0268 84.2157 13.6653 79.1797C13.5074 79.0116 13.4228 78.7878 13.4301 78.5574C13.4374 78.3271 13.5361 78.109 13.7044 77.9513C13.8726 77.7936 14.0967 77.7091 14.3274 77.7164C14.558 77.7237 14.7763 77.8223 14.9342 77.9903C19.3784 83.1436 24.9421 87.2152 31.2011 89.8947C37.4601 92.5742 44.2491 93.7907 51.0503 93.4517C57.8515 93.1126 64.4855 91.2269 70.4462 87.9382C76.4069 84.6495 81.537 80.0448 85.4453 74.4751C89.3536 68.9055 91.9369 62.518 92.9982 55.7998C94.0595 49.0815 93.5707 42.2099 91.5692 35.709C89.5676 29.2081 86.1062 23.2495 81.4488 18.2876C76.7914 13.3257 71.0611 9.49159 64.6947 7.07757C64.5896 7.03662 64.4936 6.97539 64.4122 6.89737C64.3307 6.81936 64.2655 6.72608 64.2202 6.62287C64.1749 6.51967 64.1503 6.40855 64.148 6.29588C64.1457 6.1832 64.1656 6.07118 64.2067 5.9662C64.2477 5.86121 64.309 5.7653 64.3871 5.68398C64.4652 5.60265 64.5586 5.53749 64.6619 5.49223C64.7653 5.44696 64.8765 5.42247 64.9893 5.42016C65.1022 5.41785 65.2143 5.43776 65.3194 5.47876C75.4182 9.37624 83.8372 16.6738 89.1223 26.111C94.4074 35.5483 96.2268 46.5327 94.2662 57.1671C92.3057 67.8015 86.6884 77.4183 78.3843 84.3564C70.0803 91.2945 59.611 95.1185 48.7846 95.1677L48.8042 95.2262Z" fill="#1B1B1B"/>
</g>
</g>
</g>
<defs>
<clipPath id="clip0_701_3657">
<rect width="95.2263" height="95.2263" fill="white"/>
</clipPath>
</defs>
</svg>
