<svg width="28" height="28" viewBox="0 0 28 28" fill="none" xmlns="http://www.w3.org/2000/svg">
<g id="Social Media Icons">
<path id="Vector" d="M19 4H9C6.23858 4 4 6.23858 4 9V19C4 21.7614 6.23858 24 9 24H19C21.7614 24 24 21.7614 24 19V9C24 6.23858 21.7614 4 19 4Z" stroke="#1B1B1B" stroke-width="2" stroke-linecap="round" stroke-linejoin="round"/>
<path id="Vector_2" d="M17.9997 13.3701C18.1231 14.2023 17.981 15.0523 17.5935 15.7991C17.206 16.5459 16.5929 17.1515 15.8413 17.5297C15.0898 17.908 14.2382 18.0397 13.4075 17.906C12.5768 17.7723 11.8095 17.3801 11.2145 16.7852C10.6196 16.1903 10.2274 15.4229 10.0938 14.5923C9.96011 13.7616 10.0918 12.91 10.47 12.1584C10.8483 11.4069 11.4539 10.7938 12.2007 10.4063C12.9475 10.0188 13.7975 9.87665 14.6297 10.0001C15.4786 10.1259 16.2646 10.5215 16.8714 11.1284C17.4782 11.7352 17.8738 12.5211 17.9997 13.3701Z" stroke="#1B1B1B" stroke-width="2" stroke-linecap="round" stroke-linejoin="round"/>
<path id="Vector_3" d="M19.5 8.5H19.51" stroke="#1B1B1B" stroke-width="2" stroke-linecap="round" stroke-linejoin="round"/>
</g>
</svg>
