<svg width="97" height="96" viewBox="0 0 97 96" fill="none" xmlns="http://www.w3.org/2000/svg">
<g id="icon-02" clip-path="url(#clip0_701_3682)">
<g id="Layer 2">
<g id="Layer 1">
<path id="Vector" d="M0.452891 41.5458L8.09297 42.5782L7.79761 44.3506L1.65404 43.6299L1.49651 45.1102L0 44.7986L0.452891 41.5458Z" fill="#1B1B1B"/>
<path id="Vector_2" d="M4.35201 40.3772C3.86999 40.3198 3.40527 40.164 2.98731 39.9197C2.56935 39.6753 2.20728 39.3477 1.92404 38.9577C1.64079 38.5676 1.44256 38.1236 1.3419 37.6538C1.24125 37.184 1.24036 36.6986 1.3393 36.2285C1.47691 35.7787 1.70974 35.363 2.02231 35.0091C2.33487 34.6552 2.72002 34.3711 3.15215 34.1758C3.58428 33.9805 4.05348 33.8784 4.52857 33.8764C5.00366 33.8743 5.47375 33.9723 5.9076 34.1638C6.38832 34.2183 6.85218 34.3718 7.26931 34.6143C7.68645 34.8569 8.04761 35.1832 8.32955 35.5721C8.6115 35.9611 8.80797 36.4042 8.90633 36.8728C9.00468 37.3414 9.00273 37.8253 8.90062 38.2931C8.46742 40.0656 6.81338 41.1174 4.27325 40.3772H4.35201ZM5.691 35.9363C4.03696 35.4883 3.15087 35.9363 2.99334 36.6765C2.83581 37.4166 3.2887 38.2931 4.96243 38.7411C6.63616 39.1891 7.50256 38.7411 7.66009 38.0009C7.81762 37.2608 7.36472 36.3843 5.691 35.9363Z" fill="#1B1B1B"/>
<path id="Vector_3" d="M6.43925 32.9757C5.97894 32.8341 5.55288 32.6007 5.1874 32.2898C4.82192 31.9788 4.52481 31.5971 4.31441 31.1681C4.10402 30.7391 3.98482 30.2719 3.9642 29.7955C3.94357 29.3192 4.02195 28.8436 4.19449 28.3984C4.41308 27.9729 4.71909 27.5973 5.09293 27.2955C5.46676 26.9937 5.90018 26.7725 6.36543 26.646C6.83069 26.5195 7.31752 26.4905 7.79477 26.5608C8.27201 26.6311 8.72915 26.7993 9.13691 27.0545C9.5996 27.1957 10.0279 27.4298 10.3951 27.7421C10.7623 28.0543 11.0605 28.4381 11.2711 28.8694C11.4817 29.3007 11.6002 29.7703 11.6193 30.2489C11.6383 30.7275 11.5574 31.2049 11.3817 31.6512C10.6334 33.4237 8.84155 34.1638 6.43925 32.9757ZM8.54618 28.6906C6.89214 28.0868 5.9076 28.2426 5.691 29.2165C5.4744 30.1904 5.691 30.8331 7.34504 31.5733C8.99907 32.3134 9.84578 31.9434 10.1805 31.1642C10.5153 30.3851 10.0427 29.3918 8.54618 28.6516V28.6906Z" fill="#1B1B1B"/>
<path id="Vector_4" d="M8.22997 25.1457C7.99352 25.0076 7.78886 24.8222 7.62914 24.6013C7.46943 24.3803 7.35819 24.1288 7.30256 23.8629C7.24693 23.5969 7.24814 23.3224 7.30613 23.0569C7.36411 22.7915 7.47758 22.5409 7.63924 22.3214C7.80216 22.1127 8.00621 21.9389 8.23904 21.8105C8.47186 21.6822 8.72861 21.6019 8.99373 21.5746C9.25884 21.5473 9.52681 21.5735 9.78138 21.6516C10.036 21.7298 10.2718 21.8582 10.4747 22.0292C10.7034 22.1541 10.9028 22.3255 11.0598 22.5321C11.2167 22.7388 11.3277 22.9759 11.3853 23.2279C11.443 23.48 11.4461 23.7413 11.3943 23.9946C11.3426 24.2479 11.2372 24.4875 11.0852 24.6977C10.9479 24.9363 10.758 25.1414 10.5298 25.2977C10.3015 25.4539 10.0406 25.5574 9.76641 25.6004C9.49223 25.6435 9.21177 25.6249 8.94581 25.5462C8.67985 25.4675 8.4352 25.3306 8.22997 25.1457ZM9.84463 22.9252C9.2539 22.4772 8.64348 22.4772 8.34812 22.9252C8.05275 23.3732 8.19059 23.6653 8.93884 24.2497C9.6871 24.834 10.14 24.6977 10.4354 24.2497C10.7307 23.8017 10.4354 23.3537 9.84463 22.9252ZM10.4354 18.7765L11.1836 17.7441L14.3342 26.3143L13.6253 27.2687L10.4747 18.6985L10.4354 18.7765ZM14.1963 23.0615C13.9705 22.9364 13.7737 22.7658 13.6187 22.5608C13.4637 22.3557 13.3539 22.1208 13.2964 21.8712C13.2389 21.6215 13.2349 21.3627 13.2848 21.1115C13.3346 20.8603 13.4372 20.6222 13.5859 20.4126C13.7474 20.1995 13.9514 20.0215 14.1852 19.8895C14.419 19.7575 14.6777 19.6744 14.9453 19.6451C15.2129 19.6159 15.4836 19.6413 15.7409 19.7197C15.9982 19.7981 16.2365 19.9279 16.4411 20.1009C16.6775 20.239 16.8822 20.4244 17.0419 20.6453C17.2016 20.8662 17.3129 21.1178 17.3685 21.3837C17.4241 21.6497 17.4229 21.9242 17.3649 22.1897C17.3069 22.4551 17.1935 22.7057 17.0318 22.9252C16.8576 23.1228 16.6448 23.2836 16.4062 23.3979C16.1676 23.5122 15.9082 23.5777 15.6434 23.5905C15.3786 23.6032 15.114 23.5629 14.8653 23.472C14.6167 23.3811 14.3891 23.2415 14.1963 23.0615ZM15.8307 20.8411C15.2399 20.4126 14.6295 20.4126 14.3342 20.8411C14.0388 21.2696 14.1963 21.7371 14.9446 22.185C15.6928 22.633 16.126 22.633 16.4411 22.185C16.4969 21.9259 16.4678 21.656 16.3581 21.4143C16.2483 21.1727 16.0636 20.9719 15.8307 20.8411Z" fill="#1B1B1B"/>
<path id="Vector_5" d="M22.0145 8.12219L24.1214 16.1275L22.7627 17.1598L15.418 13.3032L16.9342 12.1151L22.172 14.9394L20.6755 9.31033L22.0145 8.12219Z" fill="#1B1B1B"/>
<path id="Vector_6" d="M31.6047 9.91415L32.3529 11.0828L27.1152 13.9071L23.5117 7.24571L28.4541 4.57727L29.2024 5.76541L25.6186 7.6937L26.3669 9.174L29.4978 7.53787L30.1082 8.72601L27.1152 10.3427L28.0013 11.823L31.6047 9.91415Z" fill="#1B1B1B"/>
<path id="Vector_7" d="M36.8402 5.47314L38.3367 5.02516L39.2425 7.98576C38.5453 8.87196 37.6106 9.54681 36.5448 9.93353C36.0421 10.1197 35.5071 10.2053 34.9707 10.1854C34.4343 10.1656 33.9073 10.0406 33.4201 9.81775C32.9329 9.59491 32.4952 9.27864 32.1325 8.88726C31.7698 8.49589 31.4892 8.0372 31.307 7.53778C31.132 7.03322 31.0635 6.49848 31.106 5.96669C31.1484 5.4349 31.3008 4.91739 31.5537 4.44625C31.8066 3.97511 32.1547 3.56037 32.5763 3.22775C32.9979 2.89512 33.4841 2.65169 34.0047 2.51254C34.5582 2.30485 35.1519 2.22326 35.7417 2.27384C36.3314 2.32442 36.9021 2.50588 37.4112 2.8047L36.663 4.14866C36.3597 3.94321 36.007 3.8206 35.6405 3.79324C35.274 3.76587 34.9067 3.83473 34.5757 3.99284C34.2583 4.08379 33.9627 4.23702 33.7065 4.4434C33.4502 4.64979 33.2386 4.90509 33.0843 5.1941C32.9299 5.4831 32.836 5.79989 32.808 6.12558C32.7801 6.45127 32.8187 6.77919 32.9217 7.08979C33.0203 7.39843 33.1822 7.68367 33.3971 7.92772C33.6121 8.17177 33.8756 8.3694 34.1712 8.50829C34.4668 8.64717 34.7881 8.72434 35.1152 8.73497C35.4423 8.7456 35.7681 8.68948 36.0722 8.57009C36.5647 8.47382 37.0014 8.19513 37.2931 7.79098L36.8402 5.43419V5.47314Z" fill="#1B1B1B"/>
<path id="Vector_8" d="M45.8205 6.21336L42.2367 6.66135L41.7838 8.27799L39.992 8.43382L42.3746 0.642752L44.1861 0.506409L48.5181 7.45993L46.7263 7.79105L45.8205 6.31075V6.21336ZM45.0722 4.88888L43.5757 2.22044L42.6896 5.18105L45.0722 4.88888Z" fill="#1B1B1B"/>
<path id="Vector_9" d="M56.4563 0.447986L55.8656 7.98584L54.3691 7.83002L50.9232 2.9606L50.6278 7.53785L48.8359 7.40151L49.4267 0L50.9232 0.155821L54.3691 5.02524L54.6645 0.447986H56.4563Z" fill="#1B1B1B"/>
<path id="Vector_10" d="M57.2015 7.40151C57.2208 7.26956 57.2689 7.14336 57.3426 7.03173C57.4163 6.92011 57.5138 6.82575 57.6282 6.75526C57.7426 6.68476 57.8712 6.63984 58.0049 6.62362C58.1387 6.6074 58.2745 6.62028 58.4027 6.66136C58.6719 6.71304 58.9127 6.86045 59.0796 7.07577C59.2465 7.29108 59.3279 7.55939 59.3085 7.83002C59.2322 8.08726 59.0742 8.31335 58.8579 8.47474C58.6415 8.63614 58.3783 8.72425 58.1073 8.72599C57.819 8.65244 57.5679 8.47722 57.401 8.23329C57.2342 7.98937 57.1633 7.69356 57.2015 7.40151Z" fill="#1B1B1B"/>
<path id="Vector_11" d="M49.2265 95.2263C37.3395 95.2164 25.9012 90.7349 17.2314 82.6906C8.56151 74.6464 3.30909 63.6416 2.53929 51.908C2.5366 51.7896 2.55819 51.6719 2.60275 51.562C2.64732 51.4521 2.71394 51.3523 2.79859 51.2685C2.88324 51.1848 2.98417 51.1189 3.09528 51.0748C3.20639 51.0307 3.32538 51.0094 3.44507 51.012C3.56551 51.0065 3.68579 51.0259 3.79823 51.0689C3.91066 51.112 4.01277 51.1778 4.09803 51.2621C4.18328 51.3464 4.24981 51.4475 4.29334 51.5587C4.33687 51.6699 4.35646 51.7889 4.35085 51.908C4.81585 59.8695 7.43676 67.5608 11.939 74.1761C16.4413 80.7915 22.6592 86.0875 29.9414 89.5093C37.2236 92.9311 45.3021 94.3528 53.3305 93.6254C61.359 92.8981 69.042 90.0484 75.5747 85.3751C82.1073 80.7017 87.2492 74.3765 90.4617 67.0622C93.6742 59.748 94.8391 51.7137 93.8343 43.8011C92.8295 35.8886 89.692 28.3889 84.7505 22.0877C79.809 15.7866 73.2454 10.9159 65.7472 7.98589C65.6305 7.94742 65.524 7.8837 65.4354 7.79938C65.3468 7.71505 65.2783 7.61224 65.2349 7.49843C65.1915 7.38461 65.1743 7.26266 65.1846 7.14145C65.1949 7.02024 65.2323 6.90283 65.2943 6.79775C65.3332 6.68236 65.3976 6.57699 65.4828 6.48933C65.5681 6.40167 65.672 6.33392 65.7871 6.29101C65.9021 6.24809 66.0254 6.2311 66.148 6.24126C66.2705 6.25143 66.3892 6.28849 66.4954 6.34976C76.6342 10.2541 85.0683 17.5508 90.3305 26.9704C95.5928 36.3901 97.3499 47.3364 95.2964 57.9051C93.2429 68.4738 87.5086 77.996 79.0912 84.8149C70.6738 91.6338 60.1061 95.3179 49.2265 95.2263Z" fill="#1B1B1B"/>
<path id="Vector_12" d="M55.1335 31.7877C55.1085 29.0673 54.0129 26.4635 52.0792 24.529C50.1455 22.5944 47.5258 21.4812 44.7761 21.4256C43.8701 21.4469 42.9676 21.5446 42.0784 21.7177C40.8912 20.1772 39.2912 18.9967 37.46 18.3102C35.6287 17.6237 33.6397 17.4587 31.7184 17.8339C29.7972 18.2092 28.0208 19.1096 26.5907 20.433C25.1607 21.7564 24.1343 23.4498 23.628 25.3211C22.6644 25.4161 21.7292 25.6981 20.8759 26.151C20.0227 26.604 19.2681 27.2189 18.6554 27.9607C18.0426 28.7024 17.5838 29.5565 17.3052 30.4738C17.0266 31.3912 16.9336 32.354 17.0316 33.3069C17.1951 34.2802 17.5002 35.2249 17.9374 36.1117C17.0823 37.1773 16.4491 38.3999 16.0742 39.7088C15.6992 41.0177 15.5901 42.3872 15.753 43.7381C15.916 45.0889 16.3477 46.3945 17.0234 47.5795C17.6991 48.7645 18.6054 49.8053 19.6899 50.642C21.5174 52.0868 23.7893 52.8702 26.1288 52.8625C27.0639 54.155 28.3762 55.1337 29.8898 55.6673C31.3911 58.1372 32.6442 60.7467 33.631 63.4584C34.6978 67.1519 35.1042 71.0014 34.8322 74.8333C34.807 75.1044 34.8833 75.3751 35.0466 75.5942C35.21 75.8132 35.449 75.9653 35.7183 76.0214C37.4234 76.4962 39.1847 76.7451 40.9561 76.7616C43.2637 76.8365 45.5471 76.2769 47.5525 75.1449C47.7486 75.0151 47.9076 74.8377 48.0145 74.6297C48.1214 74.4216 48.1725 74.19 48.1629 73.9568L46.6467 63.0104C46.6467 62.1339 46.8043 54.148 51.2938 51.3238C52.3113 50.7331 53.1852 49.9285 53.8536 48.967C54.4687 47.9743 54.8708 46.8671 55.0351 45.7142C56.4128 45.1799 57.5982 44.2516 58.44 43.0477C59.2817 41.8438 59.7416 40.4191 59.7609 38.9555C59.8934 37.4237 59.512 35.8914 58.6755 34.5957C57.839 33.3 56.5941 32.3131 55.1335 31.7877ZM44.5004 62.9519L45.8394 73.314C43.2228 74.3457 40.3473 74.5498 37.6086 73.8984C37.8019 70.0934 37.2948 66.2854 36.1121 62.6598C35.3613 60.3386 34.3577 58.1051 33.1191 55.9984C34.1022 55.8436 35.0573 55.5483 35.9546 55.1219L37.6086 59.9913C37.779 60.3055 38.0392 60.563 38.3569 60.7315H38.6522C38.9247 60.7065 39.1843 60.6052 39.4005 60.4393L41.0545 59.2512L41.5074 58.8227L43.319 54.2649C44.7376 53.9387 46.0344 53.223 47.0602 52.2003H47.2572C45.3763 55.4908 44.3987 59.2109 44.4217 62.9909L44.5004 62.9519ZM57.5358 39.5787C57.3658 40.4964 56.9163 41.3407 56.2477 41.9986C55.579 42.6565 54.7231 43.0967 53.7945 43.26L52.8888 43.5717V44.604C52.8892 45.2585 52.7562 45.9063 52.4978 46.5088C52.2394 47.1113 51.8609 47.6561 51.3848 48.1107C50.9088 48.5652 50.345 48.9201 49.7271 49.1543C49.1093 49.3884 48.45 49.4969 47.7888 49.4734C47.4357 49.4862 47.0829 49.4401 46.7452 49.337L45.9969 49.1812L45.544 49.7655C44.7126 50.7789 43.519 51.4372 42.2103 51.604C40.9017 51.7708 39.5784 51.4333 38.5144 50.6615L37.4117 49.9798L36.6634 51.1679C36.0052 52.2834 34.9276 53.0958 33.6658 53.4279C32.4041 53.76 31.0607 53.5848 29.9291 52.9404C29.1488 52.4825 28.5248 51.8041 28.1373 50.9926L27.6844 50.2525H26.3454C25.2821 50.2602 24.2278 50.0591 23.2437 49.6608C22.2595 49.2624 21.3651 48.6748 20.6123 47.932C19.8595 47.1891 19.2633 46.3058 18.8582 45.3333C18.4531 44.3608 18.2472 43.3185 18.2524 42.2667C18.2382 41.2523 18.4295 40.2454 18.815 39.3054C19.2005 38.3654 19.7725 37.5112 20.4972 36.7934L21.2454 36.0533L20.4972 35.469C20.1102 34.9393 19.8332 34.339 19.6821 33.7028C19.531 33.0666 19.5088 32.4071 19.6168 31.7624C19.7248 31.1177 19.9609 30.5005 20.3114 29.9465C20.6619 29.3926 21.1199 28.9128 21.6589 28.5349C22.5371 27.9164 23.5754 27.5583 24.652 27.5026H25.8531L26.0106 26.4703C26.1833 25.4433 26.5624 24.4609 27.1253 23.5813C27.6883 22.7016 28.4238 21.9425 29.2884 21.3488C30.153 20.755 31.1291 20.3387 32.159 20.1244C33.189 19.9101 34.252 19.9022 35.2851 20.1011C37.4848 20.5474 39.421 21.8265 40.6804 23.6655L41.1333 24.4056L42.0391 24.094C42.9091 23.8083 43.82 23.6636 44.7367 23.6655C45.7878 23.6652 46.8284 23.873 47.7971 24.2766C48.7657 24.6803 49.6429 25.2716 50.3769 26.0159C51.111 26.7601 51.687 27.6421 52.071 28.61C52.4551 29.5778 52.6394 30.6119 52.6131 31.6513V32.5278L52.4556 33.5601L53.4992 33.8718C54.1675 33.9626 54.8093 34.1905 55.3834 34.5408C55.9576 34.8912 56.4514 35.3563 56.8332 35.9064C57.2151 36.4565 57.4766 37.0795 57.601 37.7353C57.7254 38.3912 57.7099 39.0655 57.5555 39.7151L57.5358 39.5787Z" fill="#1B1B1B"/>
<path id="Vector_13" d="M71.5968 42.1496C71.4656 41.9557 71.2862 41.7984 71.0759 41.6926C70.8656 41.5869 70.6314 41.5364 70.3957 41.5458C69.5422 41.6612 68.7245 41.9598 68 42.4208C67.2755 42.8817 66.6616 43.4939 66.2015 44.2142C65.6588 45.1866 65.3244 46.2593 65.2194 47.3651C65.1144 48.471 65.2409 49.5865 65.5911 50.6419C65.6678 50.8735 65.8077 51.0798 65.9953 51.2379C66.1829 51.396 66.411 51.4998 66.6544 51.5378H66.9498C68.0428 51.5974 69.132 51.367 70.1048 50.8704C71.0776 50.3739 71.8986 49.6293 72.4829 48.7136C73.8416 45.9088 71.7347 42.208 71.5968 42.0717V42.1496ZM70.0019 47.8955C69.7248 48.2927 69.3583 48.6209 68.9311 48.8541C68.504 49.0874 68.028 49.2193 67.5405 49.2395C67.3091 48.0344 67.4892 46.7873 68.0525 45.6945C68.0464 45.6428 68.0464 45.5905 68.0525 45.5387C68.4495 44.8805 69.0937 44.4043 69.8443 44.2142C70.1178 44.762 70.2731 45.36 70.3002 45.9703C70.3273 46.5806 70.2257 47.1898 70.0019 47.7592V47.8955Z" fill="#1B1B1B"/>
<path id="Vector_14" d="M80.2799 58.9978C79.7605 57.7132 78.9622 56.5573 77.9414 55.6115C76.9207 54.6657 75.7024 53.9533 74.3726 53.5245C71.9124 52.9632 69.3275 53.3905 67.1854 54.7127C65.0239 53.4423 62.4599 53.0184 59.9982 53.5245C58.6581 53.9333 57.4297 54.6386 56.4061 55.5869C55.3826 56.5352 54.5909 57.7017 54.091 58.9978C53.1388 61.0127 52.7087 63.2304 52.8393 65.4508C52.9699 67.6712 53.6572 69.8246 54.8392 71.7167C55.8196 73.4032 57.2102 74.821 58.8847 75.8414C60.5593 76.8618 62.4649 77.4525 64.4287 77.56H69.6665C71.6144 77.4621 73.5049 76.874 75.1588 75.8515C76.8128 74.8289 78.1756 73.4058 79.1181 71.7167C80.4112 69.8763 81.1889 67.7302 81.3722 65.4963C81.5555 63.2624 81.1379 61.0203 80.1618 58.9978H80.2799ZM77.2869 70.3922C76.5039 71.6985 75.4122 72.7973 74.1055 73.5946C72.7989 74.3918 71.3162 74.8636 69.7846 74.9694H64.5469C63.0298 74.8388 61.5653 74.3563 60.2721 73.561C58.9789 72.7657 57.8934 71.6801 57.1037 70.3922C56.0652 68.8584 55.4499 67.0828 55.3187 65.2414C55.1874 63.3999 55.5448 61.5565 56.3554 59.8937C56.7135 58.9272 57.2714 58.0451 57.9936 57.3039C58.7158 56.5627 59.5863 55.9787 60.5496 55.5892C61.0385 55.4688 61.5432 55.4229 62.0461 55.4528C63.5797 55.5272 65.0696 55.9828 66.3781 56.7773C66.5759 56.9184 66.8136 56.9943 67.0574 56.9943C67.3013 56.9943 67.539 56.9184 67.7368 56.7773C69.4932 55.6813 71.5944 55.2587 73.6441 55.5892C74.6318 55.9337 75.524 56.5026 76.249 57.2502C76.974 57.9978 77.5116 58.9033 77.8185 59.8937C78.7435 61.5094 79.1931 63.3489 79.1166 65.2041C79.04 67.0594 78.4403 68.8564 77.3853 70.3922H77.2869Z" fill="#1B1B1B"/>
</g>
</g>
</g>
<defs>
<clipPath id="clip0_701_3682">
<rect width="96.1508" height="95.2263" fill="white"/>
</clipPath>
</defs>
</svg>
