<svg width="98" height="96" viewBox="0 0 98 96" fill="none" xmlns="http://www.w3.org/2000/svg">
<g id="icon-04" clip-path="url(#clip0_701_3727)">
<g id="Layer 2">
<g id="Layer 1">
<path id="Vector" d="M0.457246 41.412L8.17079 42.4439L7.87258 44.2157L1.66994 43.4758L1.5109 44.9555L0 44.6635L0.457246 41.412Z" fill="#1B1B1B"/>
<path id="Vector_2" d="M4.39355 40.3802C3.90563 40.3257 3.43477 40.1718 3.01124 39.9283C2.58772 39.6849 2.22091 39.3573 1.93441 38.9667C1.64792 38.5761 1.44808 38.1311 1.34775 37.6603C1.24742 37.1895 1.24882 36.7034 1.35187 36.2331C1.4908 35.7835 1.72586 35.368 2.04144 35.0142C2.35701 34.6605 2.74587 34.3765 3.18215 34.1813C3.61843 33.9861 4.09214 33.8841 4.5718 33.882C5.05146 33.8799 5.52607 33.9779 5.96409 34.1693C6.45025 34.2263 6.91891 34.3821 7.34011 34.6266C7.76131 34.8711 8.12577 35.199 8.41019 35.5893C8.6946 35.9796 8.89271 36.4238 8.99184 36.8933C9.09097 37.3629 9.08894 37.8476 8.98589 38.3164C8.54852 40.0881 6.87858 40.9643 4.31403 40.3802H4.39355ZM5.74541 35.8048C4.07546 35.357 3.18085 35.8048 3.02181 36.5446C2.86277 37.2845 3.32001 38.1606 5.00984 38.6084C6.69966 39.0562 7.57439 38.6084 7.73343 37.8686C7.89247 37.1287 7.43523 36.2331 5.74541 35.8048Z" fill="#1B1B1B"/>
<path id="Vector_3" d="M6.50054 32.9816C6.03411 32.8426 5.60205 32.6107 5.23145 32.3005C4.86085 31.9902 4.55971 31.6084 4.34691 31.1788C4.13412 30.7492 4.01427 30.2811 3.99487 29.804C3.97547 29.3269 4.05695 28.8511 4.23419 28.4063C4.45668 27.9826 4.76694 27.6089 5.14517 27.3093C5.5234 27.0096 5.96128 26.7905 6.43085 26.6659C6.90042 26.5413 7.39136 26.514 7.87232 26.5857C8.35328 26.6574 8.81368 26.8265 9.22413 27.0823C9.68887 27.2238 10.119 27.4572 10.488 27.768C10.857 28.0787 11.157 28.4603 11.3694 28.8892C11.5818 29.318 11.7022 29.785 11.723 30.2611C11.7438 30.7373 11.6647 31.2127 11.4905 31.6577C10.735 33.4294 8.92593 34.033 6.50054 32.9816ZM8.62773 28.6983C6.95779 27.9585 6.04329 28.2505 5.74509 28.9904C5.44688 29.7302 5.74509 30.6258 7.41503 31.3657C9.08497 32.1055 9.93982 31.8135 10.2778 31.1515C10.6158 30.4895 10.1386 29.516 8.62773 28.7762V28.6983Z" fill="#1B1B1B"/>
<path id="Vector_4" d="M8.31127 24.9992C8.07546 24.8611 7.87145 24.6765 7.71211 24.4573C7.55278 24.2381 7.44158 23.9889 7.38554 23.7254C7.3295 23.462 7.32983 23.19 7.38651 22.9267C7.44319 22.6634 7.55499 22.4144 7.71486 22.1956C7.87934 21.987 8.08536 21.8132 8.32042 21.6849C8.55548 21.5566 8.8147 21.4764 9.08237 21.449C9.35004 21.4217 9.62058 21.4479 9.8776 21.5261C10.1346 21.6042 10.3728 21.7326 10.5776 21.9035C10.8488 22.0199 11.09 22.1941 11.2837 22.4135C11.4773 22.6328 11.6185 22.8918 11.6969 23.1714C11.7753 23.4511 11.7889 23.7443 11.7367 24.0298C11.6846 24.3152 11.568 24.5856 11.3954 24.8213C11.2229 25.0569 10.9988 25.2519 10.7395 25.3919C10.4802 25.5319 10.1922 25.6134 9.89666 25.6304C9.60108 25.6475 9.30535 25.5996 9.03106 25.4904C8.75677 25.3812 8.51085 25.2134 8.31127 24.9992ZM9.94145 22.9354C9.34504 22.4876 8.72875 22.4876 8.43055 22.9354C8.13235 23.3832 8.27151 23.6753 9.02696 24.1231C9.78241 24.5709 10.2397 24.5709 10.5379 24.1231C10.8361 23.6753 10.5379 23.3832 9.94145 22.9354ZM10.5379 18.6521L11.2933 17.6202L14.4742 26.1868L13.7585 27.2577L10.5776 18.691L10.5379 18.6521ZM14.335 22.9354C14.107 22.8103 13.9083 22.6398 13.7518 22.4348C13.5953 22.2299 13.4845 21.995 13.4264 21.7455C13.3683 21.496 13.3643 21.2373 13.4147 20.9862C13.465 20.735 13.5686 20.497 13.7187 20.2875C13.8818 20.0746 14.0877 19.8966 14.3237 19.7647C14.5598 19.6327 14.821 19.5496 15.0911 19.5204C15.3613 19.4912 15.6347 19.5166 15.8944 19.5949C16.1542 19.6733 16.3948 19.803 16.6013 19.976C16.8401 20.114 17.0467 20.2994 17.2079 20.5202C17.3692 20.741 17.4815 20.9924 17.5377 21.2583C17.5938 21.5241 17.5926 21.7985 17.5341 22.0639C17.4755 22.3292 17.361 22.5797 17.1977 22.7991C17.0218 22.9967 16.807 23.1574 16.5661 23.2716C16.3253 23.3859 16.0633 23.4514 15.796 23.4641C15.5287 23.4768 15.2615 23.4366 15.0104 23.3457C14.7594 23.2549 14.5296 23.1153 14.335 22.9354ZM15.9851 20.8716C15.3886 20.4238 14.7724 20.4238 14.4742 20.8716C14.1759 21.3194 14.335 21.7478 14.9314 22.1956C15.5278 22.6434 16.1441 22.6434 16.4423 22.1956C16.7405 21.7478 16.6013 21.3194 15.9851 20.8716Z" fill="#1B1B1B"/>
<path id="Vector_5" d="M16.3203 12.5969L19.203 10.3773C19.6042 10.0247 20.0745 9.75573 20.5852 9.58667C21.0959 9.41762 21.6364 9.35204 22.1738 9.39393C22.7111 9.43581 23.2342 9.58428 23.7112 9.83032C24.1882 10.0764 24.6091 10.4148 24.9483 10.8251C25.2822 11.2411 25.5206 11.7228 25.6472 12.2372C25.7737 12.7516 25.7855 13.2867 25.6817 13.806C25.578 14.3253 25.361 14.8165 25.0458 15.2463C24.7305 15.676 24.3243 16.0341 23.8549 16.2961L21.1711 18.4962L16.3203 12.6553V12.5969ZM22.8212 15.4005C23.3247 15.0184 23.6526 14.456 23.7328 13.8371C23.8129 13.2182 23.6388 12.5935 23.2486 12.1004C22.8584 11.6073 22.2842 11.2861 21.6523 11.2076C21.0203 11.1291 20.3824 11.2997 19.8789 11.6818L18.527 12.7137L21.3898 16.4129L22.7416 15.381L22.8212 15.4005Z" fill="#1B1B1B"/>
<path id="Vector_6" d="M32.8033 9.48179L33.4195 10.6694L28.1314 13.3368L24.6523 6.67815L29.7815 4.0108L30.3977 5.19845L26.7597 6.9702L27.5151 8.44989L30.6959 6.83391L31.2924 8.00209L28.1314 9.63754L28.8868 11.2535L32.8033 9.48179Z" fill="#1B1B1B"/>
<path id="Vector_7" d="M32.2031 3.29039L33.8731 2.68683L35.8412 8.44986L39.4594 7.26221L39.9167 8.60562L34.6285 10.3774L32.2031 3.29039Z" fill="#1B1B1B"/>
<path id="Vector_8" d="M39.3047 1.20715L41.1337 0.9151L42.6446 8.31358L40.8355 8.60563L39.3047 1.20715Z" fill="#1B1B1B"/>
<path id="Vector_9" d="M43.3995 4.16653C43.3641 3.63429 43.4407 3.10059 43.6246 2.59855C43.8085 2.0965 44.0958 1.63681 44.4686 1.24798C44.8414 0.859145 45.2918 0.549466 45.7918 0.338143C46.2919 0.12682 46.8309 0.018359 47.3755 0.019487C47.985 -0.0466621 48.6018 0.0261229 49.1777 0.232152C49.7536 0.438181 50.2731 0.771872 50.6955 1.20714L49.7015 2.23903C49.0465 1.78958 48.274 1.53288 47.4749 1.49918C47.1524 1.50264 46.8342 1.57231 46.5409 1.7037C46.2476 1.83509 45.9857 2.02528 45.7721 2.26197C45.5585 2.49866 45.398 2.77661 45.301 3.07784C45.2039 3.37907 45.1724 3.69689 45.2086 4.01077C45.2048 4.53153 45.3772 5.03885 45.699 5.45344C46.0208 5.86802 46.4738 6.16649 46.9872 6.3022C47.5006 6.4379 48.0454 6.40319 48.5365 6.20349C49.0276 6.00379 49.4373 5.65035 49.7015 5.19843L50.9142 6.23032C50.556 6.73109 50.0754 7.13601 49.5163 7.40809C48.9572 7.68017 48.3374 7.81074 47.7135 7.7879C47.1817 7.88131 46.6354 7.86006 46.1128 7.72564C45.5903 7.59122 45.1039 7.34685 44.6875 7.00955C44.2712 6.67225 43.935 6.25013 43.7022 5.77258C43.4695 5.29503 43.3458 4.77354 43.3398 4.24441L43.3995 4.16653Z" fill="#1B1B1B"/>
<path id="Vector_10" d="M52.4651 0.175354L54.2742 0.331112L53.8368 7.86588L52.0078 7.71013L52.4651 0.175354Z" fill="#1B1B1B"/>
<path id="Vector_11" d="M55.665 4.01076C55.7778 3.48926 55.9989 2.99601 56.3143 2.56156C56.6298 2.12712 57.033 1.76074 57.4989 1.48513C57.9649 1.20951 58.4836 1.03053 59.0231 0.959265C59.5625 0.888002 60.1112 0.925978 60.635 1.07084C61.6737 1.28772 62.5819 1.89981 63.1598 2.77246C63.7377 3.64512 63.9379 4.70685 63.7165 5.7241C63.495 6.74134 62.87 7.63077 61.979 8.19672C61.0879 8.76267 60.0038 8.95877 58.9651 8.7419C58.421 8.66423 57.8993 8.47689 57.433 8.19173C56.9666 7.90657 56.5657 7.52978 56.2555 7.08516C55.9454 6.64055 55.7328 6.13777 55.6311 5.6086C55.5295 5.07942 55.541 4.53536 55.665 4.01076ZM62.1658 5.35417C62.2479 5.05324 62.2655 4.73895 62.2175 4.43103C62.1696 4.12311 62.0572 3.82824 61.8873 3.56493C61.7174 3.30163 61.4937 3.07559 61.2303 2.90101C60.9669 2.72644 60.6695 2.60712 60.3567 2.55054C60.0267 2.46469 59.6819 2.44804 59.3449 2.50169C59.0079 2.55534 58.6862 2.67807 58.401 2.86185C58.1157 3.04564 57.8733 3.28634 57.6896 3.5682C57.5059 3.85006 57.385 4.16674 57.3349 4.49751C57.2497 4.79851 57.2298 5.11364 57.2763 5.42265C57.3229 5.73166 57.435 6.0277 57.6054 6.29175C57.7758 6.5558 58.0007 6.78201 58.2657 6.95585C58.5306 7.12969 58.8298 7.24731 59.144 7.30114C59.4743 7.39707 59.8219 7.42121 60.1627 7.37186C60.5035 7.32252 60.8292 7.20088 61.117 7.01546C61.4047 6.83003 61.6477 6.5853 61.8289 6.29835C62.01 6.0114 62.125 5.68917 62.1658 5.35417Z" fill="#1B1B1B"/>
<path id="Vector_12" d="M65.3256 6.83394L66.9756 2.94L68.6456 3.67985L66.9756 7.37909C66.3792 8.70303 66.6774 9.44288 67.7311 9.89068C68.7847 10.3385 69.5601 10.0464 70.1565 8.70303L71.8264 4.80909L73.556 5.64629L71.7469 9.54023C71.6075 9.99551 71.3636 10.4135 71.0339 10.7623C70.7041 11.111 70.2972 11.3812 69.8444 11.5522C69.3916 11.7232 68.9048 11.7905 68.4213 11.7488C67.9379 11.7072 67.4706 11.5578 67.0552 11.312C66.6111 11.1769 66.2049 10.9433 65.8682 10.6294C65.5314 10.3155 65.2731 9.92968 65.1134 9.50203C64.9538 9.07438 64.897 8.61642 64.9476 8.16378C64.9982 7.71115 65.1548 7.27605 65.4051 6.89235L65.3256 6.83394Z" fill="#1B1B1B"/>
<path id="Vector_13" d="M71.5703 12.4412L72.7631 11.7013C73.1378 12.5134 73.7114 13.2223 74.4331 13.7651C75.3476 14.3687 75.8048 14.3687 76.103 13.9209C76.8585 12.7332 72.624 11.1172 74.2939 8.74194C75.0494 7.71005 76.5603 7.418 78.27 8.60566C79.0352 9.13951 79.6561 9.84785 80.0791 10.6694L78.8664 11.4093C78.5893 10.7411 78.1281 10.1615 77.5344 9.7349C76.6199 9.15081 76.0235 9.30656 75.8644 9.59861C75.109 10.7863 79.3435 12.4022 77.6736 14.7775C76.9181 15.8094 75.4072 16.1015 73.5981 14.9138C72.6729 14.3195 71.9632 13.4541 71.5703 12.4412Z" fill="#1B1B1B"/>
<path id="Vector_14" d="M77.4137 16.2961C77.6058 16.0988 77.8632 15.9748 78.1399 15.9463C78.4167 15.9178 78.6949 15.9866 78.9246 16.1404C79.0416 16.222 79.1396 16.327 79.212 16.4485C79.2844 16.57 79.3296 16.7052 79.3446 16.8451C79.3597 16.985 79.3442 17.1265 79.2992 17.2601C79.2542 17.3937 79.1807 17.5164 79.0837 17.6201C78.8936 17.8217 78.634 17.9473 78.3549 17.9724C78.0759 17.9976 77.7972 17.9206 77.5728 17.7564C77.1155 17.4643 77.1155 16.8802 77.4137 16.2961Z" fill="#1B1B1B"/>
<path id="Vector_15" d="M81.946 41.8599C81.6855 40.9864 81.1582 40.2118 80.4351 39.6403C79.9977 39.3483 79.8387 39.1925 79.3815 38.9005C79.0112 38.6443 78.6019 38.4472 78.1688 38.3164C77.3274 38.0185 76.4393 37.8669 75.5446 37.8686C74.7115 38.03 73.8984 38.278 73.1192 38.6085C72.686 38.7392 72.2767 38.9364 71.9065 39.1925C71.6428 39.4389 71.3408 39.6426 71.0119 39.7961C70.44 40.1462 69.834 40.4397 69.2028 40.6722C68.5794 41.0101 67.9099 41.2593 67.2147 41.4121C66.5714 41.6341 65.9045 41.7844 65.2267 41.8599L63.0995 42.1519L64.173 44.5272C65.7747 48.2501 66.7935 52.1884 67.1948 56.2091C67.3824 58.0549 67.1725 59.9187 66.5786 61.68C66.3294 62.4417 65.8982 63.1341 65.3207 63.6996C64.7433 64.2652 64.0363 64.6875 63.2586 64.9315C62.4388 65.2327 61.5696 65.3845 60.694 65.3793C59.8634 65.387 59.0393 65.2349 58.2686 64.9315C56.5733 64.1845 55.1514 62.9481 54.1932 61.388C52.3766 58.7765 51.0317 55.8788 50.2171 52.8213L51.1117 52.3735L55.048 48.6743C55.5615 48.1424 55.8767 47.4564 55.9426 46.7273C55.9648 46.3778 55.9176 46.0273 55.8035 45.6954C55.5079 44.8345 54.9356 44.0905 54.1723 43.5746C53.409 43.0586 52.4957 42.7986 51.569 42.8334H46.1218C45.2301 42.8379 44.3582 43.0913 43.6082 43.5637C42.8583 44.0361 42.2613 44.708 41.8873 45.5007C41.7574 45.8291 41.7031 46.1814 41.7282 46.5326C41.7154 47.2525 41.9859 47.9497 42.4837 48.4796L46.1218 52.3735C46.2609 52.5293 46.579 52.685 46.7182 52.8213C46.3809 53.7382 45.9755 54.6297 45.5055 55.4887C44.5724 57.2185 43.4599 58.8496 42.1855 60.3561C40.9392 61.82 39.4465 63.0645 37.7721 64.0359C36.2399 64.8224 34.4978 65.1283 32.7821 64.912C32.0447 64.8381 31.343 64.5637 30.7564 64.1199C30.1697 63.6761 29.7214 63.0805 29.4621 62.4004C28.8987 60.7299 28.7959 58.9434 29.1639 57.2215C29.8641 53.2443 31.08 49.3709 32.7821 45.6954L33.5574 43.7484L29.9193 42.113L29.0049 43.8847C27.1503 47.5317 25.8126 51.4095 25.0288 55.4108C24.743 56.6904 24.5898 57.995 24.5716 59.3047C24.5217 60.9281 24.8338 62.5426 25.486 64.0359C26.0293 65.4055 26.9776 66.5851 28.2096 67.4236C29.3677 68.2711 30.7452 68.7837 32.1857 68.9033C32.8396 69.0332 33.5071 69.0855 34.1737 69.0591C34.8461 69.042 35.5138 68.9439 36.1618 68.767C36.718 68.6114 37.2574 68.4027 37.7721 68.144C38.3756 67.9472 38.9403 67.6509 39.442 67.2678C41.4734 65.9908 43.2239 64.3294 44.591 62.3809C45.8918 60.5461 47.0039 58.5896 47.911 56.54C47.911 56.4038 48.07 56.248 48.07 55.9559C48.2327 56.334 48.3333 56.7348 48.3682 57.1436C49.1135 59.2506 50.0726 61.2791 51.231 63.1987C52.5114 65.3209 54.4076 67.022 56.6782 68.0856C57.8961 68.6074 59.2095 68.8816 60.5388 68.8917C61.8681 68.9017 63.1856 68.6473 64.4116 68.144C65.6905 67.6879 66.8321 66.9247 67.7316 65.9244C68.6487 65.0108 69.3302 63.8961 69.7196 62.673C70.491 60.4456 70.749 58.0785 70.4751 55.7418C70.5013 55.4367 70.4536 55.1298 70.3359 54.8462C73.1732 53.8215 75.7504 52.2075 77.8904 50.115C79.0109 49.0932 80.0172 47.9576 80.8923 46.7273C81.5661 46.1261 82.0303 45.333 82.2193 44.4597C82.4083 43.5865 82.3127 42.6771 81.946 41.8599ZM79.0832 45.5591C78.2916 46.5957 77.3774 47.5368 76.3596 48.3628C74.5339 49.9483 72.4333 51.2011 70.157 52.062C69.9808 51.0074 69.7283 49.9664 69.4016 48.9469L72.5824 47.1751C73.8927 46.3773 75.1065 45.4368 76.2006 44.3715C76.2785 44.2632 76.3203 44.134 76.3203 44.0016C76.3203 43.8691 76.2785 43.7399 76.2006 43.6316C76.1621 43.567 76.1069 43.5134 76.0407 43.4761C75.9744 43.4388 75.8993 43.4192 75.8229 43.4192C75.7465 43.4192 75.6714 43.4388 75.6051 43.4761C75.5388 43.5134 75.4837 43.567 75.4452 43.6316C74.3523 44.4943 73.1324 45.1901 71.827 45.6954C70.8957 46.157 69.9324 46.5538 68.9443 46.8831C68.6461 45.9875 68.3479 45.2671 68.0497 44.3715C69.0854 43.9142 70.0942 43.4007 71.0715 42.8334C71.763 42.4351 72.4271 41.9928 73.0595 41.5094C73.3907 41.3038 73.6917 41.0549 73.9541 40.7696C74.1132 40.6138 74.4114 40.4775 74.5704 40.3218C75.4946 39.8889 76.5496 39.8057 77.5326 40.0881C77.8126 40.0907 78.0817 40.1948 78.288 40.3802C78.4272 40.536 78.8844 40.828 79.0435 40.9643C79.4366 41.3753 79.6991 41.8894 79.7989 42.444C79.9208 42.9854 79.9161 43.5468 79.7853 44.0862C79.6545 44.6257 79.4009 45.1292 79.0435 45.5591H79.0832Z" fill="#1B1B1B"/>
<path id="Vector_16" d="M35.2287 37.1287C35.4512 37.2173 35.6998 37.2204 35.9246 37.1373C36.1494 37.0543 36.3339 36.8913 36.4414 36.6809L36.6004 36.5446C36.7055 36.1505 36.9106 35.7888 37.1968 35.4932C37.3559 35.2012 37.6541 35.0649 37.9523 34.7534C38.5686 34.4613 39.0059 34.1693 39.6222 34.3251C39.9234 34.3067 40.2252 34.3491 40.5091 34.4496C40.7929 34.5501 41.0526 34.7065 41.2723 34.9091C41.5904 35.0649 41.7295 35.357 42.0277 35.649C42.3259 35.941 42.3458 36.2331 42.644 36.6809V36.8366C42.699 36.9678 42.78 37.087 42.8824 37.1873C42.9848 37.2875 43.1065 37.3669 43.2404 37.4207C43.6977 37.5765 44.1549 37.2845 44.314 36.6809C44.4072 36.0283 44.3529 35.3637 44.1549 34.7339C43.9987 34.1266 43.6835 33.5696 43.2404 33.1179C42.7908 32.609 42.2355 32.1998 41.6115 31.9178C40.9876 31.6358 40.3094 31.4874 39.6222 31.4825C38.2614 31.5044 36.9604 32.0335 35.9841 32.9622C35.5468 33.4493 35.1912 34.0013 34.9305 34.5976C34.7199 35.225 34.6654 35.8925 34.7714 36.5446C34.7972 36.6696 34.8517 36.7873 34.931 36.8885C35.0102 36.9897 35.1121 37.0719 35.2287 37.1287Z" fill="#1B1B1B"/>
<path id="Vector_17" d="M54.2934 37.4208C54.5132 37.5084 54.7587 37.5109 54.9802 37.4277C55.2017 37.3446 55.3826 37.182 55.4863 36.973L55.6453 36.8367C55.7542 36.4499 55.9591 36.0954 56.2417 35.8048C56.4008 35.4933 56.699 35.357 56.9972 35.065C57.6134 34.7535 58.0707 34.4614 58.6671 34.6172C58.9714 34.5985 59.2763 34.6406 59.5634 34.741C59.8505 34.8414 60.1137 34.998 60.337 35.2013C60.6352 35.357 60.7943 35.6491 61.0925 35.9411C61.3907 36.2332 61.3907 36.5447 61.6889 36.973V37.1288C61.8083 37.395 62.0296 37.6048 62.3052 37.7129C62.7426 37.8686 63.1998 37.5766 63.3588 36.973C63.4548 36.3205 63.4004 35.6553 63.1998 35.026C63.0561 34.4124 62.7472 33.8477 62.3052 33.3906C61.8507 32.8837 61.2912 32.4774 60.6639 32.1988C60.0366 31.9202 59.3559 31.7755 58.6671 31.7746C57.3103 31.7874 56.0121 32.3183 55.0489 33.2543C54.6079 33.7353 54.2457 34.2805 53.9754 34.8703C53.7722 35.4993 53.7245 36.1666 53.8362 36.8172C53.6772 36.9535 53.9754 37.265 54.2934 37.4013V37.4208Z" fill="#1B1B1B"/>
<path id="Vector_18" d="M49.6988 95.2263C37.6745 95.2046 26.1098 90.7002 17.3545 82.6284C8.59927 74.5567 3.31044 63.5232 2.56273 51.77C2.56001 51.6516 2.58181 51.534 2.6268 51.4241C2.6718 51.3143 2.73906 51.2145 2.82453 51.1308C2.90999 51.0471 3.01189 50.9812 3.12407 50.9371C3.23625 50.8931 3.35638 50.8717 3.47722 50.8744C3.59881 50.8688 3.72026 50.8882 3.83377 50.9312C3.94729 50.9743 4.05038 51.0401 4.13646 51.1244C4.22253 51.2086 4.28969 51.3096 4.33365 51.4208C4.3776 51.532 4.39738 51.6509 4.39171 51.77C4.82708 58.7701 6.94687 65.5702 10.578 71.6149C14.2091 77.6596 19.2485 82.7775 25.2848 86.5507C31.3211 90.3238 38.183 92.6453 45.3103 93.3255C52.4376 94.0057 59.6281 93.0253 66.2946 90.4645C72.9612 87.9036 78.9147 83.8348 83.6691 78.5904C88.4235 73.346 91.8439 67.0747 93.6511 60.2885C95.4583 53.5024 95.6009 46.3938 94.0674 39.5434C92.5338 32.693 89.3676 26.2949 84.8273 20.8716C84.7479 20.7748 84.689 20.6636 84.654 20.5443C84.619 20.4251 84.6086 20.3002 84.6234 20.1769C84.6382 20.0537 84.6779 19.9346 84.7402 19.8265C84.8025 19.7185 84.8862 19.6237 84.9863 19.5476C85.0827 19.4662 85.195 19.405 85.3164 19.3676C85.4378 19.3302 85.5657 19.3175 85.6922 19.3303C85.8188 19.3431 85.9414 19.381 86.0525 19.4418C86.1635 19.5026 86.2607 19.585 86.3382 19.6839C93.26 27.9086 97.0542 38.2302 97.0735 48.8885C97.0107 61.1692 91.9974 72.9285 83.1248 81.6069C74.2522 90.2853 62.2386 95.1803 49.6988 95.2263Z" fill="#1B1B1B"/>
</g>
</g>
</g>
<defs>
<clipPath id="clip0_701_3727">
<rect width="97.0753" height="95.2263" fill="white"/>
</clipPath>
</defs>
</svg>
