<svg width="26" height="25" viewBox="0 0 26 25" fill="none" xmlns="http://www.w3.org/2000/svg">
<path id="Star 2" d="M12.6022 0.588447C12.7674 -0.196148 13.8875 -0.19615 14.0527 0.588446L15.1495 5.79787C15.2627 6.3351 15.9002 6.56716 16.3322 6.22832L20.521 2.94271C21.1519 2.44787 22.0099 3.16785 21.6321 3.87507L19.1238 8.57076C18.8651 9.05501 19.2044 9.6426 19.7531 9.66071L25.0738 9.83628C25.8752 9.86273 26.0697 10.9658 25.3257 11.2647L20.3859 13.2495C19.8765 13.4542 19.7586 14.1224 20.1673 14.489L24.1304 18.0436C24.7273 18.5789 24.1672 19.549 23.4052 19.2997L18.3453 17.6449C17.8234 17.4743 17.3037 17.9104 17.3811 18.4539L18.1322 23.7243C18.2453 24.5181 17.1927 24.9012 16.7692 24.2204L13.9567 19.7003C13.6667 19.2342 12.9882 19.2342 12.6982 19.7003L9.88574 24.2204C9.46216 24.9012 8.40961 24.5181 8.52272 23.7243L9.27375 18.4539C9.3512 17.9104 8.83145 17.4743 8.30964 17.6449L3.24972 19.2997C2.48765 19.549 1.92759 18.5789 2.52448 18.0436L6.48754 14.489C6.89624 14.1224 6.77842 13.4542 6.269 13.2495L1.32918 11.2647C0.585193 10.9658 0.779695 9.86273 1.58106 9.83628L6.9018 9.66071C7.45051 9.6426 7.78976 9.05501 7.53109 8.57076L5.02277 3.87507C4.64499 3.16785 5.50303 2.44786 6.13391 2.94271L10.3227 6.22832C10.7547 6.56715 11.3922 6.3351 11.5054 5.79787L12.6022 0.588447Z" fill="white"/>
</svg>
