<svg width="28" height="28" viewBox="0 0 28 28" fill="none" xmlns="http://www.w3.org/2000/svg">
<g id="Social Media Icons">
<path id="Vector" d="M25 5.03813C24.0424 5.71361 22.9821 6.23024 21.86 6.56813C21.2577 5.87564 20.4573 5.38482 19.567 5.16206C18.6767 4.93929 17.7395 4.99533 16.8821 5.32259C16.0247 5.64984 15.2884 6.23253 14.773 6.99185C14.2575 7.75116 13.9877 8.65047 14 9.56813V10.5681C12.2426 10.6137 10.5013 10.2239 8.93101 9.43358C7.36074 8.64321 6.01032 7.47677 5 6.03813C5 6.03813 1 15.0381 10 19.0381C7.94053 20.4361 5.48716 21.1371 3 21.0381C12 26.0381 23 21.0381 23 9.53813C22.9991 9.25959 22.9723 8.98173 22.92 8.70813C23.9406 7.70163 24.6608 6.43084 25 5.03813Z" stroke="#1B1B1B" stroke-width="2" stroke-linecap="round" stroke-linejoin="round"/>
</g>
</svg>
