<svg width="7" height="26" viewBox="0 0 7 26" fill="none" xmlns="http://www.w3.org/2000/svg">
<path id=":" d="M6.66251 25.6775V25.5675C6.66251 25.3108 6.68084 24.8342 6.71751 24.1375C6.75417 23.4408 6.79084 22.7258 6.82751 21.9925C6.86417 21.2592 6.90084 20.6175 6.93751 20.0675C6.97417 19.4808 6.99251 19.1692 6.99251 19.1325C6.73584 19.0225 6.29584 18.9492 5.67251 18.9125C5.08584 18.8392 4.44417 18.8025 3.74751 18.8025C3.05084 18.8025 2.35417 18.8392 1.65751 18.9125C0.997507 18.9858 0.484174 19.0958 0.117507 19.2425C0.117507 19.4992 0.099174 19.9025 0.0625074 20.4525C0.0625074 21.0025 0.0441741 21.5892 0.00750732 22.2125C0.00750732 22.8358 0.00750732 23.4592 0.00750732 24.0825C0.0441741 24.7058 0.0991741 25.2192 0.172507 25.6225H0.337507L6.55251 25.6775H6.66251ZM6.66251 7.19751V7.08751C6.66251 6.83084 6.68084 6.35418 6.71751 5.65751C6.75417 4.96084 6.79084 4.24584 6.82751 3.51251C6.86417 2.77918 6.90084 2.13751 6.93751 1.58751C6.97417 1.00084 6.99251 0.689177 6.99251 0.65251C6.73584 0.54251 6.29584 0.469176 5.67251 0.43251C5.08584 0.359177 4.44417 0.32251 3.74751 0.32251C3.05084 0.32251 2.35417 0.359177 1.65751 0.43251C0.997507 0.505843 0.484174 0.615844 0.117507 0.762511C0.117507 1.01918 0.099174 1.42251 0.0625074 1.97251C0.0625074 2.52251 0.0441741 3.10918 0.00750732 3.73251C0.00750732 4.35584 0.00750732 4.97918 0.00750732 5.60251C0.0441741 6.22584 0.0991741 6.73918 0.172507 7.14251H0.337507L6.55251 7.19751H6.66251Z" fill="white"/>
</svg>
