<svg width="30" height="17" viewBox="0 0 30 17" fill="none" xmlns="http://www.w3.org/2000/svg">
<path id="Vector" fill-rule="evenodd" clip-rule="evenodd" d="M28.2703 8.28626C29.5341 7.30052 30.2609 5.6788 29.9132 3.898C29.5972 2.18084 28.2386 0.78171 26.564 0.400123C24.0048 -0.17231 21.6983 1.51309 21.2243 3.83441C21.1295 4.24785 20.782 4.53393 20.3713 4.53393H9.6287C9.2179 4.53393 8.87037 4.24771 8.77566 3.83441C8.30173 1.48126 5.99523 -0.172257 3.43596 0.400123C1.72976 0.781657 0.402757 2.18084 0.0867979 3.898C-0.260836 5.67882 0.465896 7.30049 1.72973 8.28626C0.465896 9.272 -0.260862 10.8937 0.0867979 12.6745C0.402757 14.3917 1.76143 15.7908 3.43596 16.1724C5.9952 16.7448 8.30173 15.0594 8.77566 12.7381C8.87049 12.3247 9.21803 12.0386 9.6287 12.0386H20.3713C20.7821 12.0386 21.1296 12.3248 21.2243 12.7381C21.6983 15.0913 24.0048 16.7448 26.564 16.1724C28.2702 15.7909 29.5972 14.3917 29.9132 12.6745C30.2608 10.8937 29.5341 9.27202 28.2703 8.28626Z" fill="white"/>
</svg>
