<svg width="275" height="6" viewBox="0 0 275 6" fill="none" xmlns="http://www.w3.org/2000/svg">
<path opacity="0.7" d="M0.333333 3C0.333333 4.47276 1.52724 5.66667 3 5.66667C4.47276 5.66667 5.66667 4.47276 5.66667 3C5.66667 1.52724 4.47276 0.333333 3 0.333333C1.52724 0.333333 0.333333 1.52724 0.333333 3ZM269.333 2.99998C269.333 4.47274 270.527 5.66664 272 5.66664C273.473 5.66664 274.667 4.47274 274.667 2.99998C274.667 1.52722 273.473 0.33331 272 0.33331C270.527 0.33331 269.333 1.52722 269.333 2.99998ZM3 3.5L272 3.49998L272 2.49998L3 2.5L3 3.5Z" fill="#1B1B1B"/>
</svg>
