<svg width="356" height="7" viewBox="0 0 356 7" fill="none" xmlns="http://www.w3.org/2000/svg">
<path opacity="0.7" d="M0.332845 3.35156C0.332845 4.82432 1.52675 6.01823 2.99951 6.01823C4.47227 6.01823 5.66618 4.82432 5.66618 3.35156C5.66618 1.8788 4.47227 0.684896 2.99951 0.684896C1.52675 0.684896 0.332845 1.8788 0.332845 3.35156ZM350.333 3.35153C350.333 4.82429 351.527 6.0182 352.999 6.0182C354.472 6.0182 355.666 4.82429 355.666 3.35153C355.666 1.87877 354.472 0.684865 352.999 0.684865C351.527 0.684865 350.333 1.87877 350.333 3.35153ZM2.99951 3.85156L352.999 3.85153L352.999 2.85153L2.99951 2.85156L2.99951 3.85156Z" fill="#1B1B1B"/>
</svg>
