<svg width="179" height="7" viewBox="0 0 179 7" fill="none" xmlns="http://www.w3.org/2000/svg">
<path id="Vector 13" opacity="0.7" d="M0.333333 3.35156C0.333333 4.82432 1.52724 6.01823 3 6.01823C4.47276 6.01823 5.66667 4.82432 5.66667 3.35156C5.66667 1.8788 4.47276 0.684896 3 0.684896C1.52724 0.684896 0.333333 1.8788 0.333333 3.35156ZM173.333 3.35158C173.333 4.82434 174.527 6.01824 176 6.01824C177.473 6.01824 178.667 4.82434 178.667 3.35158C178.667 1.87882 177.473 0.684911 176 0.684911C174.527 0.684911 173.333 1.87882 173.333 3.35158ZM3 3.85156L176 3.85158L176 2.85158L3 2.85156L3 3.85156Z" fill="#1B1B1B"/>
</svg>
