<svg width="236" height="6" viewBox="0 0 236 6" fill="none" xmlns="http://www.w3.org/2000/svg">
<path opacity="0.7" d="M0.333333 3C0.333333 4.47276 1.52724 5.66667 3 5.66667C4.47276 5.66667 5.66667 4.47276 5.66667 3C5.66667 1.52724 4.47276 0.333333 3 0.333333C1.52724 0.333333 0.333333 1.52724 0.333333 3ZM230.333 3.00002C230.333 4.47278 231.527 5.66669 233 5.66669C234.473 5.66669 235.667 4.47278 235.667 3.00002C235.667 1.52726 234.473 0.333353 233 0.333353C231.527 0.333353 230.333 1.52726 230.333 3.00002ZM3 3.5L233 3.50002L233 2.50002L3 2.5L3 3.5Z" fill="#1B1B1B"/>
</svg>
