<svg width="143" height="7" viewBox="0 0 143 7" fill="none" xmlns="http://www.w3.org/2000/svg">
<path id="Vector 14" opacity="0.7" d="M0.333333 3.35156C0.333333 4.82432 1.52724 6.01823 3 6.01823C4.47276 6.01823 5.66667 4.82432 5.66667 3.35156C5.66667 1.8788 4.47276 0.684896 3 0.684896C1.52724 0.684896 0.333333 1.8788 0.333333 3.35156ZM137.333 3.35157C137.333 4.82433 138.527 6.01824 140 6.01824C141.473 6.01824 142.667 4.82433 142.667 3.35157C142.667 1.87882 141.473 0.684908 140 0.684908C138.527 0.684908 137.333 1.87881 137.333 3.35157ZM3 3.85156L140 3.85157L140 2.85157L3 2.85156L3 3.85156Z" fill="#1B1B1B"/>
</svg>
