<svg width="466" height="6" viewBox="0 0 466 6" fill="none" xmlns="http://www.w3.org/2000/svg">
<path opacity="0.7" d="M0.333333 3C0.333333 4.47276 1.52724 5.66667 3 5.66667C4.47276 5.66667 5.66667 4.47276 5.66667 3C5.66667 1.52724 4.47276 0.333333 3 0.333333C1.52724 0.333333 0.333333 1.52724 0.333333 3ZM460.333 2.99996C460.333 4.47272 461.527 5.66663 463 5.66663C464.473 5.66663 465.667 4.47272 465.667 2.99996C465.667 1.5272 464.473 0.333293 463 0.333293C461.527 0.333293 460.333 1.5272 460.333 2.99996ZM3 3.5L463 3.49996L463 2.49996L3 2.5L3 3.5Z" fill="#1B1B1B"/>
</svg>
